%TF.GenerationSoftware,KiCad,Pcbnew,(6.0.7)*%
%TF.CreationDate,2022-08-28T16:53:58+02:00*%
%TF.ProjectId,RPi_Hat,5250695f-4861-4742-9e6b-696361645f70,rev?*%
%TF.SameCoordinates,Original*%
%TF.FileFunction,Copper,L4,Bot*%
%TF.FilePolarity,Positive*%
%FSLAX46Y46*%
G04 Gerber Fmt 4.6, Leading zero omitted, Abs format (unit mm)*
G04 Created by KiCad (PCBNEW (6.0.7)) date 2022-08-28 16:53:58*
%MOMM*%
%LPD*%
G01*
G04 APERTURE LIST*
%TA.AperFunction,ComponentPad*%
%ADD10R,1.727200X1.727200*%
%TD*%
%TA.AperFunction,ComponentPad*%
%ADD11O,1.727200X1.727200*%
%TD*%
%TA.AperFunction,ComponentPad*%
%ADD12R,1.700000X1.700000*%
%TD*%
%TA.AperFunction,ComponentPad*%
%ADD13O,1.700000X1.700000*%
%TD*%
%TA.AperFunction,ComponentPad*%
%ADD14C,1.200000*%
%TD*%
%TA.AperFunction,ComponentPad*%
%ADD15C,2.050000*%
%TD*%
%TA.AperFunction,ComponentPad*%
%ADD16C,2.250000*%
%TD*%
%TA.AperFunction,SMDPad,CuDef*%
%ADD17R,2.000000X1.500000*%
%TD*%
%TA.AperFunction,SMDPad,CuDef*%
%ADD18R,2.000000X3.800000*%
%TD*%
%TA.AperFunction,ViaPad*%
%ADD19C,0.600000*%
%TD*%
%TA.AperFunction,Conductor*%
%ADD20C,0.500000*%
%TD*%
%TA.AperFunction,Conductor*%
%ADD21C,0.250000*%
%TD*%
G04 APERTURE END LIST*
D10*
%TO.P,J6,1,3.3V*%
%TO.N,Net-(J6-Pad1)*%
X121541600Y-63527200D03*
D11*
%TO.P,J6,2,5V*%
%TO.N,+5V*%
X121541600Y-60987200D03*
%TO.P,J6,3,BCM2_SDA*%
%TO.N,SDA*%
X124081600Y-63527200D03*
%TO.P,J6,4,5V*%
%TO.N,+5V*%
X124081600Y-60987200D03*
%TO.P,J6,5,BCM3_SCL*%
%TO.N,SCL*%
X126621600Y-63527200D03*
%TO.P,J6,6,GND*%
%TO.N,GND*%
X126621600Y-60987200D03*
%TO.P,J6,7,BCM4_GPCLK0*%
%TO.N,GPCLK0*%
X129161600Y-63527200D03*
%TO.P,J6,8,BCM14_TXD*%
%TO.N,unconnected-(J6-Pad8)*%
X129161600Y-60987200D03*
%TO.P,J6,9,GND*%
%TO.N,GND*%
X131701600Y-63527200D03*
%TO.P,J6,10,BCM15_RXD*%
%TO.N,unconnected-(J6-Pad10)*%
X131701600Y-60987200D03*
%TO.P,J6,11,BCM17*%
%TO.N,unconnected-(J6-Pad11)*%
X134241600Y-63527200D03*
%TO.P,J6,12,BCM18_PCM_C*%
%TO.N,BCK*%
X134241600Y-60987200D03*
%TO.P,J6,13,BCM27*%
%TO.N,unconnected-(J6-Pad13)*%
X136781600Y-63527200D03*
%TO.P,J6,14,GND*%
%TO.N,GND*%
X136781600Y-60987200D03*
%TO.P,J6,15,BCM22*%
%TO.N,unconnected-(J6-Pad15)*%
X139321600Y-63527200D03*
%TO.P,J6,16,BCM23*%
%TO.N,unconnected-(J6-Pad16)*%
X139321600Y-60987200D03*
%TO.P,J6,17,3.3V*%
%TO.N,unconnected-(J6-Pad17)*%
X141861600Y-63527200D03*
%TO.P,J6,18,BCM24*%
%TO.N,unconnected-(J6-Pad18)*%
X141861600Y-60987200D03*
%TO.P,J6,19,BCM10_MOSI*%
%TO.N,unconnected-(J6-Pad19)*%
X144401600Y-63527200D03*
%TO.P,J6,20,GND*%
%TO.N,GND*%
X144401600Y-60987200D03*
%TO.P,J6,21,BCM9_MISO*%
%TO.N,unconnected-(J6-Pad21)*%
X146941600Y-63527200D03*
%TO.P,J6,22,BCM25*%
%TO.N,unconnected-(J6-Pad22)*%
X146941600Y-60987200D03*
%TO.P,J6,23,BCM11_SCLK*%
%TO.N,unconnected-(J6-Pad23)*%
X149481600Y-63527200D03*
%TO.P,J6,24,BCM8_CE0*%
%TO.N,unconnected-(J6-Pad24)*%
X149481600Y-60987200D03*
%TO.P,J6,25,GND*%
%TO.N,GND*%
X152021600Y-63527200D03*
%TO.P,J6,26,BCM7_CE1*%
%TO.N,unconnected-(J6-Pad26)*%
X152021600Y-60987200D03*
%TO.P,J6,27,BCM0_ID_SD*%
%TO.N,unconnected-(J6-Pad27)*%
X154561600Y-63527200D03*
%TO.P,J6,28,BCM1_ID_SC*%
%TO.N,unconnected-(J6-Pad28)*%
X154561600Y-60987200D03*
%TO.P,J6,29,BCM5*%
%TO.N,unconnected-(J6-Pad29)*%
X157101600Y-63527200D03*
%TO.P,J6,30,GND*%
%TO.N,GND*%
X157101600Y-60987200D03*
%TO.P,J6,31,BCM6*%
%TO.N,unconnected-(J6-Pad31)*%
X159641600Y-63527200D03*
%TO.P,J6,32,BCM12_PWM0*%
%TO.N,unconnected-(J6-Pad32)*%
X159641600Y-60987200D03*
%TO.P,J6,33,BCM13_PWM1*%
%TO.N,unconnected-(J6-Pad33)*%
X162181600Y-63527200D03*
%TO.P,J6,34,GND*%
%TO.N,GND*%
X162181600Y-60987200D03*
%TO.P,J6,35,BCM19_MISO_PCM_FS*%
%TO.N,LRCK*%
X164721600Y-63527200D03*
%TO.P,J6,36,BCM16*%
%TO.N,unconnected-(J6-Pad36)*%
X164721600Y-60987200D03*
%TO.P,J6,37,BCM26*%
%TO.N,unconnected-(J6-Pad37)*%
X167261600Y-63527200D03*
%TO.P,J6,38,BCM20_MOSI_PCM_DI*%
%TO.N,Dout*%
X167261600Y-60987200D03*
%TO.P,J6,39,GND*%
%TO.N,GND*%
X169801600Y-63527200D03*
%TO.P,J6,40,BCM21_SCLK_PCM_DO*%
%TO.N,Din*%
X169801600Y-60987200D03*
%TD*%
D12*
%TO.P,J7,1,Pin_1*%
%TO.N,/InL*%
X130159600Y-102514400D03*
D13*
%TO.P,J7,2,Pin_2*%
%TO.N,GND*%
X132699600Y-102514400D03*
%TO.P,J7,3,Pin_3*%
X135239600Y-102514400D03*
%TO.P,J7,4,Pin_4*%
%TO.N,/InR*%
X137779600Y-102514400D03*
%TD*%
D12*
%TO.P,J5,1,Pin_1*%
%TO.N,SDA*%
X116027200Y-68341000D03*
D13*
%TO.P,J5,2,Pin_2*%
%TO.N,SCL*%
X116027200Y-70881000D03*
%TO.P,J5,3,Pin_3*%
%TO.N,GND*%
X116027200Y-73421000D03*
%TD*%
D14*
%TO.P,C12,1*%
%TO.N,+3.3V*%
X137083800Y-87061800D03*
%TO.P,C12,2*%
%TO.N,GND*%
X137083800Y-89061800D03*
%TD*%
D12*
%TO.P,J8,1,Pin_1*%
%TO.N,/OutL*%
X163769200Y-102489000D03*
D13*
%TO.P,J8,2,Pin_2*%
%TO.N,GND*%
X161229200Y-102489000D03*
%TO.P,J8,3,Pin_3*%
X158689200Y-102489000D03*
%TO.P,J8,4,Pin_4*%
%TO.N,/OutR*%
X156149200Y-102489000D03*
%TD*%
D15*
%TO.P,J1,1,In*%
%TO.N,/InR*%
X139700000Y-110490000D03*
D16*
%TO.P,J1,2,Ext*%
%TO.N,GND*%
X142240000Y-107950000D03*
X137160000Y-107950000D03*
X142240000Y-113030000D03*
X137160000Y-113030000D03*
%TD*%
D15*
%TO.P,J3,1,In*%
%TO.N,/OutL*%
X164439600Y-110083600D03*
D16*
%TO.P,J3,2,Ext*%
%TO.N,GND*%
X166979600Y-107543600D03*
X161899600Y-107543600D03*
X161899600Y-112623600D03*
X166979600Y-112623600D03*
%TD*%
D14*
%TO.P,C11,1*%
%TO.N,+5V*%
X121920000Y-94062800D03*
%TO.P,C11,2*%
%TO.N,GND*%
X121920000Y-96062800D03*
%TD*%
D15*
%TO.P,J2,1,In*%
%TO.N,/InL*%
X130098800Y-110490000D03*
D16*
%TO.P,J2,2,Ext*%
%TO.N,GND*%
X132638800Y-113030000D03*
X127558800Y-113030000D03*
X127558800Y-107950000D03*
X132638800Y-107950000D03*
%TD*%
D15*
%TO.P,J4,1,In*%
%TO.N,/OutR*%
X155651200Y-110083600D03*
D16*
%TO.P,J4,2,Ext*%
%TO.N,GND*%
X153111200Y-107543600D03*
X153111200Y-112623600D03*
X158191200Y-112623600D03*
X158191200Y-107543600D03*
%TD*%
D17*
%TO.P,U2,1,GND*%
%TO.N,GND*%
X120751200Y-89320400D03*
D18*
%TO.P,U2,2,VO*%
%TO.N,+3.3V*%
X127051200Y-87020400D03*
D17*
X120751200Y-87020400D03*
%TO.P,U2,3,VI*%
%TO.N,+5V*%
X120751200Y-84720400D03*
%TD*%
D19*
%TO.N,GND*%
X147320000Y-105410000D03*
X133705600Y-80010000D03*
X147320000Y-110490000D03*
X116865400Y-101650800D03*
X138226800Y-70383400D03*
X175260000Y-80010000D03*
X147320000Y-80010000D03*
X143916400Y-70358000D03*
X162509200Y-81178400D03*
X175260000Y-102870000D03*
X121412000Y-91389200D03*
X147320000Y-90170000D03*
X161188400Y-83413600D03*
X132130800Y-75539600D03*
X148742400Y-72390000D03*
X133350000Y-91440000D03*
X175260000Y-68580000D03*
X175260000Y-87630000D03*
X129590800Y-74879200D03*
X175260000Y-72390000D03*
X133350000Y-95250000D03*
X166268400Y-68072000D03*
X124460000Y-110490000D03*
X123596400Y-74269600D03*
X153822400Y-73152000D03*
X147320000Y-100330000D03*
X133350000Y-99060000D03*
X160013478Y-96503951D03*
X147320000Y-85090000D03*
X172720000Y-105410000D03*
X156768800Y-83312000D03*
X160020000Y-99060000D03*
X124460000Y-80721200D03*
X144780000Y-110490000D03*
X158292800Y-81214000D03*
X121920000Y-110490000D03*
X138201401Y-80060800D03*
X123596400Y-71577200D03*
X143992600Y-74752200D03*
X131622800Y-80010000D03*
X136017001Y-80060800D03*
X160020000Y-87630000D03*
X175260000Y-99060000D03*
X166217600Y-72440800D03*
X175260000Y-95250000D03*
X147320000Y-95250000D03*
X160013478Y-91384849D03*
X175260000Y-91440000D03*
X144653000Y-68199000D03*
X175260000Y-76200000D03*
X149860000Y-110490000D03*
X141224000Y-68199000D03*
X132130800Y-73609200D03*
X159664400Y-72491600D03*
X160020000Y-93980000D03*
X150215600Y-76657200D03*
X143002000Y-68199000D03*
X116840000Y-105410000D03*
X120751200Y-89510000D03*
X162763200Y-74218800D03*
X175260000Y-83820000D03*
X131572000Y-83921600D03*
X147472400Y-70866000D03*
X138226800Y-72593200D03*
X166217600Y-70307200D03*
X155092400Y-78892400D03*
X166217600Y-74523600D03*
X150215600Y-78841600D03*
X159969200Y-77520800D03*
X116890800Y-99085400D03*
%TO.N,+5V*%
X137541000Y-76073000D03*
%TO.N,+3.3V*%
X142189200Y-72542400D03*
X137261600Y-74447400D03*
X123291600Y-68986400D03*
X158496000Y-73812400D03*
X123291600Y-76555600D03*
X150520400Y-74549000D03*
X143916400Y-72491600D03*
X162636200Y-68757800D03*
%TO.N,GPCLK0*%
X160426400Y-81176500D03*
X142202800Y-70324800D03*
X153619200Y-81229200D03*
%TO.N,BCK*%
X139750800Y-66962100D03*
%TD*%
D20*
%TO.N,GND*%
X120751200Y-89510000D02*
X120751200Y-90728400D01*
X120751200Y-90728400D02*
X121412000Y-91389200D01*
X120751200Y-89320400D02*
X120751200Y-89510000D01*
%TO.N,+5V*%
X137160000Y-76073000D02*
X126052200Y-64965200D01*
X120751200Y-83311600D02*
X119227600Y-81788000D01*
X121541600Y-60987200D02*
X124081600Y-60987200D01*
X119227600Y-81788000D02*
X119227600Y-91370400D01*
X119227600Y-81788000D02*
X119227600Y-65759201D01*
X120751200Y-84720400D02*
X120751200Y-83311600D01*
X126052200Y-64965200D02*
X120021601Y-64965200D01*
X120673600Y-60987200D02*
X121541600Y-60987200D01*
X119227600Y-91370400D02*
X121920000Y-94062800D01*
X137541000Y-76073000D02*
X137160000Y-76073000D01*
X120021601Y-64965200D02*
X120021601Y-61639199D01*
X120021601Y-61639199D02*
X120673600Y-60987200D01*
X119227600Y-65759201D02*
X120021601Y-64965200D01*
%TO.N,+3.3V*%
X122846400Y-69431600D02*
X123291600Y-68986400D01*
X122072400Y-82041600D02*
X122072400Y-77774800D01*
X120751200Y-87020400D02*
X127051200Y-87020400D01*
D21*
X137261600Y-74447400D02*
X140284200Y-74447400D01*
D20*
X140512800Y-74218800D02*
X142189200Y-72542400D01*
X140512800Y-82042000D02*
X140512800Y-74218800D01*
X122072400Y-77774800D02*
X123291600Y-76555600D01*
D21*
X158496000Y-73812400D02*
X158496000Y-72818542D01*
X158496000Y-72818542D02*
X162556742Y-68757800D01*
D20*
X145542000Y-72491600D02*
X143916400Y-72491600D01*
X127051200Y-87020400D02*
X122072400Y-82041600D01*
X137042400Y-87020400D02*
X137083800Y-87061800D01*
X137083800Y-87061800D02*
X140512800Y-83632800D01*
X140512800Y-83632800D02*
X140512800Y-82042000D01*
X157099000Y-74549000D02*
X157835600Y-73812400D01*
D21*
X140284200Y-74447400D02*
X140512800Y-74218800D01*
D20*
X150520400Y-74549000D02*
X157099000Y-74549000D01*
X157835600Y-73812400D02*
X158496000Y-73812400D01*
X150520400Y-74549000D02*
X147599400Y-74549000D01*
X127051200Y-87020400D02*
X137042400Y-87020400D01*
X142189200Y-72542400D02*
X143865600Y-72542400D01*
X123291600Y-76555600D02*
X122846400Y-76110400D01*
X143865600Y-72542400D02*
X143916400Y-72491600D01*
D21*
X162556742Y-68757800D02*
X162636200Y-68757800D01*
D20*
X122846400Y-76110400D02*
X122846400Y-69431600D01*
X147599400Y-74549000D02*
X145542000Y-72491600D01*
D21*
%TO.N,GPCLK0*%
X154259400Y-80589000D02*
X159838900Y-80589000D01*
X130350200Y-64715800D02*
X129161600Y-63527200D01*
X136593800Y-64715800D02*
X130350200Y-64715800D01*
X142202800Y-70324800D02*
X136593800Y-64715800D01*
X159838900Y-80589000D02*
X160426400Y-81176500D01*
X153619200Y-81229200D02*
X154259400Y-80589000D01*
%TO.N,BCK*%
X139750800Y-66962100D02*
X138125200Y-65336500D01*
X138125200Y-65336500D02*
X138125200Y-62687200D01*
X138125200Y-62687200D02*
X137684601Y-62246601D01*
X137684601Y-62246601D02*
X135501001Y-62246601D01*
X135501001Y-62246601D02*
X134241600Y-60987200D01*
%TD*%
%TA.AperFunction,Conductor*%
%TO.N,GND*%
G36*
X175141618Y-58767200D02*
G01*
X175156451Y-58769510D01*
X175156455Y-58769510D01*
X175165324Y-58770891D01*
X175182523Y-58768642D01*
X175206463Y-58767809D01*
X175464310Y-58783406D01*
X175479414Y-58785240D01*
X175551386Y-58798429D01*
X175760360Y-58836725D01*
X175775126Y-58840364D01*
X176047831Y-58925342D01*
X176062045Y-58930734D01*
X176279823Y-59028747D01*
X176322506Y-59047957D01*
X176335979Y-59055028D01*
X176580413Y-59202795D01*
X176592934Y-59211438D01*
X176817771Y-59387585D01*
X176829160Y-59397675D01*
X177031125Y-59599640D01*
X177041215Y-59611029D01*
X177217362Y-59835866D01*
X177226005Y-59848387D01*
X177373772Y-60092821D01*
X177380842Y-60106292D01*
X177498066Y-60366755D01*
X177503458Y-60380969D01*
X177529777Y-60465431D01*
X177559361Y-60560369D01*
X177560531Y-60631356D01*
X177523136Y-60691706D01*
X177459050Y-60722259D01*
X177388619Y-60713314D01*
X177334205Y-60667712D01*
X177330223Y-60661330D01*
X177263090Y-60546216D01*
X177261287Y-60543124D01*
X177050601Y-60260981D01*
X177048157Y-60258383D01*
X177048152Y-60258377D01*
X176811780Y-60007107D01*
X176811776Y-60007104D01*
X176809330Y-60004503D01*
X176617217Y-59841867D01*
X176543298Y-59779290D01*
X176543294Y-59779287D01*
X176540576Y-59776986D01*
X176470438Y-59730121D01*
X176250770Y-59583344D01*
X176250768Y-59583343D01*
X176247793Y-59581355D01*
X176244609Y-59579715D01*
X175937930Y-59421764D01*
X175937925Y-59421762D01*
X175934747Y-59420125D01*
X175931406Y-59418859D01*
X175931401Y-59418857D01*
X175670400Y-59319973D01*
X175605461Y-59295370D01*
X175601997Y-59294490D01*
X175601993Y-59294489D01*
X175267637Y-59209573D01*
X175267629Y-59209571D01*
X175264170Y-59208693D01*
X175092448Y-59185322D01*
X174918253Y-59161615D01*
X174918246Y-59161614D01*
X174915260Y-59161208D01*
X174800519Y-59156700D01*
X174582402Y-59156700D01*
X174440844Y-59164738D01*
X174323608Y-59171395D01*
X174323601Y-59171396D01*
X174320040Y-59171598D01*
X174181717Y-59195366D01*
X173976518Y-59230625D01*
X173976510Y-59230627D01*
X173973000Y-59231230D01*
X173969575Y-59232228D01*
X173969572Y-59232229D01*
X173755970Y-59294489D01*
X173634941Y-59329766D01*
X173310210Y-59465937D01*
X173156596Y-59551965D01*
X173006098Y-59636247D01*
X173006093Y-59636250D01*
X173002981Y-59637993D01*
X173000085Y-59640078D01*
X173000080Y-59640081D01*
X172873243Y-59731391D01*
X172717205Y-59843723D01*
X172714569Y-59846117D01*
X172714567Y-59846119D01*
X172537333Y-60007107D01*
X172456554Y-60080481D01*
X172224381Y-60345223D01*
X172222349Y-60348152D01*
X172222346Y-60348156D01*
X172185449Y-60401344D01*
X172023671Y-60634547D01*
X172021981Y-60637693D01*
X172021977Y-60637699D01*
X171997921Y-60682470D01*
X171857002Y-60944732D01*
X171726519Y-61271790D01*
X171633899Y-61611517D01*
X171633357Y-61615039D01*
X171592136Y-61882856D01*
X171580332Y-61959545D01*
X171580192Y-61963109D01*
X171566943Y-62300339D01*
X171566508Y-62311400D01*
X171592604Y-62662558D01*
X171658284Y-63008504D01*
X171659342Y-63011913D01*
X171659344Y-63011919D01*
X171681572Y-63083504D01*
X171762704Y-63344792D01*
X171904521Y-63667097D01*
X172081913Y-63971276D01*
X172292599Y-64253419D01*
X172295043Y-64256017D01*
X172295048Y-64256023D01*
X172530784Y-64506617D01*
X172533870Y-64509897D01*
X172638921Y-64598829D01*
X172772715Y-64712094D01*
X172802624Y-64737414D01*
X172805588Y-64739394D01*
X172805590Y-64739396D01*
X173049537Y-64902396D01*
X173095407Y-64933045D01*
X173098589Y-64934684D01*
X173098591Y-64934685D01*
X173405270Y-65092636D01*
X173405275Y-65092638D01*
X173408453Y-65094275D01*
X173411794Y-65095541D01*
X173411799Y-65095543D01*
X173610435Y-65170799D01*
X173737739Y-65219030D01*
X173741203Y-65219910D01*
X173741207Y-65219911D01*
X174075563Y-65304827D01*
X174075571Y-65304829D01*
X174079030Y-65305707D01*
X174226912Y-65325833D01*
X174424947Y-65352785D01*
X174424954Y-65352786D01*
X174427940Y-65353192D01*
X174542681Y-65357700D01*
X174760798Y-65357700D01*
X174908727Y-65349300D01*
X175019592Y-65343005D01*
X175019599Y-65343004D01*
X175023160Y-65342802D01*
X175187683Y-65314532D01*
X175366682Y-65283775D01*
X175366690Y-65283773D01*
X175370200Y-65283170D01*
X175373625Y-65282172D01*
X175373628Y-65282171D01*
X175634016Y-65206274D01*
X175708259Y-65184634D01*
X175855674Y-65122818D01*
X176029692Y-65049846D01*
X176032990Y-65048463D01*
X176236156Y-64934685D01*
X176337102Y-64878153D01*
X176337107Y-64878150D01*
X176340219Y-64876407D01*
X176343115Y-64874322D01*
X176343120Y-64874319D01*
X176493881Y-64765786D01*
X176625995Y-64670677D01*
X176724270Y-64581411D01*
X176884005Y-64436318D01*
X176884006Y-64436317D01*
X176886646Y-64433919D01*
X177061957Y-64234016D01*
X177116468Y-64171858D01*
X177116469Y-64171856D01*
X177118819Y-64169177D01*
X177133532Y-64147969D01*
X177263101Y-63961194D01*
X177319529Y-63879853D01*
X177426109Y-63681499D01*
X177475971Y-63630961D01*
X177545241Y-63615402D01*
X177611927Y-63639764D01*
X177654856Y-63696312D01*
X177663100Y-63741139D01*
X177663100Y-109765956D01*
X177643098Y-109834077D01*
X177589442Y-109880570D01*
X177519168Y-109890674D01*
X177454588Y-109861180D01*
X177428257Y-109829432D01*
X177389356Y-109762728D01*
X177261287Y-109543124D01*
X177050601Y-109260981D01*
X177048157Y-109258383D01*
X177048152Y-109258377D01*
X176811780Y-109007107D01*
X176811776Y-109007104D01*
X176809330Y-109004503D01*
X176633903Y-108855993D01*
X176543298Y-108779290D01*
X176543294Y-108779287D01*
X176540576Y-108776986D01*
X176309430Y-108622539D01*
X176250770Y-108583344D01*
X176250768Y-108583343D01*
X176247793Y-108581355D01*
X176213918Y-108563908D01*
X175937930Y-108421764D01*
X175937925Y-108421762D01*
X175934747Y-108420125D01*
X175931406Y-108418859D01*
X175931401Y-108418857D01*
X175608805Y-108296637D01*
X175608806Y-108296637D01*
X175605461Y-108295370D01*
X175601997Y-108294490D01*
X175601993Y-108294489D01*
X175267637Y-108209573D01*
X175267629Y-108209571D01*
X175264170Y-108208693D01*
X175092448Y-108185322D01*
X174918253Y-108161615D01*
X174918246Y-108161614D01*
X174915260Y-108161208D01*
X174800519Y-108156700D01*
X174582402Y-108156700D01*
X174440844Y-108164738D01*
X174323608Y-108171395D01*
X174323601Y-108171396D01*
X174320040Y-108171598D01*
X174181717Y-108195366D01*
X173976518Y-108230625D01*
X173976510Y-108230627D01*
X173973000Y-108231230D01*
X173969575Y-108232228D01*
X173969572Y-108232229D01*
X173796467Y-108282685D01*
X173634941Y-108329766D01*
X173631639Y-108331151D01*
X173631638Y-108331151D01*
X173313508Y-108464554D01*
X173310210Y-108465937D01*
X173244404Y-108502790D01*
X173006098Y-108636247D01*
X173006093Y-108636250D01*
X173002981Y-108637993D01*
X173000085Y-108640078D01*
X173000080Y-108640081D01*
X172932010Y-108689085D01*
X172717205Y-108843723D01*
X172714569Y-108846117D01*
X172714567Y-108846119D01*
X172513297Y-109028939D01*
X172456554Y-109080481D01*
X172224381Y-109345223D01*
X172222349Y-109348152D01*
X172222346Y-109348156D01*
X172181576Y-109406927D01*
X172023671Y-109634547D01*
X172021981Y-109637692D01*
X172021977Y-109637699D01*
X171919230Y-109828921D01*
X171857002Y-109944732D01*
X171726519Y-110271790D01*
X171633899Y-110611517D01*
X171580332Y-110959545D01*
X171580192Y-110963109D01*
X171566917Y-111301001D01*
X171566508Y-111311400D01*
X171592604Y-111662558D01*
X171658284Y-112008504D01*
X171659342Y-112011913D01*
X171659344Y-112011919D01*
X171679949Y-112078276D01*
X171762704Y-112344792D01*
X171764145Y-112348067D01*
X171901931Y-112661210D01*
X171904521Y-112667097D01*
X172081913Y-112971276D01*
X172292599Y-113253419D01*
X172295043Y-113256017D01*
X172295048Y-113256023D01*
X172531420Y-113507293D01*
X172533870Y-113509897D01*
X172611156Y-113575324D01*
X172726252Y-113672760D01*
X172802624Y-113737414D01*
X172805588Y-113739394D01*
X172805590Y-113739396D01*
X173007517Y-113874319D01*
X173095407Y-113933045D01*
X173098589Y-113934684D01*
X173098591Y-113934685D01*
X173246152Y-114010684D01*
X173297554Y-114059657D01*
X173314320Y-114128646D01*
X173291125Y-114195747D01*
X173235336Y-114239656D01*
X173188460Y-114248700D01*
X167899809Y-114248700D01*
X167831688Y-114228698D01*
X167785195Y-114175042D01*
X167775091Y-114104768D01*
X167804585Y-114040188D01*
X167833974Y-114015267D01*
X167933528Y-113954260D01*
X167938790Y-113946199D01*
X167932783Y-113935993D01*
X166992412Y-112995622D01*
X166978468Y-112988008D01*
X166976635Y-112988139D01*
X166970020Y-112992390D01*
X166027876Y-113934534D01*
X166020484Y-113948071D01*
X166024170Y-113953340D01*
X166125226Y-114015267D01*
X166172857Y-114067915D01*
X166184464Y-114137956D01*
X166156361Y-114203154D01*
X166097471Y-114242808D01*
X166059391Y-114248700D01*
X162819809Y-114248700D01*
X162751688Y-114228698D01*
X162705195Y-114175042D01*
X162695091Y-114104768D01*
X162724585Y-114040188D01*
X162753974Y-114015267D01*
X162853528Y-113954260D01*
X162858790Y-113946199D01*
X162852783Y-113935993D01*
X161912412Y-112995622D01*
X161898468Y-112988008D01*
X161896635Y-112988139D01*
X161890020Y-112992390D01*
X160947876Y-113934534D01*
X160940484Y-113948071D01*
X160944170Y-113953340D01*
X161045226Y-114015267D01*
X161092857Y-114067915D01*
X161104464Y-114137956D01*
X161076361Y-114203154D01*
X161017471Y-114242808D01*
X160979391Y-114248700D01*
X159111409Y-114248700D01*
X159043288Y-114228698D01*
X158996795Y-114175042D01*
X158986691Y-114104768D01*
X159016185Y-114040188D01*
X159045574Y-114015267D01*
X159145128Y-113954260D01*
X159150390Y-113946199D01*
X159144383Y-113935993D01*
X158204012Y-112995622D01*
X158190068Y-112988008D01*
X158188235Y-112988139D01*
X158181620Y-112992390D01*
X157239476Y-113934534D01*
X157232084Y-113948071D01*
X157235770Y-113953340D01*
X157336826Y-114015267D01*
X157384457Y-114067915D01*
X157396064Y-114137956D01*
X157367961Y-114203154D01*
X157309071Y-114242808D01*
X157270991Y-114248700D01*
X154031409Y-114248700D01*
X153963288Y-114228698D01*
X153916795Y-114175042D01*
X153906691Y-114104768D01*
X153936185Y-114040188D01*
X153965574Y-114015267D01*
X154065128Y-113954260D01*
X154070390Y-113946199D01*
X154064383Y-113935993D01*
X153124012Y-112995622D01*
X153110068Y-112988008D01*
X153108235Y-112988139D01*
X153101620Y-112992390D01*
X152159476Y-113934534D01*
X152152084Y-113948071D01*
X152155770Y-113953340D01*
X152256826Y-114015267D01*
X152304457Y-114067915D01*
X152316064Y-114137956D01*
X152287961Y-114203154D01*
X152229071Y-114242808D01*
X152190991Y-114248700D01*
X143619985Y-114248700D01*
X143551864Y-114228698D01*
X143505371Y-114175042D01*
X143495267Y-114104768D01*
X143524174Y-114040870D01*
X143561995Y-113996588D01*
X143567792Y-113988608D01*
X143696927Y-113777879D01*
X143701408Y-113769085D01*
X143795984Y-113540758D01*
X143799033Y-113531373D01*
X143856728Y-113291060D01*
X143858271Y-113281313D01*
X143877662Y-113034930D01*
X143877662Y-113025070D01*
X143858271Y-112778687D01*
X143856728Y-112768940D01*
X143823018Y-112628530D01*
X151473538Y-112628530D01*
X151492929Y-112874913D01*
X151494472Y-112884660D01*
X151552167Y-113124973D01*
X151555216Y-113134358D01*
X151649792Y-113362685D01*
X151654273Y-113371479D01*
X151780540Y-113577528D01*
X151788601Y-113582790D01*
X151798807Y-113576783D01*
X152739178Y-112636412D01*
X152745556Y-112624732D01*
X153475608Y-112624732D01*
X153475739Y-112626565D01*
X153479990Y-112633180D01*
X154422134Y-113575324D01*
X154435671Y-113582716D01*
X154440940Y-113579030D01*
X154568127Y-113371479D01*
X154572608Y-113362685D01*
X154667184Y-113134358D01*
X154670233Y-113124973D01*
X154727928Y-112884660D01*
X154729471Y-112874913D01*
X154748862Y-112628530D01*
X156553538Y-112628530D01*
X156572929Y-112874913D01*
X156574472Y-112884660D01*
X156632167Y-113124973D01*
X156635216Y-113134358D01*
X156729792Y-113362685D01*
X156734273Y-113371479D01*
X156860540Y-113577528D01*
X156868601Y-113582790D01*
X156878807Y-113576783D01*
X157819178Y-112636412D01*
X157825556Y-112624732D01*
X158555608Y-112624732D01*
X158555739Y-112626565D01*
X158559990Y-112633180D01*
X159502134Y-113575324D01*
X159515671Y-113582716D01*
X159520940Y-113579030D01*
X159648127Y-113371479D01*
X159652608Y-113362685D01*
X159747184Y-113134358D01*
X159750233Y-113124973D01*
X159807928Y-112884660D01*
X159809471Y-112874913D01*
X159828862Y-112628530D01*
X160261938Y-112628530D01*
X160281329Y-112874913D01*
X160282872Y-112884660D01*
X160340567Y-113124973D01*
X160343616Y-113134358D01*
X160438192Y-113362685D01*
X160442673Y-113371479D01*
X160568940Y-113577528D01*
X160577001Y-113582790D01*
X160587207Y-113576783D01*
X161527578Y-112636412D01*
X161533956Y-112624732D01*
X162264008Y-112624732D01*
X162264139Y-112626565D01*
X162268390Y-112633180D01*
X163210534Y-113575324D01*
X163224071Y-113582716D01*
X163229340Y-113579030D01*
X163356527Y-113371479D01*
X163361008Y-113362685D01*
X163455584Y-113134358D01*
X163458633Y-113124973D01*
X163516328Y-112884660D01*
X163517871Y-112874913D01*
X163537262Y-112628530D01*
X165341938Y-112628530D01*
X165361329Y-112874913D01*
X165362872Y-112884660D01*
X165420567Y-113124973D01*
X165423616Y-113134358D01*
X165518192Y-113362685D01*
X165522673Y-113371479D01*
X165648940Y-113577528D01*
X165657001Y-113582790D01*
X165667207Y-113576783D01*
X166607578Y-112636412D01*
X166613956Y-112624732D01*
X167344008Y-112624732D01*
X167344139Y-112626565D01*
X167348390Y-112633180D01*
X168290534Y-113575324D01*
X168304071Y-113582716D01*
X168309340Y-113579030D01*
X168436527Y-113371479D01*
X168441008Y-113362685D01*
X168535584Y-113134358D01*
X168538633Y-113124973D01*
X168596328Y-112884660D01*
X168597871Y-112874913D01*
X168617262Y-112628530D01*
X168617262Y-112618670D01*
X168597871Y-112372287D01*
X168596328Y-112362540D01*
X168538633Y-112122227D01*
X168535584Y-112112842D01*
X168441008Y-111884515D01*
X168436527Y-111875721D01*
X168310260Y-111669672D01*
X168302199Y-111664410D01*
X168291993Y-111670417D01*
X167351622Y-112610788D01*
X167344008Y-112624732D01*
X166613956Y-112624732D01*
X166615192Y-112622468D01*
X166615061Y-112620635D01*
X166610810Y-112614020D01*
X165668666Y-111671876D01*
X165655129Y-111664484D01*
X165649860Y-111668170D01*
X165522673Y-111875721D01*
X165518192Y-111884515D01*
X165423616Y-112112842D01*
X165420567Y-112122227D01*
X165362872Y-112362540D01*
X165361329Y-112372287D01*
X165341938Y-112618670D01*
X165341938Y-112628530D01*
X163537262Y-112628530D01*
X163537262Y-112618670D01*
X163517871Y-112372287D01*
X163516328Y-112362540D01*
X163458633Y-112122227D01*
X163455584Y-112112842D01*
X163361008Y-111884515D01*
X163356527Y-111875721D01*
X163230260Y-111669672D01*
X163222199Y-111664410D01*
X163211993Y-111670417D01*
X162271622Y-112610788D01*
X162264008Y-112624732D01*
X161533956Y-112624732D01*
X161535192Y-112622468D01*
X161535061Y-112620635D01*
X161530810Y-112614020D01*
X160588666Y-111671876D01*
X160575129Y-111664484D01*
X160569860Y-111668170D01*
X160442673Y-111875721D01*
X160438192Y-111884515D01*
X160343616Y-112112842D01*
X160340567Y-112122227D01*
X160282872Y-112362540D01*
X160281329Y-112372287D01*
X160261938Y-112618670D01*
X160261938Y-112628530D01*
X159828862Y-112628530D01*
X159828862Y-112618670D01*
X159809471Y-112372287D01*
X159807928Y-112362540D01*
X159750233Y-112122227D01*
X159747184Y-112112842D01*
X159652608Y-111884515D01*
X159648127Y-111875721D01*
X159521860Y-111669672D01*
X159513799Y-111664410D01*
X159503593Y-111670417D01*
X158563222Y-112610788D01*
X158555608Y-112624732D01*
X157825556Y-112624732D01*
X157826792Y-112622468D01*
X157826661Y-112620635D01*
X157822410Y-112614020D01*
X156880266Y-111671876D01*
X156866729Y-111664484D01*
X156861460Y-111668170D01*
X156734273Y-111875721D01*
X156729792Y-111884515D01*
X156635216Y-112112842D01*
X156632167Y-112122227D01*
X156574472Y-112362540D01*
X156572929Y-112372287D01*
X156553538Y-112618670D01*
X156553538Y-112628530D01*
X154748862Y-112628530D01*
X154748862Y-112618670D01*
X154729471Y-112372287D01*
X154727928Y-112362540D01*
X154670233Y-112122227D01*
X154667184Y-112112842D01*
X154572608Y-111884515D01*
X154568127Y-111875721D01*
X154441860Y-111669672D01*
X154433799Y-111664410D01*
X154423593Y-111670417D01*
X153483222Y-112610788D01*
X153475608Y-112624732D01*
X152745556Y-112624732D01*
X152746792Y-112622468D01*
X152746661Y-112620635D01*
X152742410Y-112614020D01*
X151800266Y-111671876D01*
X151786729Y-111664484D01*
X151781460Y-111668170D01*
X151654273Y-111875721D01*
X151649792Y-111884515D01*
X151555216Y-112112842D01*
X151552167Y-112122227D01*
X151494472Y-112362540D01*
X151492929Y-112372287D01*
X151473538Y-112618670D01*
X151473538Y-112628530D01*
X143823018Y-112628530D01*
X143799033Y-112528627D01*
X143795984Y-112519242D01*
X143701408Y-112290915D01*
X143696927Y-112282121D01*
X143570660Y-112076072D01*
X143562599Y-112070810D01*
X143552393Y-112076817D01*
X142329095Y-113300115D01*
X142266783Y-113334141D01*
X142195968Y-113329076D01*
X142150905Y-113300115D01*
X140929066Y-112078276D01*
X140915529Y-112070884D01*
X140910260Y-112074570D01*
X140783073Y-112282121D01*
X140778592Y-112290915D01*
X140684016Y-112519242D01*
X140680967Y-112528627D01*
X140623272Y-112768940D01*
X140621729Y-112778687D01*
X140602338Y-113025070D01*
X140602338Y-113034930D01*
X140621729Y-113281313D01*
X140623272Y-113291060D01*
X140680967Y-113531373D01*
X140684016Y-113540758D01*
X140778592Y-113769085D01*
X140783073Y-113777879D01*
X140912208Y-113988608D01*
X140918005Y-113996588D01*
X140955826Y-114040870D01*
X140984857Y-114105659D01*
X140974252Y-114175859D01*
X140927377Y-114229182D01*
X140860015Y-114248700D01*
X138539985Y-114248700D01*
X138471864Y-114228698D01*
X138425371Y-114175042D01*
X138415267Y-114104768D01*
X138444174Y-114040870D01*
X138481995Y-113996588D01*
X138487792Y-113988608D01*
X138616927Y-113777879D01*
X138621408Y-113769085D01*
X138715984Y-113540758D01*
X138719033Y-113531373D01*
X138776728Y-113291060D01*
X138778271Y-113281313D01*
X138797662Y-113034930D01*
X138797662Y-113025070D01*
X138778271Y-112778687D01*
X138776728Y-112768940D01*
X138719033Y-112528627D01*
X138715984Y-112519242D01*
X138621408Y-112290915D01*
X138616927Y-112282121D01*
X138490660Y-112076072D01*
X138482599Y-112070810D01*
X138472393Y-112076817D01*
X137249095Y-113300115D01*
X137186783Y-113334141D01*
X137115968Y-113329076D01*
X137070905Y-113300115D01*
X135849066Y-112078276D01*
X135835529Y-112070884D01*
X135830260Y-112074570D01*
X135703073Y-112282121D01*
X135698592Y-112290915D01*
X135604016Y-112519242D01*
X135600967Y-112528627D01*
X135543272Y-112768940D01*
X135541729Y-112778687D01*
X135522338Y-113025070D01*
X135522338Y-113034930D01*
X135541729Y-113281313D01*
X135543272Y-113291060D01*
X135600967Y-113531373D01*
X135604016Y-113540758D01*
X135698592Y-113769085D01*
X135703073Y-113777879D01*
X135832208Y-113988608D01*
X135838005Y-113996588D01*
X135875826Y-114040870D01*
X135904857Y-114105659D01*
X135894252Y-114175859D01*
X135847377Y-114229182D01*
X135780015Y-114248700D01*
X134018785Y-114248700D01*
X133950664Y-114228698D01*
X133904171Y-114175042D01*
X133894067Y-114104768D01*
X133922974Y-114040870D01*
X133960795Y-113996588D01*
X133966592Y-113988608D01*
X134095727Y-113777879D01*
X134100208Y-113769085D01*
X134194784Y-113540758D01*
X134197833Y-113531373D01*
X134255528Y-113291060D01*
X134257071Y-113281313D01*
X134276462Y-113034930D01*
X134276462Y-113025070D01*
X134257071Y-112778687D01*
X134255528Y-112768940D01*
X134197833Y-112528627D01*
X134194784Y-112519242D01*
X134100208Y-112290915D01*
X134095727Y-112282121D01*
X133969460Y-112076072D01*
X133961399Y-112070810D01*
X133951193Y-112076817D01*
X132727895Y-113300115D01*
X132665583Y-113334141D01*
X132594768Y-113329076D01*
X132549705Y-113300115D01*
X131327866Y-112078276D01*
X131314329Y-112070884D01*
X131309060Y-112074570D01*
X131181873Y-112282121D01*
X131177392Y-112290915D01*
X131082816Y-112519242D01*
X131079767Y-112528627D01*
X131022072Y-112768940D01*
X131020529Y-112778687D01*
X131001138Y-113025070D01*
X131001138Y-113034930D01*
X131020529Y-113281313D01*
X131022072Y-113291060D01*
X131079767Y-113531373D01*
X131082816Y-113540758D01*
X131177392Y-113769085D01*
X131181873Y-113777879D01*
X131311008Y-113988608D01*
X131316805Y-113996588D01*
X131354626Y-114040870D01*
X131383657Y-114105659D01*
X131373052Y-114175859D01*
X131326177Y-114229182D01*
X131258815Y-114248700D01*
X128938785Y-114248700D01*
X128870664Y-114228698D01*
X128824171Y-114175042D01*
X128814067Y-114104768D01*
X128842974Y-114040870D01*
X128880795Y-113996588D01*
X128886592Y-113988608D01*
X129015727Y-113777879D01*
X129020208Y-113769085D01*
X129114784Y-113540758D01*
X129117833Y-113531373D01*
X129175528Y-113291060D01*
X129177071Y-113281313D01*
X129196462Y-113034930D01*
X129196462Y-113025070D01*
X129177071Y-112778687D01*
X129175528Y-112768940D01*
X129117833Y-112528627D01*
X129114784Y-112519242D01*
X129020208Y-112290915D01*
X129015727Y-112282121D01*
X128889460Y-112076072D01*
X128881399Y-112070810D01*
X128871193Y-112076817D01*
X127647895Y-113300115D01*
X127585583Y-113334141D01*
X127514768Y-113329076D01*
X127469705Y-113300115D01*
X126247866Y-112078276D01*
X126234329Y-112070884D01*
X126229060Y-112074570D01*
X126101873Y-112282121D01*
X126097392Y-112290915D01*
X126002816Y-112519242D01*
X125999767Y-112528627D01*
X125942072Y-112768940D01*
X125940529Y-112778687D01*
X125921138Y-113025070D01*
X125921138Y-113034930D01*
X125940529Y-113281313D01*
X125942072Y-113291060D01*
X125999767Y-113531373D01*
X126002816Y-113540758D01*
X126097392Y-113769085D01*
X126101873Y-113777879D01*
X126231008Y-113988608D01*
X126236805Y-113996588D01*
X126274626Y-114040870D01*
X126303657Y-114105659D01*
X126293052Y-114175859D01*
X126246177Y-114229182D01*
X126178815Y-114248700D01*
X118158300Y-114248700D01*
X118090179Y-114228698D01*
X118043686Y-114175042D01*
X118033582Y-114104768D01*
X118063076Y-114040188D01*
X118096734Y-114012765D01*
X118337102Y-113878153D01*
X118337107Y-113878150D01*
X118340219Y-113876407D01*
X118343115Y-113874322D01*
X118343120Y-113874319D01*
X118489839Y-113768696D01*
X118625995Y-113670677D01*
X118728545Y-113577528D01*
X118884005Y-113436318D01*
X118884006Y-113436317D01*
X118886646Y-113433919D01*
X119118819Y-113169177D01*
X119319529Y-112879853D01*
X119322184Y-112874913D01*
X119435609Y-112663818D01*
X119486198Y-112569668D01*
X119616681Y-112242610D01*
X119709301Y-111902883D01*
X119739389Y-111707401D01*
X126599610Y-111707401D01*
X126605617Y-111717607D01*
X127545988Y-112657978D01*
X127559932Y-112665592D01*
X127561765Y-112665461D01*
X127568380Y-112661210D01*
X128510524Y-111719066D01*
X128517916Y-111705529D01*
X128514230Y-111700260D01*
X128306679Y-111573073D01*
X128297885Y-111568592D01*
X128069558Y-111474016D01*
X128060173Y-111470967D01*
X127819860Y-111413272D01*
X127810113Y-111411729D01*
X127563730Y-111392338D01*
X127553870Y-111392338D01*
X127307487Y-111411729D01*
X127297740Y-111413272D01*
X127057427Y-111470967D01*
X127048042Y-111474016D01*
X126819715Y-111568592D01*
X126810921Y-111573073D01*
X126604872Y-111699340D01*
X126599610Y-111707401D01*
X119739389Y-111707401D01*
X119740488Y-111700260D01*
X119762326Y-111558378D01*
X119762326Y-111558374D01*
X119762868Y-111554855D01*
X119771677Y-111330646D01*
X119776552Y-111206570D01*
X119776552Y-111206565D01*
X119776692Y-111203000D01*
X119750596Y-110851842D01*
X119684916Y-110505896D01*
X119679981Y-110490000D01*
X128560558Y-110490000D01*
X128579496Y-110730634D01*
X128580650Y-110735441D01*
X128580651Y-110735447D01*
X128590717Y-110777373D01*
X128635845Y-110965343D01*
X128637738Y-110969914D01*
X128637739Y-110969916D01*
X128719600Y-111167545D01*
X128728216Y-111188347D01*
X128854336Y-111394156D01*
X129011099Y-111577701D01*
X129194644Y-111734464D01*
X129400453Y-111860584D01*
X129405023Y-111862477D01*
X129405027Y-111862479D01*
X129618884Y-111951061D01*
X129623457Y-111952955D01*
X129705839Y-111972733D01*
X129853353Y-112008149D01*
X129853359Y-112008150D01*
X129858166Y-112009304D01*
X130098800Y-112028242D01*
X130339434Y-112009304D01*
X130344241Y-112008150D01*
X130344247Y-112008149D01*
X130491761Y-111972733D01*
X130574143Y-111952955D01*
X130578716Y-111951061D01*
X130792573Y-111862479D01*
X130792577Y-111862477D01*
X130797147Y-111860584D01*
X131002956Y-111734464D01*
X131034643Y-111707401D01*
X131679610Y-111707401D01*
X131685617Y-111717607D01*
X132625988Y-112657978D01*
X132639932Y-112665592D01*
X132641765Y-112665461D01*
X132648380Y-112661210D01*
X133590524Y-111719066D01*
X133596894Y-111707401D01*
X136200810Y-111707401D01*
X136206817Y-111717607D01*
X137147188Y-112657978D01*
X137161132Y-112665592D01*
X137162965Y-112665461D01*
X137169580Y-112661210D01*
X138111724Y-111719066D01*
X138119116Y-111705529D01*
X138115430Y-111700260D01*
X137907879Y-111573073D01*
X137899085Y-111568592D01*
X137670758Y-111474016D01*
X137661373Y-111470967D01*
X137421060Y-111413272D01*
X137411313Y-111411729D01*
X137164930Y-111392338D01*
X137155070Y-111392338D01*
X136908687Y-111411729D01*
X136898940Y-111413272D01*
X136658627Y-111470967D01*
X136649242Y-111474016D01*
X136420915Y-111568592D01*
X136412121Y-111573073D01*
X136206072Y-111699340D01*
X136200810Y-111707401D01*
X133596894Y-111707401D01*
X133597916Y-111705529D01*
X133594230Y-111700260D01*
X133386679Y-111573073D01*
X133377885Y-111568592D01*
X133149558Y-111474016D01*
X133140173Y-111470967D01*
X132899860Y-111413272D01*
X132890113Y-111411729D01*
X132643730Y-111392338D01*
X132633870Y-111392338D01*
X132387487Y-111411729D01*
X132377740Y-111413272D01*
X132137427Y-111470967D01*
X132128042Y-111474016D01*
X131899715Y-111568592D01*
X131890921Y-111573073D01*
X131684872Y-111699340D01*
X131679610Y-111707401D01*
X131034643Y-111707401D01*
X131186501Y-111577701D01*
X131343264Y-111394156D01*
X131469384Y-111188347D01*
X131478001Y-111167545D01*
X131559861Y-110969916D01*
X131559862Y-110969914D01*
X131561755Y-110965343D01*
X131606883Y-110777373D01*
X131616949Y-110735447D01*
X131616950Y-110735441D01*
X131618104Y-110730634D01*
X131637042Y-110490000D01*
X138161758Y-110490000D01*
X138180696Y-110730634D01*
X138181850Y-110735441D01*
X138181851Y-110735447D01*
X138191917Y-110777373D01*
X138237045Y-110965343D01*
X138238938Y-110969914D01*
X138238939Y-110969916D01*
X138320800Y-111167545D01*
X138329416Y-111188347D01*
X138455536Y-111394156D01*
X138612299Y-111577701D01*
X138795844Y-111734464D01*
X139001653Y-111860584D01*
X139006223Y-111862477D01*
X139006227Y-111862479D01*
X139220084Y-111951061D01*
X139224657Y-111952955D01*
X139307039Y-111972733D01*
X139454553Y-112008149D01*
X139454559Y-112008150D01*
X139459366Y-112009304D01*
X139700000Y-112028242D01*
X139940634Y-112009304D01*
X139945441Y-112008150D01*
X139945447Y-112008149D01*
X140092961Y-111972733D01*
X140175343Y-111952955D01*
X140179916Y-111951061D01*
X140393773Y-111862479D01*
X140393777Y-111862477D01*
X140398347Y-111860584D01*
X140604156Y-111734464D01*
X140635843Y-111707401D01*
X141280810Y-111707401D01*
X141286817Y-111717607D01*
X142227188Y-112657978D01*
X142241132Y-112665592D01*
X142242965Y-112665461D01*
X142249580Y-112661210D01*
X143191724Y-111719066D01*
X143199116Y-111705529D01*
X143195430Y-111700260D01*
X142987879Y-111573073D01*
X142979085Y-111568592D01*
X142750758Y-111474016D01*
X142741373Y-111470967D01*
X142501060Y-111413272D01*
X142491313Y-111411729D01*
X142244930Y-111392338D01*
X142235070Y-111392338D01*
X141988687Y-111411729D01*
X141978940Y-111413272D01*
X141738627Y-111470967D01*
X141729242Y-111474016D01*
X141500915Y-111568592D01*
X141492121Y-111573073D01*
X141286072Y-111699340D01*
X141280810Y-111707401D01*
X140635843Y-111707401D01*
X140787701Y-111577701D01*
X140944464Y-111394156D01*
X141001549Y-111301001D01*
X152152010Y-111301001D01*
X152158017Y-111311207D01*
X153098388Y-112251578D01*
X153112332Y-112259192D01*
X153114165Y-112259061D01*
X153120780Y-112254810D01*
X154062924Y-111312666D01*
X154070316Y-111299129D01*
X154066630Y-111293860D01*
X153859079Y-111166673D01*
X153850285Y-111162192D01*
X153621958Y-111067616D01*
X153612573Y-111064567D01*
X153372260Y-111006872D01*
X153362513Y-111005329D01*
X153116130Y-110985938D01*
X153106270Y-110985938D01*
X152859887Y-111005329D01*
X152850140Y-111006872D01*
X152609827Y-111064567D01*
X152600442Y-111067616D01*
X152372115Y-111162192D01*
X152363321Y-111166673D01*
X152157272Y-111292940D01*
X152152010Y-111301001D01*
X141001549Y-111301001D01*
X141070584Y-111188347D01*
X141079201Y-111167545D01*
X141161061Y-110969916D01*
X141161062Y-110969914D01*
X141162955Y-110965343D01*
X141208083Y-110777373D01*
X141218149Y-110735447D01*
X141218150Y-110735441D01*
X141219304Y-110730634D01*
X141238242Y-110490000D01*
X141219304Y-110249366D01*
X141218150Y-110244559D01*
X141218149Y-110244553D01*
X141179507Y-110083600D01*
X154112958Y-110083600D01*
X154131896Y-110324234D01*
X154133050Y-110329041D01*
X154133051Y-110329047D01*
X154158642Y-110435637D01*
X154188245Y-110558943D01*
X154190138Y-110563514D01*
X154190139Y-110563516D01*
X154259362Y-110730634D01*
X154280616Y-110781947D01*
X154406736Y-110987756D01*
X154563499Y-111171301D01*
X154747044Y-111328064D01*
X154952853Y-111454184D01*
X154957423Y-111456077D01*
X154957427Y-111456079D01*
X155171284Y-111544661D01*
X155175857Y-111546555D01*
X155258239Y-111566333D01*
X155405753Y-111601749D01*
X155405759Y-111601750D01*
X155410566Y-111602904D01*
X155651200Y-111621842D01*
X155891834Y-111602904D01*
X155896641Y-111601750D01*
X155896647Y-111601749D01*
X156044161Y-111566333D01*
X156126543Y-111546555D01*
X156131116Y-111544661D01*
X156344973Y-111456079D01*
X156344977Y-111456077D01*
X156349547Y-111454184D01*
X156555356Y-111328064D01*
X156587043Y-111301001D01*
X157232010Y-111301001D01*
X157238017Y-111311207D01*
X158178388Y-112251578D01*
X158192332Y-112259192D01*
X158194165Y-112259061D01*
X158200780Y-112254810D01*
X159142924Y-111312666D01*
X159149294Y-111301001D01*
X160940410Y-111301001D01*
X160946417Y-111311207D01*
X161886788Y-112251578D01*
X161900732Y-112259192D01*
X161902565Y-112259061D01*
X161909180Y-112254810D01*
X162851324Y-111312666D01*
X162858716Y-111299129D01*
X162855030Y-111293860D01*
X162647479Y-111166673D01*
X162638685Y-111162192D01*
X162410358Y-111067616D01*
X162400973Y-111064567D01*
X162160660Y-111006872D01*
X162150913Y-111005329D01*
X161904530Y-110985938D01*
X161894670Y-110985938D01*
X161648287Y-111005329D01*
X161638540Y-111006872D01*
X161398227Y-111064567D01*
X161388842Y-111067616D01*
X161160515Y-111162192D01*
X161151721Y-111166673D01*
X160945672Y-111292940D01*
X160940410Y-111301001D01*
X159149294Y-111301001D01*
X159150316Y-111299129D01*
X159146630Y-111293860D01*
X158939079Y-111166673D01*
X158930285Y-111162192D01*
X158701958Y-111067616D01*
X158692573Y-111064567D01*
X158452260Y-111006872D01*
X158442513Y-111005329D01*
X158196130Y-110985938D01*
X158186270Y-110985938D01*
X157939887Y-111005329D01*
X157930140Y-111006872D01*
X157689827Y-111064567D01*
X157680442Y-111067616D01*
X157452115Y-111162192D01*
X157443321Y-111166673D01*
X157237272Y-111292940D01*
X157232010Y-111301001D01*
X156587043Y-111301001D01*
X156738901Y-111171301D01*
X156895664Y-110987756D01*
X157021784Y-110781947D01*
X157043039Y-110730634D01*
X157112261Y-110563516D01*
X157112262Y-110563514D01*
X157114155Y-110558943D01*
X157143758Y-110435637D01*
X157169349Y-110329047D01*
X157169350Y-110329041D01*
X157170504Y-110324234D01*
X157189442Y-110083600D01*
X162901358Y-110083600D01*
X162920296Y-110324234D01*
X162921450Y-110329041D01*
X162921451Y-110329047D01*
X162947042Y-110435637D01*
X162976645Y-110558943D01*
X162978538Y-110563514D01*
X162978539Y-110563516D01*
X163047762Y-110730634D01*
X163069016Y-110781947D01*
X163195136Y-110987756D01*
X163351899Y-111171301D01*
X163535444Y-111328064D01*
X163741253Y-111454184D01*
X163745823Y-111456077D01*
X163745827Y-111456079D01*
X163959684Y-111544661D01*
X163964257Y-111546555D01*
X164046639Y-111566333D01*
X164194153Y-111601749D01*
X164194159Y-111601750D01*
X164198966Y-111602904D01*
X164439600Y-111621842D01*
X164680234Y-111602904D01*
X164685041Y-111601750D01*
X164685047Y-111601749D01*
X164832561Y-111566333D01*
X164914943Y-111546555D01*
X164919516Y-111544661D01*
X165133373Y-111456079D01*
X165133377Y-111456077D01*
X165137947Y-111454184D01*
X165343756Y-111328064D01*
X165375443Y-111301001D01*
X166020410Y-111301001D01*
X166026417Y-111311207D01*
X166966788Y-112251578D01*
X166980732Y-112259192D01*
X166982565Y-112259061D01*
X166989180Y-112254810D01*
X167931324Y-111312666D01*
X167938716Y-111299129D01*
X167935030Y-111293860D01*
X167727479Y-111166673D01*
X167718685Y-111162192D01*
X167490358Y-111067616D01*
X167480973Y-111064567D01*
X167240660Y-111006872D01*
X167230913Y-111005329D01*
X166984530Y-110985938D01*
X166974670Y-110985938D01*
X166728287Y-111005329D01*
X166718540Y-111006872D01*
X166478227Y-111064567D01*
X166468842Y-111067616D01*
X166240515Y-111162192D01*
X166231721Y-111166673D01*
X166025672Y-111292940D01*
X166020410Y-111301001D01*
X165375443Y-111301001D01*
X165527301Y-111171301D01*
X165684064Y-110987756D01*
X165810184Y-110781947D01*
X165831439Y-110730634D01*
X165900661Y-110563516D01*
X165900662Y-110563514D01*
X165902555Y-110558943D01*
X165932158Y-110435637D01*
X165957749Y-110329047D01*
X165957750Y-110329041D01*
X165958904Y-110324234D01*
X165977842Y-110083600D01*
X165958904Y-109842966D01*
X165957750Y-109838159D01*
X165957749Y-109838153D01*
X165908867Y-109634547D01*
X165902555Y-109608257D01*
X165895017Y-109590058D01*
X165812079Y-109389827D01*
X165812077Y-109389823D01*
X165810184Y-109385253D01*
X165684064Y-109179444D01*
X165527301Y-108995899D01*
X165377634Y-108868071D01*
X166020484Y-108868071D01*
X166024170Y-108873340D01*
X166231721Y-109000527D01*
X166240515Y-109005008D01*
X166468842Y-109099584D01*
X166478227Y-109102633D01*
X166718540Y-109160328D01*
X166728287Y-109161871D01*
X166974670Y-109181262D01*
X166984530Y-109181262D01*
X167230913Y-109161871D01*
X167240660Y-109160328D01*
X167480973Y-109102633D01*
X167490358Y-109099584D01*
X167718685Y-109005008D01*
X167727479Y-109000527D01*
X167933528Y-108874260D01*
X167938790Y-108866199D01*
X167932783Y-108855993D01*
X166992412Y-107915622D01*
X166978468Y-107908008D01*
X166976635Y-107908139D01*
X166970020Y-107912390D01*
X166027876Y-108854534D01*
X166020484Y-108868071D01*
X165377634Y-108868071D01*
X165343756Y-108839136D01*
X165137947Y-108713016D01*
X165133377Y-108711123D01*
X165133373Y-108711121D01*
X164919516Y-108622539D01*
X164919514Y-108622538D01*
X164914943Y-108620645D01*
X164832561Y-108600867D01*
X164685047Y-108565451D01*
X164685041Y-108565450D01*
X164680234Y-108564296D01*
X164439600Y-108545358D01*
X164198966Y-108564296D01*
X164194159Y-108565450D01*
X164194153Y-108565451D01*
X164046639Y-108600867D01*
X163964257Y-108620645D01*
X163959686Y-108622538D01*
X163959684Y-108622539D01*
X163745827Y-108711121D01*
X163745823Y-108711123D01*
X163741253Y-108713016D01*
X163535444Y-108839136D01*
X163351899Y-108995899D01*
X163195136Y-109179444D01*
X163069016Y-109385253D01*
X163067123Y-109389823D01*
X163067121Y-109389827D01*
X162984183Y-109590058D01*
X162976645Y-109608257D01*
X162970333Y-109634547D01*
X162921451Y-109838153D01*
X162921450Y-109838159D01*
X162920296Y-109842966D01*
X162901358Y-110083600D01*
X157189442Y-110083600D01*
X157170504Y-109842966D01*
X157169350Y-109838159D01*
X157169349Y-109838153D01*
X157120467Y-109634547D01*
X157114155Y-109608257D01*
X157106617Y-109590058D01*
X157023679Y-109389827D01*
X157023677Y-109389823D01*
X157021784Y-109385253D01*
X156895664Y-109179444D01*
X156738901Y-108995899D01*
X156589234Y-108868071D01*
X157232084Y-108868071D01*
X157235770Y-108873340D01*
X157443321Y-109000527D01*
X157452115Y-109005008D01*
X157680442Y-109099584D01*
X157689827Y-109102633D01*
X157930140Y-109160328D01*
X157939887Y-109161871D01*
X158186270Y-109181262D01*
X158196130Y-109181262D01*
X158442513Y-109161871D01*
X158452260Y-109160328D01*
X158692573Y-109102633D01*
X158701958Y-109099584D01*
X158930285Y-109005008D01*
X158939079Y-109000527D01*
X159145128Y-108874260D01*
X159149168Y-108868071D01*
X160940484Y-108868071D01*
X160944170Y-108873340D01*
X161151721Y-109000527D01*
X161160515Y-109005008D01*
X161388842Y-109099584D01*
X161398227Y-109102633D01*
X161638540Y-109160328D01*
X161648287Y-109161871D01*
X161894670Y-109181262D01*
X161904530Y-109181262D01*
X162150913Y-109161871D01*
X162160660Y-109160328D01*
X162400973Y-109102633D01*
X162410358Y-109099584D01*
X162638685Y-109005008D01*
X162647479Y-109000527D01*
X162853528Y-108874260D01*
X162858790Y-108866199D01*
X162852783Y-108855993D01*
X161912412Y-107915622D01*
X161898468Y-107908008D01*
X161896635Y-107908139D01*
X161890020Y-107912390D01*
X160947876Y-108854534D01*
X160940484Y-108868071D01*
X159149168Y-108868071D01*
X159150390Y-108866199D01*
X159144383Y-108855993D01*
X158204012Y-107915622D01*
X158190068Y-107908008D01*
X158188235Y-107908139D01*
X158181620Y-107912390D01*
X157239476Y-108854534D01*
X157232084Y-108868071D01*
X156589234Y-108868071D01*
X156555356Y-108839136D01*
X156349547Y-108713016D01*
X156344977Y-108711123D01*
X156344973Y-108711121D01*
X156131116Y-108622539D01*
X156131114Y-108622538D01*
X156126543Y-108620645D01*
X156044161Y-108600867D01*
X155896647Y-108565451D01*
X155896641Y-108565450D01*
X155891834Y-108564296D01*
X155651200Y-108545358D01*
X155410566Y-108564296D01*
X155405759Y-108565450D01*
X155405753Y-108565451D01*
X155258239Y-108600867D01*
X155175857Y-108620645D01*
X155171286Y-108622538D01*
X155171284Y-108622539D01*
X154957427Y-108711121D01*
X154957423Y-108711123D01*
X154952853Y-108713016D01*
X154747044Y-108839136D01*
X154563499Y-108995899D01*
X154406736Y-109179444D01*
X154280616Y-109385253D01*
X154278723Y-109389823D01*
X154278721Y-109389827D01*
X154195783Y-109590058D01*
X154188245Y-109608257D01*
X154181933Y-109634547D01*
X154133051Y-109838153D01*
X154133050Y-109838159D01*
X154131896Y-109842966D01*
X154112958Y-110083600D01*
X141179507Y-110083600D01*
X141164110Y-110019469D01*
X141162955Y-110014657D01*
X141094993Y-109850582D01*
X141072479Y-109796227D01*
X141072477Y-109796223D01*
X141070584Y-109791653D01*
X140944464Y-109585844D01*
X140787701Y-109402299D01*
X140638034Y-109274471D01*
X141280884Y-109274471D01*
X141284570Y-109279740D01*
X141492121Y-109406927D01*
X141500915Y-109411408D01*
X141729242Y-109505984D01*
X141738627Y-109509033D01*
X141978940Y-109566728D01*
X141988687Y-109568271D01*
X142235070Y-109587662D01*
X142244930Y-109587662D01*
X142491313Y-109568271D01*
X142501060Y-109566728D01*
X142741373Y-109509033D01*
X142750758Y-109505984D01*
X142979085Y-109411408D01*
X142987879Y-109406927D01*
X143193928Y-109280660D01*
X143199190Y-109272599D01*
X143193183Y-109262393D01*
X142252812Y-108322022D01*
X142238868Y-108314408D01*
X142237035Y-108314539D01*
X142230420Y-108318790D01*
X141288276Y-109260934D01*
X141280884Y-109274471D01*
X140638034Y-109274471D01*
X140604156Y-109245536D01*
X140398347Y-109119416D01*
X140393777Y-109117523D01*
X140393773Y-109117521D01*
X140179916Y-109028939D01*
X140179914Y-109028938D01*
X140175343Y-109027045D01*
X140083553Y-109005008D01*
X139945447Y-108971851D01*
X139945441Y-108971850D01*
X139940634Y-108970696D01*
X139700000Y-108951758D01*
X139459366Y-108970696D01*
X139454559Y-108971850D01*
X139454553Y-108971851D01*
X139316447Y-109005008D01*
X139224657Y-109027045D01*
X139220086Y-109028938D01*
X139220084Y-109028939D01*
X139006227Y-109117521D01*
X139006223Y-109117523D01*
X139001653Y-109119416D01*
X138795844Y-109245536D01*
X138612299Y-109402299D01*
X138455536Y-109585844D01*
X138329416Y-109791653D01*
X138327523Y-109796223D01*
X138327521Y-109796227D01*
X138305007Y-109850582D01*
X138237045Y-110014657D01*
X138235890Y-110019469D01*
X138181851Y-110244553D01*
X138181850Y-110244559D01*
X138180696Y-110249366D01*
X138161758Y-110490000D01*
X131637042Y-110490000D01*
X131618104Y-110249366D01*
X131616950Y-110244559D01*
X131616949Y-110244553D01*
X131562910Y-110019469D01*
X131561755Y-110014657D01*
X131493793Y-109850582D01*
X131471279Y-109796227D01*
X131471277Y-109796223D01*
X131469384Y-109791653D01*
X131343264Y-109585844D01*
X131186501Y-109402299D01*
X131036834Y-109274471D01*
X131679684Y-109274471D01*
X131683370Y-109279740D01*
X131890921Y-109406927D01*
X131899715Y-109411408D01*
X132128042Y-109505984D01*
X132137427Y-109509033D01*
X132377740Y-109566728D01*
X132387487Y-109568271D01*
X132633870Y-109587662D01*
X132643730Y-109587662D01*
X132890113Y-109568271D01*
X132899860Y-109566728D01*
X133140173Y-109509033D01*
X133149558Y-109505984D01*
X133377885Y-109411408D01*
X133386679Y-109406927D01*
X133592728Y-109280660D01*
X133596768Y-109274471D01*
X136200884Y-109274471D01*
X136204570Y-109279740D01*
X136412121Y-109406927D01*
X136420915Y-109411408D01*
X136649242Y-109505984D01*
X136658627Y-109509033D01*
X136898940Y-109566728D01*
X136908687Y-109568271D01*
X137155070Y-109587662D01*
X137164930Y-109587662D01*
X137411313Y-109568271D01*
X137421060Y-109566728D01*
X137661373Y-109509033D01*
X137670758Y-109505984D01*
X137899085Y-109411408D01*
X137907879Y-109406927D01*
X138113928Y-109280660D01*
X138119190Y-109272599D01*
X138113183Y-109262393D01*
X137172812Y-108322022D01*
X137158868Y-108314408D01*
X137157035Y-108314539D01*
X137150420Y-108318790D01*
X136208276Y-109260934D01*
X136200884Y-109274471D01*
X133596768Y-109274471D01*
X133597990Y-109272599D01*
X133591983Y-109262393D01*
X132651612Y-108322022D01*
X132637668Y-108314408D01*
X132635835Y-108314539D01*
X132629220Y-108318790D01*
X131687076Y-109260934D01*
X131679684Y-109274471D01*
X131036834Y-109274471D01*
X131002956Y-109245536D01*
X130797147Y-109119416D01*
X130792577Y-109117523D01*
X130792573Y-109117521D01*
X130578716Y-109028939D01*
X130578714Y-109028938D01*
X130574143Y-109027045D01*
X130482353Y-109005008D01*
X130344247Y-108971851D01*
X130344241Y-108971850D01*
X130339434Y-108970696D01*
X130098800Y-108951758D01*
X129858166Y-108970696D01*
X129853359Y-108971850D01*
X129853353Y-108971851D01*
X129715247Y-109005008D01*
X129623457Y-109027045D01*
X129618886Y-109028938D01*
X129618884Y-109028939D01*
X129405027Y-109117521D01*
X129405023Y-109117523D01*
X129400453Y-109119416D01*
X129194644Y-109245536D01*
X129011099Y-109402299D01*
X128854336Y-109585844D01*
X128728216Y-109791653D01*
X128726323Y-109796223D01*
X128726321Y-109796227D01*
X128703807Y-109850582D01*
X128635845Y-110014657D01*
X128634690Y-110019469D01*
X128580651Y-110244553D01*
X128580650Y-110244559D01*
X128579496Y-110249366D01*
X128560558Y-110490000D01*
X119679981Y-110490000D01*
X119630003Y-110329047D01*
X119580496Y-110169608D01*
X119542652Y-110083600D01*
X119440122Y-109850582D01*
X119440120Y-109850579D01*
X119438679Y-109847303D01*
X119261287Y-109543124D01*
X119060674Y-109274471D01*
X126599684Y-109274471D01*
X126603370Y-109279740D01*
X126810921Y-109406927D01*
X126819715Y-109411408D01*
X127048042Y-109505984D01*
X127057427Y-109509033D01*
X127297740Y-109566728D01*
X127307487Y-109568271D01*
X127553870Y-109587662D01*
X127563730Y-109587662D01*
X127810113Y-109568271D01*
X127819860Y-109566728D01*
X128060173Y-109509033D01*
X128069558Y-109505984D01*
X128297885Y-109411408D01*
X128306679Y-109406927D01*
X128512728Y-109280660D01*
X128517990Y-109272599D01*
X128511983Y-109262393D01*
X127571612Y-108322022D01*
X127557668Y-108314408D01*
X127555835Y-108314539D01*
X127549220Y-108318790D01*
X126607076Y-109260934D01*
X126599684Y-109274471D01*
X119060674Y-109274471D01*
X119050601Y-109260981D01*
X119048157Y-109258383D01*
X119048152Y-109258377D01*
X118811780Y-109007107D01*
X118811776Y-109007104D01*
X118809330Y-109004503D01*
X118633903Y-108855993D01*
X118543298Y-108779290D01*
X118543294Y-108779287D01*
X118540576Y-108776986D01*
X118309430Y-108622539D01*
X118250770Y-108583344D01*
X118250768Y-108583343D01*
X118247793Y-108581355D01*
X118213918Y-108563908D01*
X117937930Y-108421764D01*
X117937925Y-108421762D01*
X117934747Y-108420125D01*
X117931406Y-108418859D01*
X117931401Y-108418857D01*
X117608805Y-108296637D01*
X117608806Y-108296637D01*
X117605461Y-108295370D01*
X117601997Y-108294490D01*
X117601993Y-108294489D01*
X117267637Y-108209573D01*
X117267629Y-108209571D01*
X117264170Y-108208693D01*
X117092448Y-108185322D01*
X116918253Y-108161615D01*
X116918246Y-108161614D01*
X116915260Y-108161208D01*
X116800519Y-108156700D01*
X116582402Y-108156700D01*
X116440844Y-108164738D01*
X116323608Y-108171395D01*
X116323601Y-108171396D01*
X116320040Y-108171598D01*
X116181717Y-108195366D01*
X115976518Y-108230625D01*
X115976510Y-108230627D01*
X115973000Y-108231230D01*
X115969575Y-108232228D01*
X115969572Y-108232229D01*
X115796467Y-108282685D01*
X115634941Y-108329766D01*
X115631639Y-108331151D01*
X115631638Y-108331151D01*
X115313508Y-108464554D01*
X115310210Y-108465937D01*
X115244404Y-108502790D01*
X115006098Y-108636247D01*
X115006093Y-108636250D01*
X115002981Y-108637993D01*
X115000085Y-108640078D01*
X115000080Y-108640081D01*
X114932010Y-108689085D01*
X114717205Y-108843723D01*
X114714569Y-108846117D01*
X114714567Y-108846119D01*
X114513297Y-109028939D01*
X114456554Y-109080481D01*
X114224381Y-109345223D01*
X114222349Y-109348152D01*
X114222346Y-109348156D01*
X114181576Y-109406927D01*
X114023671Y-109634547D01*
X114021982Y-109637690D01*
X114021981Y-109637692D01*
X113917092Y-109832900D01*
X113867229Y-109883439D01*
X113797959Y-109898998D01*
X113731273Y-109874636D01*
X113688344Y-109818088D01*
X113680100Y-109773261D01*
X113680100Y-107954930D01*
X125921138Y-107954930D01*
X125940529Y-108201313D01*
X125942072Y-108211060D01*
X125999767Y-108451373D01*
X126002816Y-108460758D01*
X126097392Y-108689085D01*
X126101873Y-108697879D01*
X126228140Y-108903928D01*
X126236201Y-108909190D01*
X126246407Y-108903183D01*
X127186778Y-107962812D01*
X127193156Y-107951132D01*
X127923208Y-107951132D01*
X127923339Y-107952965D01*
X127927590Y-107959580D01*
X128869734Y-108901724D01*
X128883271Y-108909116D01*
X128888540Y-108905430D01*
X129015727Y-108697879D01*
X129020208Y-108689085D01*
X129114784Y-108460758D01*
X129117833Y-108451373D01*
X129175528Y-108211060D01*
X129177071Y-108201313D01*
X129196462Y-107954930D01*
X131001138Y-107954930D01*
X131020529Y-108201313D01*
X131022072Y-108211060D01*
X131079767Y-108451373D01*
X131082816Y-108460758D01*
X131177392Y-108689085D01*
X131181873Y-108697879D01*
X131308140Y-108903928D01*
X131316201Y-108909190D01*
X131326407Y-108903183D01*
X132266778Y-107962812D01*
X132273156Y-107951132D01*
X133003208Y-107951132D01*
X133003339Y-107952965D01*
X133007590Y-107959580D01*
X133949734Y-108901724D01*
X133963271Y-108909116D01*
X133968540Y-108905430D01*
X134095727Y-108697879D01*
X134100208Y-108689085D01*
X134194784Y-108460758D01*
X134197833Y-108451373D01*
X134255528Y-108211060D01*
X134257071Y-108201313D01*
X134276462Y-107954930D01*
X135522338Y-107954930D01*
X135541729Y-108201313D01*
X135543272Y-108211060D01*
X135600967Y-108451373D01*
X135604016Y-108460758D01*
X135698592Y-108689085D01*
X135703073Y-108697879D01*
X135829340Y-108903928D01*
X135837401Y-108909190D01*
X135847607Y-108903183D01*
X136787978Y-107962812D01*
X136794356Y-107951132D01*
X137524408Y-107951132D01*
X137524539Y-107952965D01*
X137528790Y-107959580D01*
X138470934Y-108901724D01*
X138484471Y-108909116D01*
X138489740Y-108905430D01*
X138616927Y-108697879D01*
X138621408Y-108689085D01*
X138715984Y-108460758D01*
X138719033Y-108451373D01*
X138776728Y-108211060D01*
X138778271Y-108201313D01*
X138797662Y-107954930D01*
X140602338Y-107954930D01*
X140621729Y-108201313D01*
X140623272Y-108211060D01*
X140680967Y-108451373D01*
X140684016Y-108460758D01*
X140778592Y-108689085D01*
X140783073Y-108697879D01*
X140909340Y-108903928D01*
X140917401Y-108909190D01*
X140927607Y-108903183D01*
X141867978Y-107962812D01*
X141874356Y-107951132D01*
X142604408Y-107951132D01*
X142604539Y-107952965D01*
X142608790Y-107959580D01*
X143550934Y-108901724D01*
X143564471Y-108909116D01*
X143569740Y-108905430D01*
X143592634Y-108868071D01*
X152152084Y-108868071D01*
X152155770Y-108873340D01*
X152363321Y-109000527D01*
X152372115Y-109005008D01*
X152600442Y-109099584D01*
X152609827Y-109102633D01*
X152850140Y-109160328D01*
X152859887Y-109161871D01*
X153106270Y-109181262D01*
X153116130Y-109181262D01*
X153362513Y-109161871D01*
X153372260Y-109160328D01*
X153612573Y-109102633D01*
X153621958Y-109099584D01*
X153850285Y-109005008D01*
X153859079Y-109000527D01*
X154065128Y-108874260D01*
X154070390Y-108866199D01*
X154064383Y-108855993D01*
X153124012Y-107915622D01*
X153110068Y-107908008D01*
X153108235Y-107908139D01*
X153101620Y-107912390D01*
X152159476Y-108854534D01*
X152152084Y-108868071D01*
X143592634Y-108868071D01*
X143696927Y-108697879D01*
X143701408Y-108689085D01*
X143795984Y-108460758D01*
X143799033Y-108451373D01*
X143856728Y-108211060D01*
X143858271Y-108201313D01*
X143877662Y-107954930D01*
X143877662Y-107945070D01*
X143858271Y-107698687D01*
X143856728Y-107688940D01*
X143823018Y-107548530D01*
X151473538Y-107548530D01*
X151492929Y-107794913D01*
X151494472Y-107804660D01*
X151552167Y-108044973D01*
X151555216Y-108054358D01*
X151649792Y-108282685D01*
X151654273Y-108291479D01*
X151780540Y-108497528D01*
X151788601Y-108502790D01*
X151798807Y-108496783D01*
X152739178Y-107556412D01*
X152745556Y-107544732D01*
X153475608Y-107544732D01*
X153475739Y-107546565D01*
X153479990Y-107553180D01*
X154422134Y-108495324D01*
X154435671Y-108502716D01*
X154440940Y-108499030D01*
X154568127Y-108291479D01*
X154572608Y-108282685D01*
X154667184Y-108054358D01*
X154670233Y-108044973D01*
X154727928Y-107804660D01*
X154729471Y-107794913D01*
X154748862Y-107548530D01*
X156553538Y-107548530D01*
X156572929Y-107794913D01*
X156574472Y-107804660D01*
X156632167Y-108044973D01*
X156635216Y-108054358D01*
X156729792Y-108282685D01*
X156734273Y-108291479D01*
X156860540Y-108497528D01*
X156868601Y-108502790D01*
X156878807Y-108496783D01*
X157819178Y-107556412D01*
X157825556Y-107544732D01*
X158555608Y-107544732D01*
X158555739Y-107546565D01*
X158559990Y-107553180D01*
X159502134Y-108495324D01*
X159515671Y-108502716D01*
X159520940Y-108499030D01*
X159648127Y-108291479D01*
X159652608Y-108282685D01*
X159747184Y-108054358D01*
X159750233Y-108044973D01*
X159807928Y-107804660D01*
X159809471Y-107794913D01*
X159828862Y-107548530D01*
X160261938Y-107548530D01*
X160281329Y-107794913D01*
X160282872Y-107804660D01*
X160340567Y-108044973D01*
X160343616Y-108054358D01*
X160438192Y-108282685D01*
X160442673Y-108291479D01*
X160568940Y-108497528D01*
X160577001Y-108502790D01*
X160587207Y-108496783D01*
X161527578Y-107556412D01*
X161533956Y-107544732D01*
X162264008Y-107544732D01*
X162264139Y-107546565D01*
X162268390Y-107553180D01*
X163210534Y-108495324D01*
X163224071Y-108502716D01*
X163229340Y-108499030D01*
X163356527Y-108291479D01*
X163361008Y-108282685D01*
X163455584Y-108054358D01*
X163458633Y-108044973D01*
X163516328Y-107804660D01*
X163517871Y-107794913D01*
X163537262Y-107548530D01*
X165341938Y-107548530D01*
X165361329Y-107794913D01*
X165362872Y-107804660D01*
X165420567Y-108044973D01*
X165423616Y-108054358D01*
X165518192Y-108282685D01*
X165522673Y-108291479D01*
X165648940Y-108497528D01*
X165657001Y-108502790D01*
X165667207Y-108496783D01*
X166607578Y-107556412D01*
X166613956Y-107544732D01*
X167344008Y-107544732D01*
X167344139Y-107546565D01*
X167348390Y-107553180D01*
X168290534Y-108495324D01*
X168304071Y-108502716D01*
X168309340Y-108499030D01*
X168436527Y-108291479D01*
X168441008Y-108282685D01*
X168535584Y-108054358D01*
X168538633Y-108044973D01*
X168596328Y-107804660D01*
X168597871Y-107794913D01*
X168617262Y-107548530D01*
X168617262Y-107538670D01*
X168597871Y-107292287D01*
X168596328Y-107282540D01*
X168538633Y-107042227D01*
X168535584Y-107032842D01*
X168441008Y-106804515D01*
X168436527Y-106795721D01*
X168310260Y-106589672D01*
X168302199Y-106584410D01*
X168291993Y-106590417D01*
X167351622Y-107530788D01*
X167344008Y-107544732D01*
X166613956Y-107544732D01*
X166615192Y-107542468D01*
X166615061Y-107540635D01*
X166610810Y-107534020D01*
X165668666Y-106591876D01*
X165655129Y-106584484D01*
X165649860Y-106588170D01*
X165522673Y-106795721D01*
X165518192Y-106804515D01*
X165423616Y-107032842D01*
X165420567Y-107042227D01*
X165362872Y-107282540D01*
X165361329Y-107292287D01*
X165341938Y-107538670D01*
X165341938Y-107548530D01*
X163537262Y-107548530D01*
X163537262Y-107538670D01*
X163517871Y-107292287D01*
X163516328Y-107282540D01*
X163458633Y-107042227D01*
X163455584Y-107032842D01*
X163361008Y-106804515D01*
X163356527Y-106795721D01*
X163230260Y-106589672D01*
X163222199Y-106584410D01*
X163211993Y-106590417D01*
X162271622Y-107530788D01*
X162264008Y-107544732D01*
X161533956Y-107544732D01*
X161535192Y-107542468D01*
X161535061Y-107540635D01*
X161530810Y-107534020D01*
X160588666Y-106591876D01*
X160575129Y-106584484D01*
X160569860Y-106588170D01*
X160442673Y-106795721D01*
X160438192Y-106804515D01*
X160343616Y-107032842D01*
X160340567Y-107042227D01*
X160282872Y-107282540D01*
X160281329Y-107292287D01*
X160261938Y-107538670D01*
X160261938Y-107548530D01*
X159828862Y-107548530D01*
X159828862Y-107538670D01*
X159809471Y-107292287D01*
X159807928Y-107282540D01*
X159750233Y-107042227D01*
X159747184Y-107032842D01*
X159652608Y-106804515D01*
X159648127Y-106795721D01*
X159521860Y-106589672D01*
X159513799Y-106584410D01*
X159503593Y-106590417D01*
X158563222Y-107530788D01*
X158555608Y-107544732D01*
X157825556Y-107544732D01*
X157826792Y-107542468D01*
X157826661Y-107540635D01*
X157822410Y-107534020D01*
X156880266Y-106591876D01*
X156866729Y-106584484D01*
X156861460Y-106588170D01*
X156734273Y-106795721D01*
X156729792Y-106804515D01*
X156635216Y-107032842D01*
X156632167Y-107042227D01*
X156574472Y-107282540D01*
X156572929Y-107292287D01*
X156553538Y-107538670D01*
X156553538Y-107548530D01*
X154748862Y-107548530D01*
X154748862Y-107538670D01*
X154729471Y-107292287D01*
X154727928Y-107282540D01*
X154670233Y-107042227D01*
X154667184Y-107032842D01*
X154572608Y-106804515D01*
X154568127Y-106795721D01*
X154441860Y-106589672D01*
X154433799Y-106584410D01*
X154423593Y-106590417D01*
X153483222Y-107530788D01*
X153475608Y-107544732D01*
X152745556Y-107544732D01*
X152746792Y-107542468D01*
X152746661Y-107540635D01*
X152742410Y-107534020D01*
X151800266Y-106591876D01*
X151786729Y-106584484D01*
X151781460Y-106588170D01*
X151654273Y-106795721D01*
X151649792Y-106804515D01*
X151555216Y-107032842D01*
X151552167Y-107042227D01*
X151494472Y-107282540D01*
X151492929Y-107292287D01*
X151473538Y-107538670D01*
X151473538Y-107548530D01*
X143823018Y-107548530D01*
X143799033Y-107448627D01*
X143795984Y-107439242D01*
X143701408Y-107210915D01*
X143696927Y-107202121D01*
X143570660Y-106996072D01*
X143562599Y-106990810D01*
X143552393Y-106996817D01*
X142612022Y-107937188D01*
X142604408Y-107951132D01*
X141874356Y-107951132D01*
X141875592Y-107948868D01*
X141875461Y-107947035D01*
X141871210Y-107940420D01*
X140929066Y-106998276D01*
X140915529Y-106990884D01*
X140910260Y-106994570D01*
X140783073Y-107202121D01*
X140778592Y-107210915D01*
X140684016Y-107439242D01*
X140680967Y-107448627D01*
X140623272Y-107688940D01*
X140621729Y-107698687D01*
X140602338Y-107945070D01*
X140602338Y-107954930D01*
X138797662Y-107954930D01*
X138797662Y-107945070D01*
X138778271Y-107698687D01*
X138776728Y-107688940D01*
X138719033Y-107448627D01*
X138715984Y-107439242D01*
X138621408Y-107210915D01*
X138616927Y-107202121D01*
X138490660Y-106996072D01*
X138482599Y-106990810D01*
X138472393Y-106996817D01*
X137532022Y-107937188D01*
X137524408Y-107951132D01*
X136794356Y-107951132D01*
X136795592Y-107948868D01*
X136795461Y-107947035D01*
X136791210Y-107940420D01*
X135849066Y-106998276D01*
X135835529Y-106990884D01*
X135830260Y-106994570D01*
X135703073Y-107202121D01*
X135698592Y-107210915D01*
X135604016Y-107439242D01*
X135600967Y-107448627D01*
X135543272Y-107688940D01*
X135541729Y-107698687D01*
X135522338Y-107945070D01*
X135522338Y-107954930D01*
X134276462Y-107954930D01*
X134276462Y-107945070D01*
X134257071Y-107698687D01*
X134255528Y-107688940D01*
X134197833Y-107448627D01*
X134194784Y-107439242D01*
X134100208Y-107210915D01*
X134095727Y-107202121D01*
X133969460Y-106996072D01*
X133961399Y-106990810D01*
X133951193Y-106996817D01*
X133010822Y-107937188D01*
X133003208Y-107951132D01*
X132273156Y-107951132D01*
X132274392Y-107948868D01*
X132274261Y-107947035D01*
X132270010Y-107940420D01*
X131327866Y-106998276D01*
X131314329Y-106990884D01*
X131309060Y-106994570D01*
X131181873Y-107202121D01*
X131177392Y-107210915D01*
X131082816Y-107439242D01*
X131079767Y-107448627D01*
X131022072Y-107688940D01*
X131020529Y-107698687D01*
X131001138Y-107945070D01*
X131001138Y-107954930D01*
X129196462Y-107954930D01*
X129196462Y-107945070D01*
X129177071Y-107698687D01*
X129175528Y-107688940D01*
X129117833Y-107448627D01*
X129114784Y-107439242D01*
X129020208Y-107210915D01*
X129015727Y-107202121D01*
X128889460Y-106996072D01*
X128881399Y-106990810D01*
X128871193Y-106996817D01*
X127930822Y-107937188D01*
X127923208Y-107951132D01*
X127193156Y-107951132D01*
X127194392Y-107948868D01*
X127194261Y-107947035D01*
X127190010Y-107940420D01*
X126247866Y-106998276D01*
X126234329Y-106990884D01*
X126229060Y-106994570D01*
X126101873Y-107202121D01*
X126097392Y-107210915D01*
X126002816Y-107439242D01*
X125999767Y-107448627D01*
X125942072Y-107688940D01*
X125940529Y-107698687D01*
X125921138Y-107945070D01*
X125921138Y-107954930D01*
X113680100Y-107954930D01*
X113680100Y-106627401D01*
X126599610Y-106627401D01*
X126605617Y-106637607D01*
X127545988Y-107577978D01*
X127559932Y-107585592D01*
X127561765Y-107585461D01*
X127568380Y-107581210D01*
X128510524Y-106639066D01*
X128516894Y-106627401D01*
X131679610Y-106627401D01*
X131685617Y-106637607D01*
X132625988Y-107577978D01*
X132639932Y-107585592D01*
X132641765Y-107585461D01*
X132648380Y-107581210D01*
X133590524Y-106639066D01*
X133596894Y-106627401D01*
X136200810Y-106627401D01*
X136206817Y-106637607D01*
X137147188Y-107577978D01*
X137161132Y-107585592D01*
X137162965Y-107585461D01*
X137169580Y-107581210D01*
X138111724Y-106639066D01*
X138118094Y-106627401D01*
X141280810Y-106627401D01*
X141286817Y-106637607D01*
X142227188Y-107577978D01*
X142241132Y-107585592D01*
X142242965Y-107585461D01*
X142249580Y-107581210D01*
X143191724Y-106639066D01*
X143199116Y-106625529D01*
X143195430Y-106620260D01*
X142987879Y-106493073D01*
X142979085Y-106488592D01*
X142750758Y-106394016D01*
X142741373Y-106390967D01*
X142501060Y-106333272D01*
X142491313Y-106331729D01*
X142244930Y-106312338D01*
X142235070Y-106312338D01*
X141988687Y-106331729D01*
X141978940Y-106333272D01*
X141738627Y-106390967D01*
X141729242Y-106394016D01*
X141500915Y-106488592D01*
X141492121Y-106493073D01*
X141286072Y-106619340D01*
X141280810Y-106627401D01*
X138118094Y-106627401D01*
X138119116Y-106625529D01*
X138115430Y-106620260D01*
X137907879Y-106493073D01*
X137899085Y-106488592D01*
X137670758Y-106394016D01*
X137661373Y-106390967D01*
X137421060Y-106333272D01*
X137411313Y-106331729D01*
X137164930Y-106312338D01*
X137155070Y-106312338D01*
X136908687Y-106331729D01*
X136898940Y-106333272D01*
X136658627Y-106390967D01*
X136649242Y-106394016D01*
X136420915Y-106488592D01*
X136412121Y-106493073D01*
X136206072Y-106619340D01*
X136200810Y-106627401D01*
X133596894Y-106627401D01*
X133597916Y-106625529D01*
X133594230Y-106620260D01*
X133386679Y-106493073D01*
X133377885Y-106488592D01*
X133149558Y-106394016D01*
X133140173Y-106390967D01*
X132899860Y-106333272D01*
X132890113Y-106331729D01*
X132643730Y-106312338D01*
X132633870Y-106312338D01*
X132387487Y-106331729D01*
X132377740Y-106333272D01*
X132137427Y-106390967D01*
X132128042Y-106394016D01*
X131899715Y-106488592D01*
X131890921Y-106493073D01*
X131684872Y-106619340D01*
X131679610Y-106627401D01*
X128516894Y-106627401D01*
X128517916Y-106625529D01*
X128514230Y-106620260D01*
X128306679Y-106493073D01*
X128297885Y-106488592D01*
X128069558Y-106394016D01*
X128060173Y-106390967D01*
X127819860Y-106333272D01*
X127810113Y-106331729D01*
X127563730Y-106312338D01*
X127553870Y-106312338D01*
X127307487Y-106331729D01*
X127297740Y-106333272D01*
X127057427Y-106390967D01*
X127048042Y-106394016D01*
X126819715Y-106488592D01*
X126810921Y-106493073D01*
X126604872Y-106619340D01*
X126599610Y-106627401D01*
X113680100Y-106627401D01*
X113680100Y-106221001D01*
X152152010Y-106221001D01*
X152158017Y-106231207D01*
X153098388Y-107171578D01*
X153112332Y-107179192D01*
X153114165Y-107179061D01*
X153120780Y-107174810D01*
X154062924Y-106232666D01*
X154069294Y-106221001D01*
X157232010Y-106221001D01*
X157238017Y-106231207D01*
X158178388Y-107171578D01*
X158192332Y-107179192D01*
X158194165Y-107179061D01*
X158200780Y-107174810D01*
X159142924Y-106232666D01*
X159149294Y-106221001D01*
X160940410Y-106221001D01*
X160946417Y-106231207D01*
X161886788Y-107171578D01*
X161900732Y-107179192D01*
X161902565Y-107179061D01*
X161909180Y-107174810D01*
X162851324Y-106232666D01*
X162857694Y-106221001D01*
X166020410Y-106221001D01*
X166026417Y-106231207D01*
X166966788Y-107171578D01*
X166980732Y-107179192D01*
X166982565Y-107179061D01*
X166989180Y-107174810D01*
X167931324Y-106232666D01*
X167938716Y-106219129D01*
X167935030Y-106213860D01*
X167727479Y-106086673D01*
X167718685Y-106082192D01*
X167490358Y-105987616D01*
X167480973Y-105984567D01*
X167240660Y-105926872D01*
X167230913Y-105925329D01*
X166984530Y-105905938D01*
X166974670Y-105905938D01*
X166728287Y-105925329D01*
X166718540Y-105926872D01*
X166478227Y-105984567D01*
X166468842Y-105987616D01*
X166240515Y-106082192D01*
X166231721Y-106086673D01*
X166025672Y-106212940D01*
X166020410Y-106221001D01*
X162857694Y-106221001D01*
X162858716Y-106219129D01*
X162855030Y-106213860D01*
X162647479Y-106086673D01*
X162638685Y-106082192D01*
X162410358Y-105987616D01*
X162400973Y-105984567D01*
X162160660Y-105926872D01*
X162150913Y-105925329D01*
X161904530Y-105905938D01*
X161894670Y-105905938D01*
X161648287Y-105925329D01*
X161638540Y-105926872D01*
X161398227Y-105984567D01*
X161388842Y-105987616D01*
X161160515Y-106082192D01*
X161151721Y-106086673D01*
X160945672Y-106212940D01*
X160940410Y-106221001D01*
X159149294Y-106221001D01*
X159150316Y-106219129D01*
X159146630Y-106213860D01*
X158939079Y-106086673D01*
X158930285Y-106082192D01*
X158701958Y-105987616D01*
X158692573Y-105984567D01*
X158452260Y-105926872D01*
X158442513Y-105925329D01*
X158196130Y-105905938D01*
X158186270Y-105905938D01*
X157939887Y-105925329D01*
X157930140Y-105926872D01*
X157689827Y-105984567D01*
X157680442Y-105987616D01*
X157452115Y-106082192D01*
X157443321Y-106086673D01*
X157237272Y-106212940D01*
X157232010Y-106221001D01*
X154069294Y-106221001D01*
X154070316Y-106219129D01*
X154066630Y-106213860D01*
X153859079Y-106086673D01*
X153850285Y-106082192D01*
X153621958Y-105987616D01*
X153612573Y-105984567D01*
X153372260Y-105926872D01*
X153362513Y-105925329D01*
X153116130Y-105905938D01*
X153106270Y-105905938D01*
X152859887Y-105925329D01*
X152850140Y-105926872D01*
X152609827Y-105984567D01*
X152600442Y-105987616D01*
X152372115Y-106082192D01*
X152363321Y-106086673D01*
X152157272Y-106212940D01*
X152152010Y-106221001D01*
X113680100Y-106221001D01*
X113680100Y-103412534D01*
X128801100Y-103412534D01*
X128807855Y-103474716D01*
X128858985Y-103611105D01*
X128946339Y-103727661D01*
X129062895Y-103815015D01*
X129199284Y-103866145D01*
X129261466Y-103872900D01*
X131057734Y-103872900D01*
X131119916Y-103866145D01*
X131256305Y-103815015D01*
X131372861Y-103727661D01*
X131460215Y-103611105D01*
X131492065Y-103526145D01*
X131504398Y-103493248D01*
X131547040Y-103436484D01*
X131613601Y-103411784D01*
X131682950Y-103426992D01*
X131717617Y-103454980D01*
X131742818Y-103484073D01*
X131750180Y-103491283D01*
X131914034Y-103627316D01*
X131922481Y-103633231D01*
X132106356Y-103740679D01*
X132115642Y-103745129D01*
X132314601Y-103821103D01*
X132324499Y-103823979D01*
X132427850Y-103845006D01*
X132441899Y-103843810D01*
X132445600Y-103833465D01*
X132445600Y-103832917D01*
X132953600Y-103832917D01*
X132957664Y-103846759D01*
X132971078Y-103848793D01*
X132977784Y-103847934D01*
X132987862Y-103845792D01*
X133191855Y-103784591D01*
X133201442Y-103780833D01*
X133392695Y-103687139D01*
X133401545Y-103681864D01*
X133574928Y-103558192D01*
X133582800Y-103551539D01*
X133733652Y-103401212D01*
X133740330Y-103393365D01*
X133867622Y-103216219D01*
X133868747Y-103217027D01*
X133916269Y-103173276D01*
X133986207Y-103161061D01*
X134051646Y-103188597D01*
X134079470Y-103220428D01*
X134137290Y-103314783D01*
X134143377Y-103323099D01*
X134282813Y-103484067D01*
X134290180Y-103491283D01*
X134454034Y-103627316D01*
X134462481Y-103633231D01*
X134646356Y-103740679D01*
X134655642Y-103745129D01*
X134854601Y-103821103D01*
X134864499Y-103823979D01*
X134967850Y-103845006D01*
X134981899Y-103843810D01*
X134985600Y-103833465D01*
X134985600Y-103832917D01*
X135493600Y-103832917D01*
X135497664Y-103846759D01*
X135511078Y-103848793D01*
X135517784Y-103847934D01*
X135527862Y-103845792D01*
X135731855Y-103784591D01*
X135741442Y-103780833D01*
X135932695Y-103687139D01*
X135941545Y-103681864D01*
X136114928Y-103558192D01*
X136122800Y-103551539D01*
X136273652Y-103401212D01*
X136280330Y-103393365D01*
X136407622Y-103216219D01*
X136408879Y-103217122D01*
X136455973Y-103173762D01*
X136525911Y-103161545D01*
X136591351Y-103189078D01*
X136619179Y-103220911D01*
X136679587Y-103319488D01*
X136825850Y-103488338D01*
X136997726Y-103631032D01*
X137190600Y-103743738D01*
X137399292Y-103823430D01*
X137404360Y-103824461D01*
X137404363Y-103824462D01*
X137499462Y-103843810D01*
X137618197Y-103867967D01*
X137623372Y-103868157D01*
X137623374Y-103868157D01*
X137836273Y-103875964D01*
X137836277Y-103875964D01*
X137841437Y-103876153D01*
X137846557Y-103875497D01*
X137846559Y-103875497D01*
X138057888Y-103848425D01*
X138057889Y-103848425D01*
X138063016Y-103847768D01*
X138067966Y-103846283D01*
X138272029Y-103785061D01*
X138272034Y-103785059D01*
X138276984Y-103783574D01*
X138477594Y-103685296D01*
X138659460Y-103555573D01*
X138681941Y-103533171D01*
X138778966Y-103436484D01*
X138817696Y-103397889D01*
X138838964Y-103368292D01*
X138945035Y-103220677D01*
X138948053Y-103216477D01*
X138960607Y-103191077D01*
X139044736Y-103020853D01*
X139044737Y-103020851D01*
X139047030Y-103016211D01*
X139111970Y-102802469D01*
X139141129Y-102580990D01*
X139142756Y-102514400D01*
X139137930Y-102455695D01*
X154786451Y-102455695D01*
X154786748Y-102460848D01*
X154786748Y-102460851D01*
X154788371Y-102489000D01*
X154799310Y-102678715D01*
X154800447Y-102683761D01*
X154800448Y-102683767D01*
X154814806Y-102747475D01*
X154848422Y-102896639D01*
X154932466Y-103103616D01*
X154959886Y-103148362D01*
X155046304Y-103289383D01*
X155049187Y-103294088D01*
X155195450Y-103462938D01*
X155367326Y-103605632D01*
X155560200Y-103718338D01*
X155768892Y-103798030D01*
X155773960Y-103799061D01*
X155773963Y-103799062D01*
X155852375Y-103815015D01*
X155987797Y-103842567D01*
X155992972Y-103842757D01*
X155992974Y-103842757D01*
X156205873Y-103850564D01*
X156205877Y-103850564D01*
X156211037Y-103850753D01*
X156216157Y-103850097D01*
X156216159Y-103850097D01*
X156427488Y-103823025D01*
X156427489Y-103823025D01*
X156432616Y-103822368D01*
X156437566Y-103820883D01*
X156641629Y-103759661D01*
X156641634Y-103759659D01*
X156646584Y-103758174D01*
X156847194Y-103659896D01*
X157029060Y-103530173D01*
X157071042Y-103488338D01*
X157172600Y-103387134D01*
X157187296Y-103372489D01*
X157246794Y-103289689D01*
X157317653Y-103191077D01*
X157318840Y-103191930D01*
X157366160Y-103148362D01*
X157436097Y-103136145D01*
X157501538Y-103163678D01*
X157529366Y-103195511D01*
X157586894Y-103289388D01*
X157592977Y-103297699D01*
X157732413Y-103458667D01*
X157739780Y-103465883D01*
X157903634Y-103601916D01*
X157912081Y-103607831D01*
X158095956Y-103715279D01*
X158105242Y-103719729D01*
X158304201Y-103795703D01*
X158314099Y-103798579D01*
X158417450Y-103819606D01*
X158431499Y-103818410D01*
X158435200Y-103808065D01*
X158435200Y-103807517D01*
X158943200Y-103807517D01*
X158947264Y-103821359D01*
X158960678Y-103823393D01*
X158967384Y-103822534D01*
X158977462Y-103820392D01*
X159181455Y-103759191D01*
X159191042Y-103755433D01*
X159382295Y-103661739D01*
X159391145Y-103656464D01*
X159564528Y-103532792D01*
X159572400Y-103526139D01*
X159723252Y-103375812D01*
X159729930Y-103367965D01*
X159857222Y-103190819D01*
X159858347Y-103191627D01*
X159905869Y-103147876D01*
X159975807Y-103135661D01*
X160041246Y-103163197D01*
X160069070Y-103195028D01*
X160126890Y-103289383D01*
X160132977Y-103297699D01*
X160272413Y-103458667D01*
X160279780Y-103465883D01*
X160443634Y-103601916D01*
X160452081Y-103607831D01*
X160635956Y-103715279D01*
X160645242Y-103719729D01*
X160844201Y-103795703D01*
X160854099Y-103798579D01*
X160957450Y-103819606D01*
X160971499Y-103818410D01*
X160975200Y-103808065D01*
X160975200Y-103807517D01*
X161483200Y-103807517D01*
X161487264Y-103821359D01*
X161500678Y-103823393D01*
X161507384Y-103822534D01*
X161517462Y-103820392D01*
X161721455Y-103759191D01*
X161731042Y-103755433D01*
X161922295Y-103661739D01*
X161931145Y-103656464D01*
X162104528Y-103532792D01*
X162112393Y-103526145D01*
X162217097Y-103421805D01*
X162279468Y-103387889D01*
X162350275Y-103393077D01*
X162407037Y-103435723D01*
X162424019Y-103466826D01*
X162433924Y-103493248D01*
X162468585Y-103585705D01*
X162555939Y-103702261D01*
X162672495Y-103789615D01*
X162808884Y-103840745D01*
X162871066Y-103847500D01*
X164667334Y-103847500D01*
X164729516Y-103840745D01*
X164865905Y-103789615D01*
X164982461Y-103702261D01*
X165069815Y-103585705D01*
X165120945Y-103449316D01*
X165127700Y-103387134D01*
X165127700Y-101590866D01*
X165120945Y-101528684D01*
X165069815Y-101392295D01*
X164982461Y-101275739D01*
X164865905Y-101188385D01*
X164729516Y-101137255D01*
X164667334Y-101130500D01*
X162871066Y-101130500D01*
X162808884Y-101137255D01*
X162672495Y-101188385D01*
X162555939Y-101275739D01*
X162468585Y-101392295D01*
X162465433Y-101400703D01*
X162465432Y-101400705D01*
X162423922Y-101511433D01*
X162381281Y-101568198D01*
X162314719Y-101592898D01*
X162245370Y-101577691D01*
X162212746Y-101552004D01*
X162161999Y-101496234D01*
X162154473Y-101489215D01*
X161987339Y-101357222D01*
X161978752Y-101351517D01*
X161792317Y-101248599D01*
X161782905Y-101244369D01*
X161582159Y-101173280D01*
X161572188Y-101170646D01*
X161501037Y-101157972D01*
X161487740Y-101159432D01*
X161483200Y-101173989D01*
X161483200Y-103807517D01*
X160975200Y-103807517D01*
X160975200Y-102761115D01*
X160970725Y-102745876D01*
X160969335Y-102744671D01*
X160961652Y-102743000D01*
X158961315Y-102743000D01*
X158946076Y-102747475D01*
X158944871Y-102748865D01*
X158943200Y-102756548D01*
X158943200Y-103807517D01*
X158435200Y-103807517D01*
X158435200Y-102216885D01*
X158943200Y-102216885D01*
X158947675Y-102232124D01*
X158949065Y-102233329D01*
X158956748Y-102235000D01*
X160957085Y-102235000D01*
X160972324Y-102230525D01*
X160973529Y-102229135D01*
X160975200Y-102221452D01*
X160975200Y-101172102D01*
X160971282Y-101158758D01*
X160957006Y-101156771D01*
X160918524Y-101162660D01*
X160908488Y-101165051D01*
X160706068Y-101231212D01*
X160696559Y-101235209D01*
X160507663Y-101333542D01*
X160498938Y-101339036D01*
X160328633Y-101466905D01*
X160320926Y-101473748D01*
X160173790Y-101627717D01*
X160167304Y-101635727D01*
X160062393Y-101789521D01*
X160007482Y-101834524D01*
X159936957Y-101842695D01*
X159873210Y-101811441D01*
X159852513Y-101786957D01*
X159771627Y-101661926D01*
X159765336Y-101653757D01*
X159622006Y-101496240D01*
X159614473Y-101489215D01*
X159447339Y-101357222D01*
X159438752Y-101351517D01*
X159252317Y-101248599D01*
X159242905Y-101244369D01*
X159042159Y-101173280D01*
X159032188Y-101170646D01*
X158961037Y-101157972D01*
X158947740Y-101159432D01*
X158943200Y-101173989D01*
X158943200Y-102216885D01*
X158435200Y-102216885D01*
X158435200Y-101172102D01*
X158431282Y-101158758D01*
X158417006Y-101156771D01*
X158378524Y-101162660D01*
X158368488Y-101165051D01*
X158166068Y-101231212D01*
X158156559Y-101235209D01*
X157967663Y-101333542D01*
X157958938Y-101339036D01*
X157788633Y-101466905D01*
X157780926Y-101473748D01*
X157633790Y-101627717D01*
X157627309Y-101635722D01*
X157522698Y-101789074D01*
X157467787Y-101834076D01*
X157397262Y-101842247D01*
X157333515Y-101810993D01*
X157312818Y-101786509D01*
X157232022Y-101661617D01*
X157232020Y-101661614D01*
X157229214Y-101657277D01*
X157078870Y-101492051D01*
X157074819Y-101488852D01*
X157074815Y-101488848D01*
X156907614Y-101356800D01*
X156907610Y-101356798D01*
X156903559Y-101353598D01*
X156867228Y-101333542D01*
X156808529Y-101301139D01*
X156707989Y-101245638D01*
X156703120Y-101243914D01*
X156703116Y-101243912D01*
X156502287Y-101172795D01*
X156502283Y-101172794D01*
X156497412Y-101171069D01*
X156492319Y-101170162D01*
X156492316Y-101170161D01*
X156282573Y-101132800D01*
X156282567Y-101132799D01*
X156277484Y-101131894D01*
X156203652Y-101130992D01*
X156059281Y-101129228D01*
X156059279Y-101129228D01*
X156054111Y-101129165D01*
X155833291Y-101162955D01*
X155620956Y-101232357D01*
X155549966Y-101269312D01*
X155475035Y-101308319D01*
X155422807Y-101335507D01*
X155418674Y-101338610D01*
X155418671Y-101338612D01*
X155302144Y-101426103D01*
X155244165Y-101469635D01*
X155089829Y-101631138D01*
X155086915Y-101635410D01*
X155086914Y-101635411D01*
X155074836Y-101653117D01*
X154963943Y-101815680D01*
X154869888Y-102018305D01*
X154810189Y-102233570D01*
X154786451Y-102455695D01*
X139137930Y-102455695D01*
X139124452Y-102291761D01*
X139070031Y-102075102D01*
X138980954Y-101870240D01*
X138859614Y-101682677D01*
X138709270Y-101517451D01*
X138705219Y-101514252D01*
X138705215Y-101514248D01*
X138538014Y-101382200D01*
X138538010Y-101382198D01*
X138533959Y-101378998D01*
X138497628Y-101358942D01*
X138461568Y-101339036D01*
X138338389Y-101271038D01*
X138333520Y-101269314D01*
X138333516Y-101269312D01*
X138132687Y-101198195D01*
X138132683Y-101198194D01*
X138127812Y-101196469D01*
X138122719Y-101195562D01*
X138122716Y-101195561D01*
X137912973Y-101158200D01*
X137912967Y-101158199D01*
X137907884Y-101157294D01*
X137834052Y-101156392D01*
X137689681Y-101154628D01*
X137689679Y-101154628D01*
X137684511Y-101154565D01*
X137463691Y-101188355D01*
X137251356Y-101257757D01*
X137216813Y-101275739D01*
X137105775Y-101333542D01*
X137053207Y-101360907D01*
X137049074Y-101364010D01*
X137049071Y-101364012D01*
X136878700Y-101491930D01*
X136874565Y-101495035D01*
X136720229Y-101656538D01*
X136717315Y-101660810D01*
X136717314Y-101660811D01*
X136705004Y-101678857D01*
X136613937Y-101812357D01*
X136612498Y-101814466D01*
X136557587Y-101859469D01*
X136487062Y-101867640D01*
X136423315Y-101836386D01*
X136402618Y-101811902D01*
X136322026Y-101687326D01*
X136315736Y-101679157D01*
X136172406Y-101521640D01*
X136164873Y-101514615D01*
X135997739Y-101382622D01*
X135989152Y-101376917D01*
X135802717Y-101273999D01*
X135793305Y-101269769D01*
X135592559Y-101198680D01*
X135582588Y-101196046D01*
X135511437Y-101183372D01*
X135498140Y-101184832D01*
X135493600Y-101199389D01*
X135493600Y-103832917D01*
X134985600Y-103832917D01*
X134985600Y-102786515D01*
X134981125Y-102771276D01*
X134979735Y-102770071D01*
X134972052Y-102768400D01*
X132971715Y-102768400D01*
X132956476Y-102772875D01*
X132955271Y-102774265D01*
X132953600Y-102781948D01*
X132953600Y-103832917D01*
X132445600Y-103832917D01*
X132445600Y-102242285D01*
X132953600Y-102242285D01*
X132958075Y-102257524D01*
X132959465Y-102258729D01*
X132967148Y-102260400D01*
X134967485Y-102260400D01*
X134982724Y-102255925D01*
X134983929Y-102254535D01*
X134985600Y-102246852D01*
X134985600Y-101197502D01*
X134981682Y-101184158D01*
X134967406Y-101182171D01*
X134928924Y-101188060D01*
X134918888Y-101190451D01*
X134716468Y-101256612D01*
X134706959Y-101260609D01*
X134518063Y-101358942D01*
X134509338Y-101364436D01*
X134339033Y-101492305D01*
X134331326Y-101499148D01*
X134184190Y-101653117D01*
X134177704Y-101661127D01*
X134072793Y-101814921D01*
X134017882Y-101859924D01*
X133947357Y-101868095D01*
X133883610Y-101836841D01*
X133862913Y-101812357D01*
X133782027Y-101687326D01*
X133775736Y-101679157D01*
X133632406Y-101521640D01*
X133624873Y-101514615D01*
X133457739Y-101382622D01*
X133449152Y-101376917D01*
X133262717Y-101273999D01*
X133253305Y-101269769D01*
X133052559Y-101198680D01*
X133042588Y-101196046D01*
X132971437Y-101183372D01*
X132958140Y-101184832D01*
X132953600Y-101199389D01*
X132953600Y-102242285D01*
X132445600Y-102242285D01*
X132445600Y-101197502D01*
X132441682Y-101184158D01*
X132427406Y-101182171D01*
X132388924Y-101188060D01*
X132378888Y-101190451D01*
X132176468Y-101256612D01*
X132166959Y-101260609D01*
X131978063Y-101358942D01*
X131969338Y-101364436D01*
X131799033Y-101492305D01*
X131791326Y-101499148D01*
X131714078Y-101579984D01*
X131652554Y-101615414D01*
X131581642Y-101611957D01*
X131523855Y-101570711D01*
X131505002Y-101537163D01*
X131463367Y-101426103D01*
X131460215Y-101417695D01*
X131372861Y-101301139D01*
X131256305Y-101213785D01*
X131119916Y-101162655D01*
X131057734Y-101155900D01*
X129261466Y-101155900D01*
X129199284Y-101162655D01*
X129062895Y-101213785D01*
X128946339Y-101301139D01*
X128858985Y-101417695D01*
X128807855Y-101554084D01*
X128801100Y-101616266D01*
X128801100Y-103412534D01*
X113680100Y-103412534D01*
X113680100Y-97004094D01*
X121343066Y-97004094D01*
X121352948Y-97016583D01*
X121384239Y-97037491D01*
X121394349Y-97042981D01*
X121570835Y-97118805D01*
X121581778Y-97122360D01*
X121769120Y-97164752D01*
X121780530Y-97166254D01*
X121972469Y-97173795D01*
X121983951Y-97173193D01*
X122174045Y-97145632D01*
X122185240Y-97142944D01*
X122367131Y-97081200D01*
X122377628Y-97076526D01*
X122488032Y-97014698D01*
X122497895Y-97004621D01*
X122494940Y-96996951D01*
X121932811Y-96434821D01*
X121918868Y-96427208D01*
X121917034Y-96427339D01*
X121910420Y-96431590D01*
X121349259Y-96992752D01*
X121343066Y-97004094D01*
X113680100Y-97004094D01*
X113680100Y-96310450D01*
X113681846Y-96289545D01*
X113684370Y-96274544D01*
X113684370Y-96274541D01*
X113685176Y-96269752D01*
X113685329Y-96257200D01*
X113684640Y-96252388D01*
X113684323Y-96247527D01*
X113684608Y-96247508D01*
X113684207Y-96220749D01*
X113690834Y-96161936D01*
X113697113Y-96134429D01*
X113724085Y-96057347D01*
X113732709Y-96039438D01*
X120808012Y-96039438D01*
X120820575Y-96231104D01*
X120822376Y-96242474D01*
X120869657Y-96428643D01*
X120873498Y-96439490D01*
X120953916Y-96613930D01*
X120959664Y-96623886D01*
X120965788Y-96632551D01*
X120976377Y-96640940D01*
X120989676Y-96633913D01*
X121547979Y-96075611D01*
X121554356Y-96063932D01*
X122284408Y-96063932D01*
X122284539Y-96065766D01*
X122288790Y-96072380D01*
X122850239Y-96633828D01*
X122862614Y-96640585D01*
X122869194Y-96635659D01*
X122933726Y-96520428D01*
X122938400Y-96509931D01*
X123000144Y-96328040D01*
X123002832Y-96316845D01*
X123030689Y-96124711D01*
X123031319Y-96117328D01*
X123032650Y-96066504D01*
X123032407Y-96059105D01*
X123014643Y-95865775D01*
X123012545Y-95854454D01*
X122960408Y-95669591D01*
X122956283Y-95658844D01*
X122872163Y-95488265D01*
X122864869Y-95482790D01*
X122852449Y-95489562D01*
X122292021Y-96049989D01*
X122284408Y-96063932D01*
X121554356Y-96063932D01*
X121555592Y-96061668D01*
X121555461Y-96059834D01*
X121551210Y-96053220D01*
X120988538Y-95490549D01*
X120976163Y-95483792D01*
X120970197Y-95488258D01*
X120894645Y-95631858D01*
X120890242Y-95642491D01*
X120833281Y-95825932D01*
X120830891Y-95837176D01*
X120808313Y-96027937D01*
X120808012Y-96039438D01*
X113732709Y-96039438D01*
X113736327Y-96031926D01*
X113779778Y-95962774D01*
X113797370Y-95940715D01*
X113855115Y-95882970D01*
X113877174Y-95865378D01*
X113946326Y-95821927D01*
X113971747Y-95809685D01*
X114048828Y-95782713D01*
X114076336Y-95776434D01*
X114131826Y-95770182D01*
X114147468Y-95770277D01*
X114147479Y-95769400D01*
X114156451Y-95769510D01*
X114165324Y-95770891D01*
X114174226Y-95769727D01*
X114174228Y-95769727D01*
X114189277Y-95767759D01*
X114196886Y-95766764D01*
X114213221Y-95765700D01*
X117118350Y-95765700D01*
X117139255Y-95767446D01*
X117154256Y-95769970D01*
X117154259Y-95769970D01*
X117159048Y-95770776D01*
X117165287Y-95770852D01*
X117166740Y-95770870D01*
X117166743Y-95770870D01*
X117171600Y-95770929D01*
X117186390Y-95768811D01*
X117195243Y-95767862D01*
X117382342Y-95754480D01*
X117386830Y-95754159D01*
X117438371Y-95742947D01*
X117593282Y-95709249D01*
X117593289Y-95709247D01*
X117597679Y-95708292D01*
X117601894Y-95706720D01*
X117601897Y-95706719D01*
X117774099Y-95642491D01*
X117799854Y-95632885D01*
X117989240Y-95529472D01*
X118161981Y-95400160D01*
X118314560Y-95247581D01*
X118443872Y-95074840D01*
X118547285Y-94885454D01*
X118600185Y-94743624D01*
X118621119Y-94687497D01*
X118621120Y-94687494D01*
X118622692Y-94683279D01*
X118668559Y-94472430D01*
X118681059Y-94297665D01*
X118682484Y-94285754D01*
X118684369Y-94274552D01*
X118684370Y-94274545D01*
X118685176Y-94269752D01*
X118685329Y-94257200D01*
X118681373Y-94229576D01*
X118680100Y-94211714D01*
X118680100Y-92199771D01*
X118700102Y-92131650D01*
X118753758Y-92085157D01*
X118824032Y-92075053D01*
X118888612Y-92104547D01*
X118895195Y-92110676D01*
X120772824Y-93988305D01*
X120806850Y-94050617D01*
X120809459Y-94069157D01*
X120820457Y-94236951D01*
X120870605Y-94434410D01*
X120955898Y-94619424D01*
X121073479Y-94785797D01*
X121077613Y-94789824D01*
X121175780Y-94885454D01*
X121219410Y-94927957D01*
X121224206Y-94931162D01*
X121224214Y-94931168D01*
X121291121Y-94975873D01*
X121336649Y-95030349D01*
X121345145Y-95102862D01*
X121342105Y-95119830D01*
X121346275Y-95129864D01*
X121907189Y-95690779D01*
X121921132Y-95698392D01*
X121922966Y-95698261D01*
X121929580Y-95694010D01*
X122490285Y-95133304D01*
X122497896Y-95119366D01*
X122495983Y-95092620D01*
X122511075Y-95023246D01*
X122549185Y-94981023D01*
X122550551Y-94980258D01*
X122555824Y-94975873D01*
X122702748Y-94853677D01*
X122707186Y-94849986D01*
X122837458Y-94693351D01*
X122937004Y-94515599D01*
X122938860Y-94510132D01*
X122938862Y-94510127D01*
X123000634Y-94328152D01*
X123000635Y-94328147D01*
X123002490Y-94322683D01*
X123031723Y-94121063D01*
X123033249Y-94062800D01*
X123014608Y-93859926D01*
X122959307Y-93663847D01*
X122869201Y-93481129D01*
X122747305Y-93317891D01*
X122597703Y-93179600D01*
X122551675Y-93150559D01*
X122430288Y-93073969D01*
X122430283Y-93073967D01*
X122425404Y-93070888D01*
X122236180Y-92995395D01*
X122036366Y-92955649D01*
X122030591Y-92955573D01*
X122030587Y-92955573D01*
X121934752Y-92954319D01*
X121866899Y-92933427D01*
X121847306Y-92917425D01*
X120023005Y-91093124D01*
X119988979Y-91030812D01*
X119986100Y-91004029D01*
X119986100Y-90704400D01*
X120006102Y-90636279D01*
X120059758Y-90589786D01*
X120112100Y-90578400D01*
X120479085Y-90578400D01*
X120494324Y-90573925D01*
X120495529Y-90572535D01*
X120497200Y-90564852D01*
X120497200Y-90560284D01*
X121005200Y-90560284D01*
X121009675Y-90575523D01*
X121011065Y-90576728D01*
X121018748Y-90578399D01*
X121795869Y-90578399D01*
X121802690Y-90578029D01*
X121853552Y-90572505D01*
X121868804Y-90568879D01*
X121989254Y-90523724D01*
X122004849Y-90515186D01*
X122106924Y-90438685D01*
X122119485Y-90426124D01*
X122195986Y-90324049D01*
X122204524Y-90308454D01*
X122249678Y-90188006D01*
X122253305Y-90172751D01*
X122258831Y-90121886D01*
X122259200Y-90115072D01*
X122259200Y-90003094D01*
X136506866Y-90003094D01*
X136516748Y-90015583D01*
X136548039Y-90036491D01*
X136558149Y-90041981D01*
X136734635Y-90117805D01*
X136745578Y-90121360D01*
X136932920Y-90163752D01*
X136944330Y-90165254D01*
X137136269Y-90172795D01*
X137147751Y-90172193D01*
X137337845Y-90144632D01*
X137349040Y-90141944D01*
X137530931Y-90080200D01*
X137541428Y-90075526D01*
X137651832Y-90013698D01*
X137661695Y-90003621D01*
X137658740Y-89995951D01*
X137096611Y-89433821D01*
X137082668Y-89426208D01*
X137080834Y-89426339D01*
X137074220Y-89430590D01*
X136513059Y-89991752D01*
X136506866Y-90003094D01*
X122259200Y-90003094D01*
X122259200Y-89592515D01*
X122254725Y-89577276D01*
X122253335Y-89576071D01*
X122245652Y-89574400D01*
X121023315Y-89574400D01*
X121008076Y-89578875D01*
X121006871Y-89580265D01*
X121005200Y-89587948D01*
X121005200Y-90560284D01*
X120497200Y-90560284D01*
X120497200Y-89192400D01*
X120517202Y-89124279D01*
X120570858Y-89077786D01*
X120623200Y-89066400D01*
X122241084Y-89066400D01*
X122256323Y-89061925D01*
X122257528Y-89060535D01*
X122259199Y-89052852D01*
X122259199Y-88525731D01*
X122258829Y-88518910D01*
X122253305Y-88468048D01*
X122249679Y-88452796D01*
X122204524Y-88332346D01*
X122195986Y-88316752D01*
X122143247Y-88246382D01*
X122118399Y-88179876D01*
X122133452Y-88110493D01*
X122143247Y-88095252D01*
X122155574Y-88078804D01*
X122201815Y-88017105D01*
X122217647Y-87974873D01*
X122250172Y-87888114D01*
X122250173Y-87888111D01*
X122252945Y-87880716D01*
X122253572Y-87874947D01*
X122288326Y-87814109D01*
X122351281Y-87781287D01*
X122375693Y-87778900D01*
X125416700Y-87778900D01*
X125484821Y-87798902D01*
X125531314Y-87852558D01*
X125542700Y-87904900D01*
X125542700Y-88968534D01*
X125549455Y-89030716D01*
X125600585Y-89167105D01*
X125687939Y-89283661D01*
X125804495Y-89371015D01*
X125940884Y-89422145D01*
X126003066Y-89428900D01*
X128099334Y-89428900D01*
X128161516Y-89422145D01*
X128297905Y-89371015D01*
X128414461Y-89283661D01*
X128501815Y-89167105D01*
X128550050Y-89038438D01*
X135971812Y-89038438D01*
X135984375Y-89230104D01*
X135986176Y-89241474D01*
X136033457Y-89427643D01*
X136037298Y-89438490D01*
X136117716Y-89612930D01*
X136123464Y-89622886D01*
X136129588Y-89631551D01*
X136140177Y-89639940D01*
X136153476Y-89632913D01*
X136711779Y-89074611D01*
X136718156Y-89062932D01*
X137448208Y-89062932D01*
X137448339Y-89064766D01*
X137452590Y-89071380D01*
X138014039Y-89632828D01*
X138026414Y-89639585D01*
X138032994Y-89634659D01*
X138097526Y-89519428D01*
X138102200Y-89508931D01*
X138163944Y-89327040D01*
X138166632Y-89315845D01*
X138194489Y-89123711D01*
X138195119Y-89116328D01*
X138196450Y-89065504D01*
X138196207Y-89058105D01*
X138178443Y-88864775D01*
X138176345Y-88853454D01*
X138124208Y-88668591D01*
X138120083Y-88657844D01*
X138035963Y-88487265D01*
X138028669Y-88481790D01*
X138016249Y-88488562D01*
X137455821Y-89048989D01*
X137448208Y-89062932D01*
X136718156Y-89062932D01*
X136719392Y-89060668D01*
X136719261Y-89058834D01*
X136715010Y-89052220D01*
X136152338Y-88489549D01*
X136139963Y-88482792D01*
X136133997Y-88487258D01*
X136058445Y-88630858D01*
X136054042Y-88641491D01*
X135997081Y-88824932D01*
X135994691Y-88836176D01*
X135972113Y-89026937D01*
X135971812Y-89038438D01*
X128550050Y-89038438D01*
X128552945Y-89030716D01*
X128559700Y-88968534D01*
X128559700Y-87904900D01*
X128579702Y-87836779D01*
X128633358Y-87790286D01*
X128685700Y-87778900D01*
X136179998Y-87778900D01*
X136248119Y-87798902D01*
X136267919Y-87814645D01*
X136383210Y-87926957D01*
X136388006Y-87930162D01*
X136388014Y-87930168D01*
X136454921Y-87974873D01*
X136500449Y-88029349D01*
X136508945Y-88101862D01*
X136505905Y-88118830D01*
X136510075Y-88128864D01*
X137070989Y-88689779D01*
X137084932Y-88697392D01*
X137086766Y-88697261D01*
X137093380Y-88693010D01*
X137654085Y-88132304D01*
X137661696Y-88118366D01*
X137659783Y-88091620D01*
X137674875Y-88022246D01*
X137712985Y-87980023D01*
X137714351Y-87979258D01*
X137719624Y-87974873D01*
X137866548Y-87852677D01*
X137870986Y-87848986D01*
X138001258Y-87692351D01*
X138100804Y-87514599D01*
X138102660Y-87509132D01*
X138102662Y-87509127D01*
X138164434Y-87327152D01*
X138164435Y-87327147D01*
X138166290Y-87321683D01*
X138195523Y-87120063D01*
X138196824Y-87070391D01*
X138218603Y-87002817D01*
X138233686Y-86984595D01*
X141001711Y-84216570D01*
X141016123Y-84204184D01*
X141027718Y-84195651D01*
X141027723Y-84195646D01*
X141033618Y-84191308D01*
X141038357Y-84185730D01*
X141038360Y-84185727D01*
X141067835Y-84151032D01*
X141074765Y-84143516D01*
X141080460Y-84137821D01*
X141098081Y-84115549D01*
X141100872Y-84112145D01*
X141143391Y-84062097D01*
X141143392Y-84062095D01*
X141148133Y-84056515D01*
X141151461Y-84049999D01*
X141154828Y-84044950D01*
X141157995Y-84039821D01*
X141162534Y-84034084D01*
X141193455Y-83967925D01*
X141195361Y-83964025D01*
X141228569Y-83898992D01*
X141230308Y-83891884D01*
X141232407Y-83886241D01*
X141234324Y-83880478D01*
X141237422Y-83873850D01*
X141252287Y-83802383D01*
X141253257Y-83798099D01*
X141269273Y-83732645D01*
X141270608Y-83727190D01*
X141271300Y-83716036D01*
X141271336Y-83716038D01*
X141271575Y-83712045D01*
X141271949Y-83707853D01*
X141273440Y-83700685D01*
X141271346Y-83623279D01*
X141271300Y-83619872D01*
X141271300Y-81217840D01*
X152805663Y-81217840D01*
X152823363Y-81398360D01*
X152880618Y-81570473D01*
X152884265Y-81576495D01*
X152884266Y-81576497D01*
X152961691Y-81704341D01*
X152974580Y-81725624D01*
X152979469Y-81730687D01*
X152979470Y-81730688D01*
X153056321Y-81810268D01*
X153100582Y-81856102D01*
X153252359Y-81955422D01*
X153258963Y-81957878D01*
X153258965Y-81957879D01*
X153415758Y-82016190D01*
X153415760Y-82016190D01*
X153422368Y-82018648D01*
X153506195Y-82029833D01*
X153595180Y-82041707D01*
X153595184Y-82041707D01*
X153602161Y-82042638D01*
X153609172Y-82042000D01*
X153609176Y-82042000D01*
X153751659Y-82029032D01*
X153782800Y-82026198D01*
X153789502Y-82024020D01*
X153789504Y-82024020D01*
X153948609Y-81972324D01*
X153948612Y-81972323D01*
X153955308Y-81970147D01*
X154111112Y-81877269D01*
X154242466Y-81752182D01*
X154342843Y-81601102D01*
X154407255Y-81431538D01*
X154410979Y-81405044D01*
X154416839Y-81363345D01*
X154446127Y-81298671D01*
X154452518Y-81291786D01*
X154484899Y-81259405D01*
X154547211Y-81225379D01*
X154573994Y-81222500D01*
X159504237Y-81222500D01*
X159572358Y-81242502D01*
X159618851Y-81296158D01*
X159629636Y-81336205D01*
X159630563Y-81345660D01*
X159687818Y-81517773D01*
X159691465Y-81523795D01*
X159691466Y-81523797D01*
X159734294Y-81594514D01*
X159781780Y-81672924D01*
X159786669Y-81677987D01*
X159786670Y-81677988D01*
X159837562Y-81730688D01*
X159907782Y-81803402D01*
X160059559Y-81902722D01*
X160066163Y-81905178D01*
X160066165Y-81905179D01*
X160222958Y-81963490D01*
X160222960Y-81963490D01*
X160229568Y-81965948D01*
X160313395Y-81977133D01*
X160402380Y-81989007D01*
X160402384Y-81989007D01*
X160409361Y-81989938D01*
X160416372Y-81989300D01*
X160416376Y-81989300D01*
X160558859Y-81976332D01*
X160590000Y-81973498D01*
X160596702Y-81971320D01*
X160596704Y-81971320D01*
X160755809Y-81919624D01*
X160755812Y-81919623D01*
X160762508Y-81917447D01*
X160918312Y-81824569D01*
X161049666Y-81699482D01*
X161150043Y-81548402D01*
X161214455Y-81378838D01*
X161215435Y-81371866D01*
X161239148Y-81203139D01*
X161239148Y-81203136D01*
X161239699Y-81199217D01*
X161240016Y-81176500D01*
X161219797Y-80996245D01*
X161160145Y-80824948D01*
X161064026Y-80671124D01*
X161059064Y-80666127D01*
X160941178Y-80547415D01*
X160941174Y-80547412D01*
X160936215Y-80542418D01*
X160783066Y-80445227D01*
X160728896Y-80425938D01*
X160618825Y-80386743D01*
X160618820Y-80386742D01*
X160612190Y-80384381D01*
X160605202Y-80383548D01*
X160605199Y-80383547D01*
X160562408Y-80378445D01*
X160497134Y-80350518D01*
X160488231Y-80342426D01*
X160342552Y-80196747D01*
X160335012Y-80188461D01*
X160330900Y-80181982D01*
X160281248Y-80135356D01*
X160278407Y-80132602D01*
X160258670Y-80112865D01*
X160255473Y-80110385D01*
X160246451Y-80102680D01*
X160242297Y-80098779D01*
X160214221Y-80072414D01*
X160207275Y-80068595D01*
X160207272Y-80068593D01*
X160196466Y-80062652D01*
X160179947Y-80051801D01*
X160179483Y-80051441D01*
X160163941Y-80039386D01*
X160156672Y-80036241D01*
X160156668Y-80036238D01*
X160123363Y-80021826D01*
X160112713Y-80016609D01*
X160073960Y-79995305D01*
X160054337Y-79990267D01*
X160035634Y-79983863D01*
X160024320Y-79978967D01*
X160024319Y-79978967D01*
X160017045Y-79975819D01*
X160009222Y-79974580D01*
X160009212Y-79974577D01*
X159973376Y-79968901D01*
X159961756Y-79966495D01*
X159926611Y-79957472D01*
X159926610Y-79957472D01*
X159918930Y-79955500D01*
X159898676Y-79955500D01*
X159878965Y-79953949D01*
X159866786Y-79952020D01*
X159858957Y-79950780D01*
X159829686Y-79953547D01*
X159814939Y-79954941D01*
X159803081Y-79955500D01*
X154338168Y-79955500D01*
X154326985Y-79954973D01*
X154319492Y-79953298D01*
X154311566Y-79953547D01*
X154311565Y-79953547D01*
X154251402Y-79955438D01*
X154247444Y-79955500D01*
X154219544Y-79955500D01*
X154215554Y-79956004D01*
X154203720Y-79956936D01*
X154159511Y-79958326D01*
X154151895Y-79960539D01*
X154151893Y-79960539D01*
X154140052Y-79963979D01*
X154120693Y-79967988D01*
X154119383Y-79968154D01*
X154100603Y-79970526D01*
X154093237Y-79973442D01*
X154093231Y-79973444D01*
X154059498Y-79986800D01*
X154048268Y-79990645D01*
X154032228Y-79995305D01*
X154005807Y-80002981D01*
X153998984Y-80007016D01*
X153988366Y-80013295D01*
X153970613Y-80021992D01*
X153962968Y-80025019D01*
X153951783Y-80029448D01*
X153938105Y-80039386D01*
X153916012Y-80055437D01*
X153906095Y-80061951D01*
X153868038Y-80084458D01*
X153853717Y-80098779D01*
X153838684Y-80111619D01*
X153822293Y-80123528D01*
X153795916Y-80155413D01*
X153794112Y-80157593D01*
X153786122Y-80166374D01*
X153558107Y-80394388D01*
X153495795Y-80428413D01*
X153482183Y-80430602D01*
X153451488Y-80433828D01*
X153451486Y-80433828D01*
X153444488Y-80434564D01*
X153272779Y-80493018D01*
X153266775Y-80496712D01*
X153124295Y-80584366D01*
X153124292Y-80584368D01*
X153118288Y-80588062D01*
X153113253Y-80592993D01*
X153113250Y-80592995D01*
X152993725Y-80710043D01*
X152988693Y-80714971D01*
X152890435Y-80867438D01*
X152888026Y-80874058D01*
X152888024Y-80874061D01*
X152843553Y-80996245D01*
X152828397Y-81037885D01*
X152805663Y-81217840D01*
X141271300Y-81217840D01*
X141271300Y-74585171D01*
X141291302Y-74517050D01*
X141308205Y-74496076D01*
X142466476Y-73337805D01*
X142528788Y-73303779D01*
X142555571Y-73300900D01*
X143798530Y-73300900D01*
X143817480Y-73302333D01*
X143818078Y-73302424D01*
X143831715Y-73304499D01*
X143831719Y-73304499D01*
X143838949Y-73305599D01*
X143846241Y-73305006D01*
X143846244Y-73305006D01*
X143865618Y-73303430D01*
X143889765Y-73304052D01*
X143892382Y-73304107D01*
X143899361Y-73305038D01*
X143906372Y-73304400D01*
X143906376Y-73304400D01*
X144048859Y-73291432D01*
X144080000Y-73288598D01*
X144086702Y-73286420D01*
X144086704Y-73286420D01*
X144179505Y-73256267D01*
X144218441Y-73250100D01*
X145175629Y-73250100D01*
X145243750Y-73270102D01*
X145264724Y-73287005D01*
X147015630Y-75037911D01*
X147028016Y-75052323D01*
X147036549Y-75063918D01*
X147036554Y-75063923D01*
X147040892Y-75069818D01*
X147046470Y-75074557D01*
X147046473Y-75074560D01*
X147081168Y-75104035D01*
X147088684Y-75110965D01*
X147094379Y-75116660D01*
X147097261Y-75118940D01*
X147116651Y-75134281D01*
X147120055Y-75137072D01*
X147170103Y-75179591D01*
X147175685Y-75184333D01*
X147182201Y-75187661D01*
X147187250Y-75191028D01*
X147192379Y-75194195D01*
X147198116Y-75198734D01*
X147264275Y-75229655D01*
X147268169Y-75231558D01*
X147333208Y-75264769D01*
X147340316Y-75266508D01*
X147345959Y-75268607D01*
X147351722Y-75270524D01*
X147358350Y-75273622D01*
X147365512Y-75275112D01*
X147365513Y-75275112D01*
X147429812Y-75288486D01*
X147434096Y-75289456D01*
X147505010Y-75306808D01*
X147510612Y-75307156D01*
X147510615Y-75307156D01*
X147516164Y-75307500D01*
X147516162Y-75307536D01*
X147520155Y-75307775D01*
X147524347Y-75308149D01*
X147531515Y-75309640D01*
X147608920Y-75307546D01*
X147612328Y-75307500D01*
X150217682Y-75307500D01*
X150261602Y-75315403D01*
X150316958Y-75335990D01*
X150316960Y-75335991D01*
X150323568Y-75338448D01*
X150407395Y-75349633D01*
X150496380Y-75361507D01*
X150496384Y-75361507D01*
X150503361Y-75362438D01*
X150510372Y-75361800D01*
X150510376Y-75361800D01*
X150652859Y-75348832D01*
X150684000Y-75345998D01*
X150690702Y-75343820D01*
X150690704Y-75343820D01*
X150783505Y-75313667D01*
X150822441Y-75307500D01*
X157031930Y-75307500D01*
X157050880Y-75308933D01*
X157065115Y-75311099D01*
X157065119Y-75311099D01*
X157072349Y-75312199D01*
X157079641Y-75311606D01*
X157079644Y-75311606D01*
X157125018Y-75307915D01*
X157135233Y-75307500D01*
X157143293Y-75307500D01*
X157160680Y-75305473D01*
X157171507Y-75304211D01*
X157175882Y-75303778D01*
X157241339Y-75298454D01*
X157241342Y-75298453D01*
X157248637Y-75297860D01*
X157255601Y-75295604D01*
X157261560Y-75294413D01*
X157267415Y-75293029D01*
X157274681Y-75292182D01*
X157343327Y-75267265D01*
X157347455Y-75265848D01*
X157409936Y-75245607D01*
X157409938Y-75245606D01*
X157416899Y-75243351D01*
X157423154Y-75239555D01*
X157428628Y-75237049D01*
X157434058Y-75234330D01*
X157440937Y-75231833D01*
X157478966Y-75206900D01*
X157501976Y-75191814D01*
X157505680Y-75189477D01*
X157568107Y-75151595D01*
X157576484Y-75144197D01*
X157576508Y-75144224D01*
X157579500Y-75141571D01*
X157582733Y-75138868D01*
X157588852Y-75134856D01*
X157642128Y-75078617D01*
X157644506Y-75076175D01*
X158110521Y-74610160D01*
X158172833Y-74576134D01*
X158243534Y-74581158D01*
X158299168Y-74601848D01*
X158382995Y-74613033D01*
X158471980Y-74624907D01*
X158471984Y-74624907D01*
X158478961Y-74625838D01*
X158485972Y-74625200D01*
X158485976Y-74625200D01*
X158651227Y-74610160D01*
X158659600Y-74609398D01*
X158666302Y-74607220D01*
X158666304Y-74607220D01*
X158825409Y-74555524D01*
X158825412Y-74555523D01*
X158832108Y-74553347D01*
X158928513Y-74495878D01*
X158981860Y-74464077D01*
X158981862Y-74464076D01*
X158987912Y-74460469D01*
X159119266Y-74335382D01*
X159219643Y-74184302D01*
X159274537Y-74039794D01*
X159281555Y-74021320D01*
X159281556Y-74021318D01*
X159284055Y-74014738D01*
X159294686Y-73939093D01*
X159308748Y-73839039D01*
X159308748Y-73839036D01*
X159309299Y-73835117D01*
X159309616Y-73812400D01*
X159289397Y-73632145D01*
X159229745Y-73460848D01*
X159148646Y-73331061D01*
X159129500Y-73264292D01*
X159129500Y-73133136D01*
X159149502Y-73065015D01*
X159166405Y-73044041D01*
X162608963Y-69601483D01*
X162671275Y-69567457D01*
X162686638Y-69565097D01*
X162799800Y-69554798D01*
X162806502Y-69552620D01*
X162806504Y-69552620D01*
X162965609Y-69500924D01*
X162965612Y-69500923D01*
X162972308Y-69498747D01*
X163128112Y-69405869D01*
X163259466Y-69280782D01*
X163359843Y-69129702D01*
X163424255Y-68960138D01*
X163425841Y-68948851D01*
X163448948Y-68784439D01*
X163448948Y-68784436D01*
X163449499Y-68780517D01*
X163449816Y-68757800D01*
X163429597Y-68577545D01*
X163427280Y-68570891D01*
X163372264Y-68412906D01*
X163372262Y-68412903D01*
X163369945Y-68406248D01*
X163273826Y-68252424D01*
X163218433Y-68196643D01*
X163150978Y-68128715D01*
X163150974Y-68128712D01*
X163146015Y-68123718D01*
X163134897Y-68116662D01*
X163086738Y-68086100D01*
X162992866Y-68026527D01*
X162963663Y-68016128D01*
X162828625Y-67968043D01*
X162828620Y-67968042D01*
X162821990Y-67965681D01*
X162815002Y-67964848D01*
X162814999Y-67964847D01*
X162691898Y-67950168D01*
X162641880Y-67944204D01*
X162634877Y-67944940D01*
X162634876Y-67944940D01*
X162468488Y-67962428D01*
X162468486Y-67962429D01*
X162461488Y-67963164D01*
X162289779Y-68021618D01*
X162283775Y-68025312D01*
X162141295Y-68112966D01*
X162141292Y-68112968D01*
X162135288Y-68116662D01*
X162130253Y-68121593D01*
X162130250Y-68121595D01*
X162056279Y-68194033D01*
X162005693Y-68243571D01*
X161907435Y-68396038D01*
X161905026Y-68402658D01*
X161905024Y-68402661D01*
X161851085Y-68550858D01*
X161821779Y-68596858D01*
X158103747Y-72314890D01*
X158095461Y-72322430D01*
X158088982Y-72326542D01*
X158083557Y-72332319D01*
X158042357Y-72376193D01*
X158039602Y-72379035D01*
X158019865Y-72398772D01*
X158017385Y-72401969D01*
X158009682Y-72410989D01*
X157979414Y-72443221D01*
X157975595Y-72450167D01*
X157975593Y-72450170D01*
X157969652Y-72460976D01*
X157958801Y-72477495D01*
X157946386Y-72493501D01*
X157943241Y-72500770D01*
X157943238Y-72500774D01*
X157928826Y-72534079D01*
X157923609Y-72544729D01*
X157902305Y-72583482D01*
X157900334Y-72591157D01*
X157900334Y-72591158D01*
X157897267Y-72603104D01*
X157890863Y-72621808D01*
X157882819Y-72640397D01*
X157881580Y-72648220D01*
X157881577Y-72648230D01*
X157875901Y-72684066D01*
X157873495Y-72695686D01*
X157862500Y-72738512D01*
X157862500Y-72758766D01*
X157860949Y-72778476D01*
X157857780Y-72798485D01*
X157858526Y-72806377D01*
X157861941Y-72842503D01*
X157862500Y-72854361D01*
X157862500Y-72933013D01*
X157842498Y-73001134D01*
X157788842Y-73047627D01*
X157746716Y-73058598D01*
X157724990Y-73060366D01*
X157685964Y-73063540D01*
X157679003Y-73065795D01*
X157673063Y-73066982D01*
X157667188Y-73068371D01*
X157659919Y-73069218D01*
X157591270Y-73094136D01*
X157587142Y-73095553D01*
X157524664Y-73115793D01*
X157524662Y-73115794D01*
X157517701Y-73118049D01*
X157511446Y-73121845D01*
X157505972Y-73124351D01*
X157500542Y-73127070D01*
X157493663Y-73129567D01*
X157487543Y-73133580D01*
X157487542Y-73133580D01*
X157432624Y-73169586D01*
X157428920Y-73171923D01*
X157366493Y-73209805D01*
X157358116Y-73217203D01*
X157358092Y-73217176D01*
X157355100Y-73219829D01*
X157351867Y-73222532D01*
X157345748Y-73226544D01*
X157340716Y-73231856D01*
X157292472Y-73282783D01*
X157290094Y-73285225D01*
X156821724Y-73753595D01*
X156759412Y-73787621D01*
X156732629Y-73790500D01*
X150822366Y-73790500D01*
X150780099Y-73783199D01*
X150712824Y-73759243D01*
X150712822Y-73759242D01*
X150706190Y-73756881D01*
X150699202Y-73756048D01*
X150699199Y-73756047D01*
X150576098Y-73741368D01*
X150526080Y-73735404D01*
X150519077Y-73736140D01*
X150519076Y-73736140D01*
X150352688Y-73753628D01*
X150352686Y-73753629D01*
X150345688Y-73754364D01*
X150260985Y-73783199D01*
X150259284Y-73783778D01*
X150218679Y-73790500D01*
X147965771Y-73790500D01*
X147897650Y-73770498D01*
X147876676Y-73753595D01*
X146125770Y-72002689D01*
X146113384Y-71988277D01*
X146104851Y-71976682D01*
X146104846Y-71976677D01*
X146100508Y-71970782D01*
X146094930Y-71966043D01*
X146094927Y-71966040D01*
X146060232Y-71936565D01*
X146052716Y-71929635D01*
X146047021Y-71923940D01*
X146040182Y-71918529D01*
X146024749Y-71906319D01*
X146021345Y-71903528D01*
X145971297Y-71861009D01*
X145971295Y-71861008D01*
X145965715Y-71856267D01*
X145959199Y-71852939D01*
X145954150Y-71849572D01*
X145949021Y-71846405D01*
X145943284Y-71841866D01*
X145877125Y-71810945D01*
X145873225Y-71809039D01*
X145808192Y-71775831D01*
X145801084Y-71774092D01*
X145795441Y-71771993D01*
X145789678Y-71770076D01*
X145783050Y-71766978D01*
X145774589Y-71765218D01*
X145727473Y-71755418D01*
X145711583Y-71752113D01*
X145707299Y-71751143D01*
X145636390Y-71733792D01*
X145630788Y-71733444D01*
X145630785Y-71733444D01*
X145625236Y-71733100D01*
X145625238Y-71733064D01*
X145621245Y-71732825D01*
X145617053Y-71732451D01*
X145609885Y-71730960D01*
X145543675Y-71732751D01*
X145532479Y-71733054D01*
X145529072Y-71733100D01*
X144218366Y-71733100D01*
X144176099Y-71725799D01*
X144108824Y-71701843D01*
X144108822Y-71701842D01*
X144102190Y-71699481D01*
X144095202Y-71698648D01*
X144095199Y-71698647D01*
X143952983Y-71681689D01*
X143922080Y-71678004D01*
X143915077Y-71678740D01*
X143915076Y-71678740D01*
X143748688Y-71696228D01*
X143748686Y-71696229D01*
X143741688Y-71696964D01*
X143656985Y-71725799D01*
X143576649Y-71753147D01*
X143576646Y-71753148D01*
X143569979Y-71755418D01*
X143563976Y-71759111D01*
X143563974Y-71759112D01*
X143554048Y-71765218D01*
X143488027Y-71783900D01*
X142491166Y-71783900D01*
X142448899Y-71776599D01*
X142446743Y-71775831D01*
X142403104Y-71760292D01*
X142381624Y-71752643D01*
X142381622Y-71752642D01*
X142374990Y-71750281D01*
X142368002Y-71749448D01*
X142367999Y-71749447D01*
X142230521Y-71733054D01*
X142194880Y-71728804D01*
X142187877Y-71729540D01*
X142187876Y-71729540D01*
X142021488Y-71747028D01*
X142021486Y-71747029D01*
X142014488Y-71747764D01*
X141842779Y-71806218D01*
X141789865Y-71838771D01*
X141694295Y-71897566D01*
X141694292Y-71897568D01*
X141688288Y-71901262D01*
X141683253Y-71906193D01*
X141683250Y-71906195D01*
X141599431Y-71988277D01*
X141558693Y-72028171D01*
X141460435Y-72180638D01*
X141458025Y-72187260D01*
X141454892Y-72193570D01*
X141453221Y-72192740D01*
X141430469Y-72228450D01*
X140023889Y-73635030D01*
X140009477Y-73647416D01*
X139997882Y-73655949D01*
X139997877Y-73655954D01*
X139991982Y-73660292D01*
X139987243Y-73665870D01*
X139987240Y-73665873D01*
X139957765Y-73700568D01*
X139950835Y-73708084D01*
X139945140Y-73713779D01*
X139942860Y-73716661D01*
X139927519Y-73736051D01*
X139924728Y-73739456D01*
X139899219Y-73769481D01*
X139839869Y-73808445D01*
X139803195Y-73813900D01*
X137808938Y-73813900D01*
X137741424Y-73794285D01*
X137677306Y-73753595D01*
X137618266Y-73716127D01*
X137541989Y-73688966D01*
X137454025Y-73657643D01*
X137454020Y-73657642D01*
X137447390Y-73655281D01*
X137440402Y-73654448D01*
X137440399Y-73654447D01*
X137312062Y-73639144D01*
X137267280Y-73633804D01*
X137260277Y-73634540D01*
X137260276Y-73634540D01*
X137093888Y-73652028D01*
X137093886Y-73652029D01*
X137086888Y-73652764D01*
X136915179Y-73711218D01*
X136874814Y-73736051D01*
X136766695Y-73802566D01*
X136766692Y-73802568D01*
X136760688Y-73806262D01*
X136755653Y-73811193D01*
X136755650Y-73811195D01*
X136752888Y-73813900D01*
X136631093Y-73933171D01*
X136532835Y-74085638D01*
X136530424Y-74092262D01*
X136530423Y-74092264D01*
X136523757Y-74110579D01*
X136481663Y-74167751D01*
X136415342Y-74193089D01*
X136345850Y-74178548D01*
X136316261Y-74156580D01*
X127144470Y-64984789D01*
X127110444Y-64922477D01*
X127115509Y-64851662D01*
X127158056Y-64794826D01*
X127178132Y-64782543D01*
X127212337Y-64765786D01*
X127326582Y-64709818D01*
X127330792Y-64706815D01*
X127330797Y-64706812D01*
X127506055Y-64581801D01*
X127506059Y-64581797D01*
X127510267Y-64578796D01*
X127670087Y-64419533D01*
X127786531Y-64257485D01*
X127790970Y-64251307D01*
X127846964Y-64207659D01*
X127917668Y-64201213D01*
X127980632Y-64234016D01*
X128000725Y-64258999D01*
X128047875Y-64335943D01*
X128047879Y-64335948D01*
X128050575Y-64340347D01*
X128198302Y-64510887D01*
X128371899Y-64655010D01*
X128376351Y-64657612D01*
X128376356Y-64657615D01*
X128516307Y-64739396D01*
X128566703Y-64768845D01*
X128777484Y-64849334D01*
X128782552Y-64850365D01*
X128782555Y-64850366D01*
X128830621Y-64860145D01*
X128998581Y-64894317D01*
X129003756Y-64894507D01*
X129003758Y-64894507D01*
X129218892Y-64902396D01*
X129218896Y-64902396D01*
X129224056Y-64902585D01*
X129229176Y-64901929D01*
X129229178Y-64901929D01*
X129298585Y-64893038D01*
X129447853Y-64873916D01*
X129502350Y-64857566D01*
X129573344Y-64857148D01*
X129627652Y-64889156D01*
X129846543Y-65108047D01*
X129854087Y-65116337D01*
X129858200Y-65122818D01*
X129863977Y-65128243D01*
X129907867Y-65169458D01*
X129910709Y-65172213D01*
X129930430Y-65191934D01*
X129933625Y-65194412D01*
X129942647Y-65202118D01*
X129974879Y-65232386D01*
X129981828Y-65236206D01*
X129992632Y-65242146D01*
X130009156Y-65252999D01*
X130025159Y-65265413D01*
X130065743Y-65282976D01*
X130076373Y-65288183D01*
X130115140Y-65309495D01*
X130122817Y-65311466D01*
X130122822Y-65311468D01*
X130134758Y-65314532D01*
X130153466Y-65320937D01*
X130172055Y-65328981D01*
X130179883Y-65330221D01*
X130179890Y-65330223D01*
X130215724Y-65335899D01*
X130227344Y-65338305D01*
X130261410Y-65347051D01*
X130270170Y-65349300D01*
X130290424Y-65349300D01*
X130310134Y-65350851D01*
X130330143Y-65354020D01*
X130338035Y-65353274D01*
X130374161Y-65349859D01*
X130386019Y-65349300D01*
X136279206Y-65349300D01*
X136347327Y-65369302D01*
X136368301Y-65386205D01*
X141367550Y-70385455D01*
X141401576Y-70447767D01*
X141403854Y-70462253D01*
X141406963Y-70493960D01*
X141464218Y-70666073D01*
X141467865Y-70672095D01*
X141467866Y-70672097D01*
X141478778Y-70690114D01*
X141558180Y-70821224D01*
X141684182Y-70951702D01*
X141835959Y-71051022D01*
X141842563Y-71053478D01*
X141842565Y-71053479D01*
X141999358Y-71111790D01*
X141999360Y-71111790D01*
X142005968Y-71114248D01*
X142089795Y-71125433D01*
X142178780Y-71137307D01*
X142178784Y-71137307D01*
X142185761Y-71138238D01*
X142192772Y-71137600D01*
X142192776Y-71137600D01*
X142335259Y-71124632D01*
X142366400Y-71121798D01*
X142373102Y-71119620D01*
X142373104Y-71119620D01*
X142532209Y-71067924D01*
X142532212Y-71067923D01*
X142538908Y-71065747D01*
X142694712Y-70972869D01*
X142826066Y-70847782D01*
X142926443Y-70696702D01*
X142990855Y-70527138D01*
X142991835Y-70520166D01*
X143015548Y-70351439D01*
X143015548Y-70351436D01*
X143016099Y-70347517D01*
X143016416Y-70324800D01*
X142996197Y-70144545D01*
X142993880Y-70137891D01*
X142938864Y-69979906D01*
X142938862Y-69979903D01*
X142936545Y-69973248D01*
X142840426Y-69819424D01*
X142774606Y-69753143D01*
X142717578Y-69695715D01*
X142717574Y-69695712D01*
X142712615Y-69690718D01*
X142559466Y-69593527D01*
X142388590Y-69532681D01*
X142338807Y-69526745D01*
X142273533Y-69498818D01*
X142264630Y-69490726D01*
X140401052Y-67627148D01*
X140367026Y-67564836D01*
X140372091Y-67494021D01*
X140385199Y-67468326D01*
X140443428Y-67380684D01*
X140474443Y-67334002D01*
X140538855Y-67164438D01*
X140555533Y-67045771D01*
X140563548Y-66988739D01*
X140563548Y-66988736D01*
X140564099Y-66984817D01*
X140564416Y-66962100D01*
X140544197Y-66781845D01*
X140484545Y-66610548D01*
X140388426Y-66456724D01*
X140383464Y-66451727D01*
X140265578Y-66333015D01*
X140265574Y-66333012D01*
X140260615Y-66328018D01*
X140107466Y-66230827D01*
X139936590Y-66169981D01*
X139886807Y-66164045D01*
X139821533Y-66136118D01*
X139812630Y-66128026D01*
X138795605Y-65111000D01*
X138761579Y-65048688D01*
X138758700Y-65021905D01*
X138758700Y-64964052D01*
X138778702Y-64895931D01*
X138832358Y-64849438D01*
X138902632Y-64839334D01*
X138929650Y-64846343D01*
X138932647Y-64847487D01*
X138937484Y-64849334D01*
X138942552Y-64850365D01*
X138942555Y-64850366D01*
X138990621Y-64860145D01*
X139158581Y-64894317D01*
X139163756Y-64894507D01*
X139163758Y-64894507D01*
X139378892Y-64902396D01*
X139378896Y-64902396D01*
X139384056Y-64902585D01*
X139389176Y-64901929D01*
X139389178Y-64901929D01*
X139458585Y-64893038D01*
X139607853Y-64873916D01*
X139612802Y-64872431D01*
X139612808Y-64872430D01*
X139819013Y-64810565D01*
X139819012Y-64810565D01*
X139823963Y-64809080D01*
X139974955Y-64735110D01*
X140021931Y-64712097D01*
X140021936Y-64712094D01*
X140026582Y-64709818D01*
X140030792Y-64706815D01*
X140030797Y-64706812D01*
X140206055Y-64581801D01*
X140206059Y-64581797D01*
X140210267Y-64578796D01*
X140370087Y-64419533D01*
X140486531Y-64257485D01*
X140490970Y-64251307D01*
X140546964Y-64207659D01*
X140617668Y-64201213D01*
X140680632Y-64234016D01*
X140700725Y-64258999D01*
X140747875Y-64335943D01*
X140747879Y-64335948D01*
X140750575Y-64340347D01*
X140898302Y-64510887D01*
X141071899Y-64655010D01*
X141076351Y-64657612D01*
X141076356Y-64657615D01*
X141216307Y-64739396D01*
X141266703Y-64768845D01*
X141477484Y-64849334D01*
X141482552Y-64850365D01*
X141482555Y-64850366D01*
X141530621Y-64860145D01*
X141698581Y-64894317D01*
X141703756Y-64894507D01*
X141703758Y-64894507D01*
X141918892Y-64902396D01*
X141918896Y-64902396D01*
X141924056Y-64902585D01*
X141929176Y-64901929D01*
X141929178Y-64901929D01*
X141998585Y-64893038D01*
X142147853Y-64873916D01*
X142152802Y-64872431D01*
X142152808Y-64872430D01*
X142359013Y-64810565D01*
X142359012Y-64810565D01*
X142363963Y-64809080D01*
X142514955Y-64735110D01*
X142561931Y-64712097D01*
X142561936Y-64712094D01*
X142566582Y-64709818D01*
X142570792Y-64706815D01*
X142570797Y-64706812D01*
X142746055Y-64581801D01*
X142746059Y-64581797D01*
X142750267Y-64578796D01*
X142910087Y-64419533D01*
X143026531Y-64257485D01*
X143030970Y-64251307D01*
X143086964Y-64207659D01*
X143157668Y-64201213D01*
X143220632Y-64234016D01*
X143240725Y-64258999D01*
X143287875Y-64335943D01*
X143287879Y-64335948D01*
X143290575Y-64340347D01*
X143438302Y-64510887D01*
X143611899Y-64655010D01*
X143616351Y-64657612D01*
X143616356Y-64657615D01*
X143756307Y-64739396D01*
X143806703Y-64768845D01*
X144017484Y-64849334D01*
X144022552Y-64850365D01*
X144022555Y-64850366D01*
X144070621Y-64860145D01*
X144238581Y-64894317D01*
X144243756Y-64894507D01*
X144243758Y-64894507D01*
X144458892Y-64902396D01*
X144458896Y-64902396D01*
X144464056Y-64902585D01*
X144469176Y-64901929D01*
X144469178Y-64901929D01*
X144538585Y-64893038D01*
X144687853Y-64873916D01*
X144692802Y-64872431D01*
X144692808Y-64872430D01*
X144899013Y-64810565D01*
X144899012Y-64810565D01*
X144903963Y-64809080D01*
X145054955Y-64735110D01*
X145101931Y-64712097D01*
X145101936Y-64712094D01*
X145106582Y-64709818D01*
X145110792Y-64706815D01*
X145110797Y-64706812D01*
X145286055Y-64581801D01*
X145286059Y-64581797D01*
X145290267Y-64578796D01*
X145450087Y-64419533D01*
X145566531Y-64257485D01*
X145570970Y-64251307D01*
X145626964Y-64207659D01*
X145697668Y-64201213D01*
X145760632Y-64234016D01*
X145780725Y-64258999D01*
X145827875Y-64335943D01*
X145827879Y-64335948D01*
X145830575Y-64340347D01*
X145978302Y-64510887D01*
X146151899Y-64655010D01*
X146156351Y-64657612D01*
X146156356Y-64657615D01*
X146296307Y-64739396D01*
X146346703Y-64768845D01*
X146557484Y-64849334D01*
X146562552Y-64850365D01*
X146562555Y-64850366D01*
X146610621Y-64860145D01*
X146778581Y-64894317D01*
X146783756Y-64894507D01*
X146783758Y-64894507D01*
X146998892Y-64902396D01*
X146998896Y-64902396D01*
X147004056Y-64902585D01*
X147009176Y-64901929D01*
X147009178Y-64901929D01*
X147078585Y-64893038D01*
X147227853Y-64873916D01*
X147232802Y-64872431D01*
X147232808Y-64872430D01*
X147439013Y-64810565D01*
X147439012Y-64810565D01*
X147443963Y-64809080D01*
X147594955Y-64735110D01*
X147641931Y-64712097D01*
X147641936Y-64712094D01*
X147646582Y-64709818D01*
X147650792Y-64706815D01*
X147650797Y-64706812D01*
X147826055Y-64581801D01*
X147826059Y-64581797D01*
X147830267Y-64578796D01*
X147990087Y-64419533D01*
X148106531Y-64257485D01*
X148110970Y-64251307D01*
X148166964Y-64207659D01*
X148237668Y-64201213D01*
X148300632Y-64234016D01*
X148320725Y-64258999D01*
X148367875Y-64335943D01*
X148367879Y-64335948D01*
X148370575Y-64340347D01*
X148518302Y-64510887D01*
X148691899Y-64655010D01*
X148696351Y-64657612D01*
X148696356Y-64657615D01*
X148836307Y-64739396D01*
X148886703Y-64768845D01*
X149097484Y-64849334D01*
X149102552Y-64850365D01*
X149102555Y-64850366D01*
X149150621Y-64860145D01*
X149318581Y-64894317D01*
X149323756Y-64894507D01*
X149323758Y-64894507D01*
X149538892Y-64902396D01*
X149538896Y-64902396D01*
X149544056Y-64902585D01*
X149549176Y-64901929D01*
X149549178Y-64901929D01*
X149618585Y-64893038D01*
X149767853Y-64873916D01*
X149772802Y-64872431D01*
X149772808Y-64872430D01*
X149979013Y-64810565D01*
X149979012Y-64810565D01*
X149983963Y-64809080D01*
X150134955Y-64735110D01*
X150181931Y-64712097D01*
X150181936Y-64712094D01*
X150186582Y-64709818D01*
X150190792Y-64706815D01*
X150190797Y-64706812D01*
X150366055Y-64581801D01*
X150366059Y-64581797D01*
X150370267Y-64578796D01*
X150530087Y-64419533D01*
X150651286Y-64250867D01*
X150707280Y-64207219D01*
X150777984Y-64200773D01*
X150840948Y-64233576D01*
X150861041Y-64258558D01*
X150908282Y-64335648D01*
X150914365Y-64343959D01*
X151055265Y-64506617D01*
X151062632Y-64513833D01*
X151228206Y-64651295D01*
X151236653Y-64657210D01*
X151422459Y-64765786D01*
X151431746Y-64770236D01*
X151632798Y-64847010D01*
X151642691Y-64849884D01*
X151749848Y-64871685D01*
X151763900Y-64870490D01*
X151767600Y-64860145D01*
X151767600Y-63399200D01*
X151787602Y-63331079D01*
X151841258Y-63284586D01*
X151893600Y-63273200D01*
X152149600Y-63273200D01*
X152217721Y-63293202D01*
X152264214Y-63346858D01*
X152275600Y-63399200D01*
X152275600Y-64859429D01*
X152279664Y-64873271D01*
X152293079Y-64875305D01*
X152302625Y-64874082D01*
X152312695Y-64871942D01*
X152518825Y-64810100D01*
X152528432Y-64806334D01*
X152721676Y-64711664D01*
X152730534Y-64706385D01*
X152905741Y-64581411D01*
X152913603Y-64574767D01*
X153066045Y-64422856D01*
X153072722Y-64415011D01*
X153190686Y-64250846D01*
X153246681Y-64207198D01*
X153317384Y-64200752D01*
X153380349Y-64233555D01*
X153400442Y-64258537D01*
X153450575Y-64340347D01*
X153598302Y-64510887D01*
X153771899Y-64655010D01*
X153776351Y-64657612D01*
X153776356Y-64657615D01*
X153916307Y-64739396D01*
X153966703Y-64768845D01*
X154177484Y-64849334D01*
X154182552Y-64850365D01*
X154182555Y-64850366D01*
X154230621Y-64860145D01*
X154398581Y-64894317D01*
X154403756Y-64894507D01*
X154403758Y-64894507D01*
X154618892Y-64902396D01*
X154618896Y-64902396D01*
X154624056Y-64902585D01*
X154629176Y-64901929D01*
X154629178Y-64901929D01*
X154698585Y-64893038D01*
X154847853Y-64873916D01*
X154852802Y-64872431D01*
X154852808Y-64872430D01*
X155059013Y-64810565D01*
X155059012Y-64810565D01*
X155063963Y-64809080D01*
X155214955Y-64735110D01*
X155261931Y-64712097D01*
X155261936Y-64712094D01*
X155266582Y-64709818D01*
X155270792Y-64706815D01*
X155270797Y-64706812D01*
X155446055Y-64581801D01*
X155446059Y-64581797D01*
X155450267Y-64578796D01*
X155610087Y-64419533D01*
X155726531Y-64257485D01*
X155730970Y-64251307D01*
X155786964Y-64207659D01*
X155857668Y-64201213D01*
X155920632Y-64234016D01*
X155940725Y-64258999D01*
X155987875Y-64335943D01*
X155987879Y-64335948D01*
X155990575Y-64340347D01*
X156138302Y-64510887D01*
X156311899Y-64655010D01*
X156316351Y-64657612D01*
X156316356Y-64657615D01*
X156456307Y-64739396D01*
X156506703Y-64768845D01*
X156717484Y-64849334D01*
X156722552Y-64850365D01*
X156722555Y-64850366D01*
X156770621Y-64860145D01*
X156938581Y-64894317D01*
X156943756Y-64894507D01*
X156943758Y-64894507D01*
X157158892Y-64902396D01*
X157158896Y-64902396D01*
X157164056Y-64902585D01*
X157169176Y-64901929D01*
X157169178Y-64901929D01*
X157238585Y-64893038D01*
X157387853Y-64873916D01*
X157392802Y-64872431D01*
X157392808Y-64872430D01*
X157599013Y-64810565D01*
X157599012Y-64810565D01*
X157603963Y-64809080D01*
X157754955Y-64735110D01*
X157801931Y-64712097D01*
X157801936Y-64712094D01*
X157806582Y-64709818D01*
X157810792Y-64706815D01*
X157810797Y-64706812D01*
X157986055Y-64581801D01*
X157986059Y-64581797D01*
X157990267Y-64578796D01*
X158150087Y-64419533D01*
X158266531Y-64257485D01*
X158270970Y-64251307D01*
X158326964Y-64207659D01*
X158397668Y-64201213D01*
X158460632Y-64234016D01*
X158480725Y-64258999D01*
X158527875Y-64335943D01*
X158527879Y-64335948D01*
X158530575Y-64340347D01*
X158678302Y-64510887D01*
X158851899Y-64655010D01*
X158856351Y-64657612D01*
X158856356Y-64657615D01*
X158996307Y-64739396D01*
X159046703Y-64768845D01*
X159257484Y-64849334D01*
X159262552Y-64850365D01*
X159262555Y-64850366D01*
X159310621Y-64860145D01*
X159478581Y-64894317D01*
X159483756Y-64894507D01*
X159483758Y-64894507D01*
X159698892Y-64902396D01*
X159698896Y-64902396D01*
X159704056Y-64902585D01*
X159709176Y-64901929D01*
X159709178Y-64901929D01*
X159778585Y-64893038D01*
X159927853Y-64873916D01*
X159932802Y-64872431D01*
X159932808Y-64872430D01*
X160139013Y-64810565D01*
X160139012Y-64810565D01*
X160143963Y-64809080D01*
X160294955Y-64735110D01*
X160341931Y-64712097D01*
X160341936Y-64712094D01*
X160346582Y-64709818D01*
X160350792Y-64706815D01*
X160350797Y-64706812D01*
X160526055Y-64581801D01*
X160526059Y-64581797D01*
X160530267Y-64578796D01*
X160690087Y-64419533D01*
X160806531Y-64257485D01*
X160810970Y-64251307D01*
X160866964Y-64207659D01*
X160937668Y-64201213D01*
X161000632Y-64234016D01*
X161020725Y-64258999D01*
X161067875Y-64335943D01*
X161067879Y-64335948D01*
X161070575Y-64340347D01*
X161218302Y-64510887D01*
X161391899Y-64655010D01*
X161396351Y-64657612D01*
X161396356Y-64657615D01*
X161536307Y-64739396D01*
X161586703Y-64768845D01*
X161797484Y-64849334D01*
X161802552Y-64850365D01*
X161802555Y-64850366D01*
X161850621Y-64860145D01*
X162018581Y-64894317D01*
X162023756Y-64894507D01*
X162023758Y-64894507D01*
X162238892Y-64902396D01*
X162238896Y-64902396D01*
X162244056Y-64902585D01*
X162249176Y-64901929D01*
X162249178Y-64901929D01*
X162318585Y-64893038D01*
X162467853Y-64873916D01*
X162472802Y-64872431D01*
X162472808Y-64872430D01*
X162679013Y-64810565D01*
X162679012Y-64810565D01*
X162683963Y-64809080D01*
X162834955Y-64735110D01*
X162881931Y-64712097D01*
X162881936Y-64712094D01*
X162886582Y-64709818D01*
X162890792Y-64706815D01*
X162890797Y-64706812D01*
X163066055Y-64581801D01*
X163066059Y-64581797D01*
X163070267Y-64578796D01*
X163230087Y-64419533D01*
X163346531Y-64257485D01*
X163350970Y-64251307D01*
X163406964Y-64207659D01*
X163477668Y-64201213D01*
X163540632Y-64234016D01*
X163560725Y-64258999D01*
X163607875Y-64335943D01*
X163607879Y-64335948D01*
X163610575Y-64340347D01*
X163758302Y-64510887D01*
X163931899Y-64655010D01*
X163936351Y-64657612D01*
X163936356Y-64657615D01*
X164076307Y-64739396D01*
X164126703Y-64768845D01*
X164337484Y-64849334D01*
X164342552Y-64850365D01*
X164342555Y-64850366D01*
X164390621Y-64860145D01*
X164558581Y-64894317D01*
X164563756Y-64894507D01*
X164563758Y-64894507D01*
X164778892Y-64902396D01*
X164778896Y-64902396D01*
X164784056Y-64902585D01*
X164789176Y-64901929D01*
X164789178Y-64901929D01*
X164858585Y-64893038D01*
X165007853Y-64873916D01*
X165012802Y-64872431D01*
X165012808Y-64872430D01*
X165219013Y-64810565D01*
X165219012Y-64810565D01*
X165223963Y-64809080D01*
X165374955Y-64735110D01*
X165421931Y-64712097D01*
X165421936Y-64712094D01*
X165426582Y-64709818D01*
X165430792Y-64706815D01*
X165430797Y-64706812D01*
X165606055Y-64581801D01*
X165606059Y-64581797D01*
X165610267Y-64578796D01*
X165770087Y-64419533D01*
X165886531Y-64257485D01*
X165890970Y-64251307D01*
X165946964Y-64207659D01*
X166017668Y-64201213D01*
X166080632Y-64234016D01*
X166100725Y-64258999D01*
X166147875Y-64335943D01*
X166147879Y-64335948D01*
X166150575Y-64340347D01*
X166298302Y-64510887D01*
X166471899Y-64655010D01*
X166476351Y-64657612D01*
X166476356Y-64657615D01*
X166616307Y-64739396D01*
X166666703Y-64768845D01*
X166877484Y-64849334D01*
X166882552Y-64850365D01*
X166882555Y-64850366D01*
X166930621Y-64860145D01*
X167098581Y-64894317D01*
X167103756Y-64894507D01*
X167103758Y-64894507D01*
X167318892Y-64902396D01*
X167318896Y-64902396D01*
X167324056Y-64902585D01*
X167329176Y-64901929D01*
X167329178Y-64901929D01*
X167398585Y-64893038D01*
X167547853Y-64873916D01*
X167552802Y-64872431D01*
X167552808Y-64872430D01*
X167759013Y-64810565D01*
X167759012Y-64810565D01*
X167763963Y-64809080D01*
X167914955Y-64735110D01*
X167961931Y-64712097D01*
X167961936Y-64712094D01*
X167966582Y-64709818D01*
X167970792Y-64706815D01*
X167970797Y-64706812D01*
X168146055Y-64581801D01*
X168146059Y-64581797D01*
X168150267Y-64578796D01*
X168310087Y-64419533D01*
X168431286Y-64250867D01*
X168487280Y-64207219D01*
X168557984Y-64200773D01*
X168620948Y-64233576D01*
X168641041Y-64258558D01*
X168688282Y-64335648D01*
X168694365Y-64343959D01*
X168835265Y-64506617D01*
X168842632Y-64513833D01*
X169008206Y-64651295D01*
X169016653Y-64657210D01*
X169202459Y-64765786D01*
X169211746Y-64770236D01*
X169412798Y-64847010D01*
X169422691Y-64849884D01*
X169529848Y-64871685D01*
X169543900Y-64870490D01*
X169547600Y-64860145D01*
X169547600Y-64859429D01*
X170055600Y-64859429D01*
X170059664Y-64873271D01*
X170073079Y-64875305D01*
X170082625Y-64874082D01*
X170092695Y-64871942D01*
X170298825Y-64810100D01*
X170308432Y-64806334D01*
X170501676Y-64711664D01*
X170510534Y-64706385D01*
X170685741Y-64581411D01*
X170693603Y-64574767D01*
X170846045Y-64422856D01*
X170852722Y-64415011D01*
X170978302Y-64240247D01*
X170983613Y-64231408D01*
X171078958Y-64038492D01*
X171082756Y-64028899D01*
X171145316Y-63822991D01*
X171147493Y-63812921D01*
X171149305Y-63799160D01*
X171147093Y-63784978D01*
X171133936Y-63781200D01*
X170073715Y-63781200D01*
X170058476Y-63785675D01*
X170057271Y-63787065D01*
X170055600Y-63794748D01*
X170055600Y-64859429D01*
X169547600Y-64859429D01*
X169547600Y-63399200D01*
X169567602Y-63331079D01*
X169621258Y-63284586D01*
X169673600Y-63273200D01*
X171133967Y-63273200D01*
X171147498Y-63269227D01*
X171148803Y-63260147D01*
X171105733Y-63088677D01*
X171102413Y-63078926D01*
X171016599Y-62881565D01*
X171011733Y-62872490D01*
X170894839Y-62691801D01*
X170888547Y-62683630D01*
X170743713Y-62524460D01*
X170736180Y-62517434D01*
X170567291Y-62384055D01*
X170558704Y-62378350D01*
X170539682Y-62367849D01*
X170489711Y-62317416D01*
X170474940Y-62247973D01*
X170500057Y-62181568D01*
X170527401Y-62154968D01*
X170690267Y-62038796D01*
X170850087Y-61879533D01*
X170981750Y-61696305D01*
X171081718Y-61494035D01*
X171126969Y-61345097D01*
X171145806Y-61283096D01*
X171145806Y-61283095D01*
X171147308Y-61278152D01*
X171148583Y-61268467D01*
X171176321Y-61057778D01*
X171176322Y-61057772D01*
X171176758Y-61054456D01*
X171178402Y-60987200D01*
X171159915Y-60762332D01*
X171104949Y-60543504D01*
X171014980Y-60336591D01*
X170965513Y-60260126D01*
X170895234Y-60151491D01*
X170895232Y-60151488D01*
X170892426Y-60147151D01*
X170740577Y-59980271D01*
X170736526Y-59977072D01*
X170736522Y-59977068D01*
X170567566Y-59843634D01*
X170567562Y-59843632D01*
X170563511Y-59840432D01*
X170365983Y-59731391D01*
X170153298Y-59656076D01*
X170124395Y-59650927D01*
X169936257Y-59617414D01*
X169936253Y-59617414D01*
X169931169Y-59616508D01*
X169859174Y-59615629D01*
X169710729Y-59613815D01*
X169710727Y-59613815D01*
X169705559Y-59613752D01*
X169482529Y-59647880D01*
X169268068Y-59717977D01*
X169263476Y-59720367D01*
X169263477Y-59720367D01*
X169158521Y-59775004D01*
X169067935Y-59822160D01*
X169063802Y-59825263D01*
X169063799Y-59825265D01*
X168947032Y-59912936D01*
X168887505Y-59957630D01*
X168883933Y-59961368D01*
X168758314Y-60092821D01*
X168731624Y-60120750D01*
X168728712Y-60125019D01*
X168728706Y-60125027D01*
X168635103Y-60262243D01*
X168580192Y-60307246D01*
X168509667Y-60315417D01*
X168445920Y-60284163D01*
X168425223Y-60259679D01*
X168398718Y-60218707D01*
X168367945Y-60171139D01*
X168355234Y-60151491D01*
X168355232Y-60151488D01*
X168352426Y-60147151D01*
X168200577Y-59980271D01*
X168196526Y-59977072D01*
X168196522Y-59977068D01*
X168027566Y-59843634D01*
X168027562Y-59843632D01*
X168023511Y-59840432D01*
X167825983Y-59731391D01*
X167613298Y-59656076D01*
X167584395Y-59650927D01*
X167396257Y-59617414D01*
X167396253Y-59617414D01*
X167391169Y-59616508D01*
X167319174Y-59615629D01*
X167170729Y-59613815D01*
X167170727Y-59613815D01*
X167165559Y-59613752D01*
X166942529Y-59647880D01*
X166728068Y-59717977D01*
X166723476Y-59720367D01*
X166723477Y-59720367D01*
X166618521Y-59775004D01*
X166527935Y-59822160D01*
X166523802Y-59825263D01*
X166523799Y-59825265D01*
X166407032Y-59912936D01*
X166347505Y-59957630D01*
X166343933Y-59961368D01*
X166218314Y-60092821D01*
X166191624Y-60120750D01*
X166188712Y-60125019D01*
X166188706Y-60125027D01*
X166095103Y-60262243D01*
X166040192Y-60307246D01*
X165969667Y-60315417D01*
X165905920Y-60284163D01*
X165885223Y-60259679D01*
X165858718Y-60218707D01*
X165827945Y-60171139D01*
X165815234Y-60151491D01*
X165815232Y-60151488D01*
X165812426Y-60147151D01*
X165660577Y-59980271D01*
X165656526Y-59977072D01*
X165656522Y-59977068D01*
X165487566Y-59843634D01*
X165487562Y-59843632D01*
X165483511Y-59840432D01*
X165285983Y-59731391D01*
X165073298Y-59656076D01*
X165044395Y-59650927D01*
X164856257Y-59617414D01*
X164856253Y-59617414D01*
X164851169Y-59616508D01*
X164779174Y-59615629D01*
X164630729Y-59613815D01*
X164630727Y-59613815D01*
X164625559Y-59613752D01*
X164402529Y-59647880D01*
X164188068Y-59717977D01*
X164183476Y-59720367D01*
X164183477Y-59720367D01*
X164078521Y-59775004D01*
X163987935Y-59822160D01*
X163983802Y-59825263D01*
X163983799Y-59825265D01*
X163867032Y-59912936D01*
X163807505Y-59957630D01*
X163803933Y-59961368D01*
X163678314Y-60092821D01*
X163651624Y-60120750D01*
X163648712Y-60125019D01*
X163648706Y-60125027D01*
X163554798Y-60262690D01*
X163499887Y-60307693D01*
X163429362Y-60315864D01*
X163365615Y-60284610D01*
X163344918Y-60260126D01*
X163274839Y-60151801D01*
X163268547Y-60143630D01*
X163123713Y-59984460D01*
X163116180Y-59977434D01*
X162947291Y-59844055D01*
X162938704Y-59838350D01*
X162750311Y-59734351D01*
X162740899Y-59730121D01*
X162538045Y-59658286D01*
X162528074Y-59655652D01*
X162453437Y-59642357D01*
X162440140Y-59643817D01*
X162435600Y-59658374D01*
X162435600Y-61115200D01*
X162415598Y-61183321D01*
X162361942Y-61229814D01*
X162309600Y-61241200D01*
X162053600Y-61241200D01*
X161985479Y-61221198D01*
X161938986Y-61167542D01*
X161927600Y-61115200D01*
X161927600Y-59656543D01*
X161923682Y-59643199D01*
X161909406Y-59641212D01*
X161867761Y-59647585D01*
X161857725Y-59649976D01*
X161653176Y-59716833D01*
X161643679Y-59720825D01*
X161452789Y-59820195D01*
X161444064Y-59825690D01*
X161271973Y-59954900D01*
X161264266Y-59961743D01*
X161115584Y-60117329D01*
X161109098Y-60125339D01*
X161015398Y-60262698D01*
X160960487Y-60307701D01*
X160889962Y-60315872D01*
X160826215Y-60284618D01*
X160805518Y-60260134D01*
X160735234Y-60151491D01*
X160735232Y-60151488D01*
X160732426Y-60147151D01*
X160580577Y-59980271D01*
X160576526Y-59977072D01*
X160576522Y-59977068D01*
X160407566Y-59843634D01*
X160407562Y-59843632D01*
X160403511Y-59840432D01*
X160205983Y-59731391D01*
X159993298Y-59656076D01*
X159964395Y-59650927D01*
X159776257Y-59617414D01*
X159776253Y-59617414D01*
X159771169Y-59616508D01*
X159699174Y-59615629D01*
X159550729Y-59613815D01*
X159550727Y-59613815D01*
X159545559Y-59613752D01*
X159322529Y-59647880D01*
X159108068Y-59717977D01*
X159103476Y-59720367D01*
X159103477Y-59720367D01*
X158998521Y-59775004D01*
X158907935Y-59822160D01*
X158903802Y-59825263D01*
X158903799Y-59825265D01*
X158787032Y-59912936D01*
X158727505Y-59957630D01*
X158723933Y-59961368D01*
X158598314Y-60092821D01*
X158571624Y-60120750D01*
X158568712Y-60125019D01*
X158568706Y-60125027D01*
X158474798Y-60262690D01*
X158419887Y-60307693D01*
X158349362Y-60315864D01*
X158285615Y-60284610D01*
X158264918Y-60260126D01*
X158194839Y-60151801D01*
X158188547Y-60143630D01*
X158043713Y-59984460D01*
X158036180Y-59977434D01*
X157867291Y-59844055D01*
X157858704Y-59838350D01*
X157670311Y-59734351D01*
X157660899Y-59730121D01*
X157458045Y-59658286D01*
X157448074Y-59655652D01*
X157373437Y-59642357D01*
X157360140Y-59643817D01*
X157355600Y-59658374D01*
X157355600Y-61115200D01*
X157335598Y-61183321D01*
X157281942Y-61229814D01*
X157229600Y-61241200D01*
X156973600Y-61241200D01*
X156905479Y-61221198D01*
X156858986Y-61167542D01*
X156847600Y-61115200D01*
X156847600Y-59656543D01*
X156843682Y-59643199D01*
X156829406Y-59641212D01*
X156787761Y-59647585D01*
X156777725Y-59649976D01*
X156573176Y-59716833D01*
X156563679Y-59720825D01*
X156372789Y-59820195D01*
X156364064Y-59825690D01*
X156191973Y-59954900D01*
X156184266Y-59961743D01*
X156035584Y-60117329D01*
X156029098Y-60125339D01*
X155935398Y-60262698D01*
X155880487Y-60307701D01*
X155809962Y-60315872D01*
X155746215Y-60284618D01*
X155725518Y-60260134D01*
X155655234Y-60151491D01*
X155655232Y-60151488D01*
X155652426Y-60147151D01*
X155500577Y-59980271D01*
X155496526Y-59977072D01*
X155496522Y-59977068D01*
X155327566Y-59843634D01*
X155327562Y-59843632D01*
X155323511Y-59840432D01*
X155125983Y-59731391D01*
X154913298Y-59656076D01*
X154884395Y-59650927D01*
X154696257Y-59617414D01*
X154696253Y-59617414D01*
X154691169Y-59616508D01*
X154619174Y-59615629D01*
X154470729Y-59613815D01*
X154470727Y-59613815D01*
X154465559Y-59613752D01*
X154242529Y-59647880D01*
X154028068Y-59717977D01*
X154023476Y-59720367D01*
X154023477Y-59720367D01*
X153918521Y-59775004D01*
X153827935Y-59822160D01*
X153823802Y-59825263D01*
X153823799Y-59825265D01*
X153707032Y-59912936D01*
X153647505Y-59957630D01*
X153643933Y-59961368D01*
X153518314Y-60092821D01*
X153491624Y-60120750D01*
X153488712Y-60125019D01*
X153488706Y-60125027D01*
X153395103Y-60262243D01*
X153340192Y-60307246D01*
X153269667Y-60315417D01*
X153205920Y-60284163D01*
X153185223Y-60259679D01*
X153158718Y-60218707D01*
X153127945Y-60171139D01*
X153115234Y-60151491D01*
X153115232Y-60151488D01*
X153112426Y-60147151D01*
X152960577Y-59980271D01*
X152956526Y-59977072D01*
X152956522Y-59977068D01*
X152787566Y-59843634D01*
X152787562Y-59843632D01*
X152783511Y-59840432D01*
X152585983Y-59731391D01*
X152373298Y-59656076D01*
X152344395Y-59650927D01*
X152156257Y-59617414D01*
X152156253Y-59617414D01*
X152151169Y-59616508D01*
X152079174Y-59615629D01*
X151930729Y-59613815D01*
X151930727Y-59613815D01*
X151925559Y-59613752D01*
X151702529Y-59647880D01*
X151488068Y-59717977D01*
X151483476Y-59720367D01*
X151483477Y-59720367D01*
X151378521Y-59775004D01*
X151287935Y-59822160D01*
X151283802Y-59825263D01*
X151283799Y-59825265D01*
X151167032Y-59912936D01*
X151107505Y-59957630D01*
X151103933Y-59961368D01*
X150978314Y-60092821D01*
X150951624Y-60120750D01*
X150948712Y-60125019D01*
X150948706Y-60125027D01*
X150855103Y-60262243D01*
X150800192Y-60307246D01*
X150729667Y-60315417D01*
X150665920Y-60284163D01*
X150645223Y-60259679D01*
X150618718Y-60218707D01*
X150587945Y-60171139D01*
X150575234Y-60151491D01*
X150575232Y-60151488D01*
X150572426Y-60147151D01*
X150420577Y-59980271D01*
X150416526Y-59977072D01*
X150416522Y-59977068D01*
X150247566Y-59843634D01*
X150247562Y-59843632D01*
X150243511Y-59840432D01*
X150045983Y-59731391D01*
X149833298Y-59656076D01*
X149804395Y-59650927D01*
X149616257Y-59617414D01*
X149616253Y-59617414D01*
X149611169Y-59616508D01*
X149539174Y-59615629D01*
X149390729Y-59613815D01*
X149390727Y-59613815D01*
X149385559Y-59613752D01*
X149162529Y-59647880D01*
X148948068Y-59717977D01*
X148943476Y-59720367D01*
X148943477Y-59720367D01*
X148838521Y-59775004D01*
X148747935Y-59822160D01*
X148743802Y-59825263D01*
X148743799Y-59825265D01*
X148627032Y-59912936D01*
X148567505Y-59957630D01*
X148563933Y-59961368D01*
X148438314Y-60092821D01*
X148411624Y-60120750D01*
X148408712Y-60125019D01*
X148408706Y-60125027D01*
X148315103Y-60262243D01*
X148260192Y-60307246D01*
X148189667Y-60315417D01*
X148125920Y-60284163D01*
X148105223Y-60259679D01*
X148078718Y-60218707D01*
X148047945Y-60171139D01*
X148035234Y-60151491D01*
X148035232Y-60151488D01*
X148032426Y-60147151D01*
X147880577Y-59980271D01*
X147876526Y-59977072D01*
X147876522Y-59977068D01*
X147707566Y-59843634D01*
X147707562Y-59843632D01*
X147703511Y-59840432D01*
X147505983Y-59731391D01*
X147293298Y-59656076D01*
X147264395Y-59650927D01*
X147076257Y-59617414D01*
X147076253Y-59617414D01*
X147071169Y-59616508D01*
X146999174Y-59615629D01*
X146850729Y-59613815D01*
X146850727Y-59613815D01*
X146845559Y-59613752D01*
X146622529Y-59647880D01*
X146408068Y-59717977D01*
X146403476Y-59720367D01*
X146403477Y-59720367D01*
X146298521Y-59775004D01*
X146207935Y-59822160D01*
X146203802Y-59825263D01*
X146203799Y-59825265D01*
X146087032Y-59912936D01*
X146027505Y-59957630D01*
X146023933Y-59961368D01*
X145898314Y-60092821D01*
X145871624Y-60120750D01*
X145868712Y-60125019D01*
X145868706Y-60125027D01*
X145774798Y-60262690D01*
X145719887Y-60307693D01*
X145649362Y-60315864D01*
X145585615Y-60284610D01*
X145564918Y-60260126D01*
X145494839Y-60151801D01*
X145488547Y-60143630D01*
X145343713Y-59984460D01*
X145336180Y-59977434D01*
X145167291Y-59844055D01*
X145158704Y-59838350D01*
X144970311Y-59734351D01*
X144960899Y-59730121D01*
X144758045Y-59658286D01*
X144748074Y-59655652D01*
X144673437Y-59642357D01*
X144660140Y-59643817D01*
X144655600Y-59658374D01*
X144655600Y-61115200D01*
X144635598Y-61183321D01*
X144581942Y-61229814D01*
X144529600Y-61241200D01*
X144273600Y-61241200D01*
X144205479Y-61221198D01*
X144158986Y-61167542D01*
X144147600Y-61115200D01*
X144147600Y-59656543D01*
X144143682Y-59643199D01*
X144129406Y-59641212D01*
X144087761Y-59647585D01*
X144077725Y-59649976D01*
X143873176Y-59716833D01*
X143863679Y-59720825D01*
X143672789Y-59820195D01*
X143664064Y-59825690D01*
X143491973Y-59954900D01*
X143484266Y-59961743D01*
X143335584Y-60117329D01*
X143329098Y-60125339D01*
X143235398Y-60262698D01*
X143180487Y-60307701D01*
X143109962Y-60315872D01*
X143046215Y-60284618D01*
X143025518Y-60260134D01*
X142955234Y-60151491D01*
X142955232Y-60151488D01*
X142952426Y-60147151D01*
X142800577Y-59980271D01*
X142796526Y-59977072D01*
X142796522Y-59977068D01*
X142627566Y-59843634D01*
X142627562Y-59843632D01*
X142623511Y-59840432D01*
X142425983Y-59731391D01*
X142213298Y-59656076D01*
X142184395Y-59650927D01*
X141996257Y-59617414D01*
X141996253Y-59617414D01*
X141991169Y-59616508D01*
X141919174Y-59615629D01*
X141770729Y-59613815D01*
X141770727Y-59613815D01*
X141765559Y-59613752D01*
X141542529Y-59647880D01*
X141328068Y-59717977D01*
X141323476Y-59720367D01*
X141323477Y-59720367D01*
X141218521Y-59775004D01*
X141127935Y-59822160D01*
X141123802Y-59825263D01*
X141123799Y-59825265D01*
X141007032Y-59912936D01*
X140947505Y-59957630D01*
X140943933Y-59961368D01*
X140818314Y-60092821D01*
X140791624Y-60120750D01*
X140788712Y-60125019D01*
X140788706Y-60125027D01*
X140695103Y-60262243D01*
X140640192Y-60307246D01*
X140569667Y-60315417D01*
X140505920Y-60284163D01*
X140485223Y-60259679D01*
X140458718Y-60218707D01*
X140427945Y-60171139D01*
X140415234Y-60151491D01*
X140415232Y-60151488D01*
X140412426Y-60147151D01*
X140260577Y-59980271D01*
X140256526Y-59977072D01*
X140256522Y-59977068D01*
X140087566Y-59843634D01*
X140087562Y-59843632D01*
X140083511Y-59840432D01*
X139885983Y-59731391D01*
X139673298Y-59656076D01*
X139644395Y-59650927D01*
X139456257Y-59617414D01*
X139456253Y-59617414D01*
X139451169Y-59616508D01*
X139379174Y-59615629D01*
X139230729Y-59613815D01*
X139230727Y-59613815D01*
X139225559Y-59613752D01*
X139002529Y-59647880D01*
X138788068Y-59717977D01*
X138783476Y-59720367D01*
X138783477Y-59720367D01*
X138678521Y-59775004D01*
X138587935Y-59822160D01*
X138583802Y-59825263D01*
X138583799Y-59825265D01*
X138467032Y-59912936D01*
X138407505Y-59957630D01*
X138403933Y-59961368D01*
X138278314Y-60092821D01*
X138251624Y-60120750D01*
X138248712Y-60125019D01*
X138248706Y-60125027D01*
X138154798Y-60262690D01*
X138099887Y-60307693D01*
X138029362Y-60315864D01*
X137965615Y-60284610D01*
X137944918Y-60260126D01*
X137874839Y-60151801D01*
X137868547Y-60143630D01*
X137723713Y-59984460D01*
X137716180Y-59977434D01*
X137547291Y-59844055D01*
X137538704Y-59838350D01*
X137350311Y-59734351D01*
X137340899Y-59730121D01*
X137138045Y-59658286D01*
X137128074Y-59655652D01*
X137053437Y-59642357D01*
X137040140Y-59643817D01*
X137035600Y-59658374D01*
X137035600Y-61115200D01*
X137015598Y-61183321D01*
X136961942Y-61229814D01*
X136909600Y-61241200D01*
X136653600Y-61241200D01*
X136585479Y-61221198D01*
X136538986Y-61167542D01*
X136527600Y-61115200D01*
X136527600Y-59656543D01*
X136523682Y-59643199D01*
X136509406Y-59641212D01*
X136467761Y-59647585D01*
X136457725Y-59649976D01*
X136253176Y-59716833D01*
X136243679Y-59720825D01*
X136052789Y-59820195D01*
X136044064Y-59825690D01*
X135871973Y-59954900D01*
X135864266Y-59961743D01*
X135715584Y-60117329D01*
X135709098Y-60125339D01*
X135615398Y-60262698D01*
X135560487Y-60307701D01*
X135489962Y-60315872D01*
X135426215Y-60284618D01*
X135405518Y-60260134D01*
X135335234Y-60151491D01*
X135335232Y-60151488D01*
X135332426Y-60147151D01*
X135180577Y-59980271D01*
X135176526Y-59977072D01*
X135176522Y-59977068D01*
X135007566Y-59843634D01*
X135007562Y-59843632D01*
X135003511Y-59840432D01*
X134805983Y-59731391D01*
X134593298Y-59656076D01*
X134564395Y-59650927D01*
X134376257Y-59617414D01*
X134376253Y-59617414D01*
X134371169Y-59616508D01*
X134299174Y-59615629D01*
X134150729Y-59613815D01*
X134150727Y-59613815D01*
X134145559Y-59613752D01*
X133922529Y-59647880D01*
X133708068Y-59717977D01*
X133703476Y-59720367D01*
X133703477Y-59720367D01*
X133598521Y-59775004D01*
X133507935Y-59822160D01*
X133503802Y-59825263D01*
X133503799Y-59825265D01*
X133387032Y-59912936D01*
X133327505Y-59957630D01*
X133323933Y-59961368D01*
X133198314Y-60092821D01*
X133171624Y-60120750D01*
X133168712Y-60125019D01*
X133168706Y-60125027D01*
X133075103Y-60262243D01*
X133020192Y-60307246D01*
X132949667Y-60315417D01*
X132885920Y-60284163D01*
X132865223Y-60259679D01*
X132838718Y-60218707D01*
X132807945Y-60171139D01*
X132795234Y-60151491D01*
X132795232Y-60151488D01*
X132792426Y-60147151D01*
X132640577Y-59980271D01*
X132636526Y-59977072D01*
X132636522Y-59977068D01*
X132467566Y-59843634D01*
X132467562Y-59843632D01*
X132463511Y-59840432D01*
X132265983Y-59731391D01*
X132053298Y-59656076D01*
X132024395Y-59650927D01*
X131836257Y-59617414D01*
X131836253Y-59617414D01*
X131831169Y-59616508D01*
X131759174Y-59615629D01*
X131610729Y-59613815D01*
X131610727Y-59613815D01*
X131605559Y-59613752D01*
X131382529Y-59647880D01*
X131168068Y-59717977D01*
X131163476Y-59720367D01*
X131163477Y-59720367D01*
X131058521Y-59775004D01*
X130967935Y-59822160D01*
X130963802Y-59825263D01*
X130963799Y-59825265D01*
X130847032Y-59912936D01*
X130787505Y-59957630D01*
X130783933Y-59961368D01*
X130658314Y-60092821D01*
X130631624Y-60120750D01*
X130628712Y-60125019D01*
X130628706Y-60125027D01*
X130535103Y-60262243D01*
X130480192Y-60307246D01*
X130409667Y-60315417D01*
X130345920Y-60284163D01*
X130325223Y-60259679D01*
X130298718Y-60218707D01*
X130267945Y-60171139D01*
X130255234Y-60151491D01*
X130255232Y-60151488D01*
X130252426Y-60147151D01*
X130100577Y-59980271D01*
X130096526Y-59977072D01*
X130096522Y-59977068D01*
X129927566Y-59843634D01*
X129927562Y-59843632D01*
X129923511Y-59840432D01*
X129725983Y-59731391D01*
X129513298Y-59656076D01*
X129484395Y-59650927D01*
X129296257Y-59617414D01*
X129296253Y-59617414D01*
X129291169Y-59616508D01*
X129219174Y-59615629D01*
X129070729Y-59613815D01*
X129070727Y-59613815D01*
X129065559Y-59613752D01*
X128842529Y-59647880D01*
X128628068Y-59717977D01*
X128623476Y-59720367D01*
X128623477Y-59720367D01*
X128518521Y-59775004D01*
X128427935Y-59822160D01*
X128423802Y-59825263D01*
X128423799Y-59825265D01*
X128307032Y-59912936D01*
X128247505Y-59957630D01*
X128243933Y-59961368D01*
X128118314Y-60092821D01*
X128091624Y-60120750D01*
X128088712Y-60125019D01*
X128088706Y-60125027D01*
X127994798Y-60262690D01*
X127939887Y-60307693D01*
X127869362Y-60315864D01*
X127805615Y-60284610D01*
X127784918Y-60260126D01*
X127714839Y-60151801D01*
X127708547Y-60143630D01*
X127563713Y-59984460D01*
X127556180Y-59977434D01*
X127387291Y-59844055D01*
X127378704Y-59838350D01*
X127190311Y-59734351D01*
X127180899Y-59730121D01*
X126978045Y-59658286D01*
X126968074Y-59655652D01*
X126893437Y-59642357D01*
X126880140Y-59643817D01*
X126875600Y-59658374D01*
X126875600Y-61115200D01*
X126855598Y-61183321D01*
X126801942Y-61229814D01*
X126749600Y-61241200D01*
X126493600Y-61241200D01*
X126425479Y-61221198D01*
X126378986Y-61167542D01*
X126367600Y-61115200D01*
X126367600Y-59656543D01*
X126363682Y-59643199D01*
X126349406Y-59641212D01*
X126307761Y-59647585D01*
X126297725Y-59649976D01*
X126093176Y-59716833D01*
X126083679Y-59720825D01*
X125892789Y-59820195D01*
X125884064Y-59825690D01*
X125711973Y-59954900D01*
X125704266Y-59961743D01*
X125555584Y-60117329D01*
X125549098Y-60125339D01*
X125455398Y-60262698D01*
X125400487Y-60307701D01*
X125329962Y-60315872D01*
X125266215Y-60284618D01*
X125245518Y-60260134D01*
X125175234Y-60151491D01*
X125175232Y-60151488D01*
X125172426Y-60147151D01*
X125020577Y-59980271D01*
X125016526Y-59977072D01*
X125016522Y-59977068D01*
X124847566Y-59843634D01*
X124847562Y-59843632D01*
X124843511Y-59840432D01*
X124645983Y-59731391D01*
X124433298Y-59656076D01*
X124404395Y-59650927D01*
X124216257Y-59617414D01*
X124216253Y-59617414D01*
X124211169Y-59616508D01*
X124139174Y-59615629D01*
X123990729Y-59613815D01*
X123990727Y-59613815D01*
X123985559Y-59613752D01*
X123762529Y-59647880D01*
X123548068Y-59717977D01*
X123543476Y-59720367D01*
X123543477Y-59720367D01*
X123438521Y-59775004D01*
X123347935Y-59822160D01*
X123343802Y-59825263D01*
X123343799Y-59825265D01*
X123227032Y-59912936D01*
X123167505Y-59957630D01*
X123163933Y-59961368D01*
X123038314Y-60092821D01*
X123011624Y-60120750D01*
X123008713Y-60125017D01*
X123008710Y-60125021D01*
X122975500Y-60173705D01*
X122920589Y-60218707D01*
X122871412Y-60228700D01*
X122753737Y-60228700D01*
X122685616Y-60208698D01*
X122647945Y-60171139D01*
X122635238Y-60151496D01*
X122635231Y-60151487D01*
X122632426Y-60147151D01*
X122480577Y-59980271D01*
X122476526Y-59977072D01*
X122476522Y-59977068D01*
X122307566Y-59843634D01*
X122307562Y-59843632D01*
X122303511Y-59840432D01*
X122105983Y-59731391D01*
X121893298Y-59656076D01*
X121864395Y-59650927D01*
X121676257Y-59617414D01*
X121676253Y-59617414D01*
X121671169Y-59616508D01*
X121599174Y-59615629D01*
X121450729Y-59613815D01*
X121450727Y-59613815D01*
X121445559Y-59613752D01*
X121222529Y-59647880D01*
X121008068Y-59717977D01*
X121003476Y-59720367D01*
X121003477Y-59720367D01*
X120898521Y-59775004D01*
X120807935Y-59822160D01*
X120803802Y-59825263D01*
X120803799Y-59825265D01*
X120687032Y-59912936D01*
X120627505Y-59957630D01*
X120623933Y-59961368D01*
X120498314Y-60092821D01*
X120471624Y-60120750D01*
X120468494Y-60125339D01*
X120371446Y-60267606D01*
X120330831Y-60303098D01*
X120331663Y-60304367D01*
X120270624Y-60344386D01*
X120266920Y-60346723D01*
X120204493Y-60384605D01*
X120196116Y-60392003D01*
X120196092Y-60391976D01*
X120193100Y-60394629D01*
X120189867Y-60397332D01*
X120183748Y-60401344D01*
X120178716Y-60406656D01*
X120130472Y-60457583D01*
X120128094Y-60460025D01*
X119661242Y-60926877D01*
X119598930Y-60960903D01*
X119528115Y-60955838D01*
X119471279Y-60913291D01*
X119456821Y-60888534D01*
X119438679Y-60847303D01*
X119261287Y-60543124D01*
X119050601Y-60260981D01*
X119048157Y-60258383D01*
X119048152Y-60258377D01*
X118811780Y-60007107D01*
X118811776Y-60007104D01*
X118809330Y-60004503D01*
X118617217Y-59841867D01*
X118543298Y-59779290D01*
X118543294Y-59779287D01*
X118540576Y-59776986D01*
X118470438Y-59730121D01*
X118250770Y-59583344D01*
X118250768Y-59583343D01*
X118247793Y-59581355D01*
X118244609Y-59579715D01*
X117937930Y-59421764D01*
X117937925Y-59421762D01*
X117934747Y-59420125D01*
X117931406Y-59418859D01*
X117931401Y-59418857D01*
X117670400Y-59319973D01*
X117605461Y-59295370D01*
X117601997Y-59294490D01*
X117601993Y-59294489D01*
X117267637Y-59209573D01*
X117267629Y-59209571D01*
X117264170Y-59208693D01*
X117092448Y-59185322D01*
X116918253Y-59161615D01*
X116918246Y-59161614D01*
X116915260Y-59161208D01*
X116800519Y-59156700D01*
X116582402Y-59156700D01*
X116440844Y-59164738D01*
X116323608Y-59171395D01*
X116323601Y-59171396D01*
X116320040Y-59171598D01*
X116181717Y-59195366D01*
X115976518Y-59230625D01*
X115976510Y-59230627D01*
X115973000Y-59231230D01*
X115969575Y-59232228D01*
X115969572Y-59232229D01*
X115755970Y-59294489D01*
X115634941Y-59329766D01*
X115310210Y-59465937D01*
X115156596Y-59551965D01*
X115006098Y-59636247D01*
X115006093Y-59636250D01*
X115002981Y-59637993D01*
X115000085Y-59640078D01*
X115000080Y-59640081D01*
X114873243Y-59731391D01*
X114717205Y-59843723D01*
X114714569Y-59846117D01*
X114714567Y-59846119D01*
X114537333Y-60007107D01*
X114456554Y-60080481D01*
X114224381Y-60345223D01*
X114222349Y-60348152D01*
X114222346Y-60348156D01*
X114185449Y-60401344D01*
X114023671Y-60634547D01*
X114020354Y-60640720D01*
X113970497Y-60691262D01*
X113901228Y-60706826D01*
X113834540Y-60682470D01*
X113791607Y-60625926D01*
X113786059Y-60555146D01*
X113789064Y-60543604D01*
X113836304Y-60392003D01*
X113839742Y-60380969D01*
X113845134Y-60366755D01*
X113962358Y-60106292D01*
X113969428Y-60092821D01*
X114117195Y-59848387D01*
X114125838Y-59835866D01*
X114301985Y-59611029D01*
X114312075Y-59599640D01*
X114514040Y-59397675D01*
X114525429Y-59387585D01*
X114750266Y-59211438D01*
X114762787Y-59202795D01*
X115007221Y-59055028D01*
X115020694Y-59047957D01*
X115063377Y-59028747D01*
X115281155Y-58930734D01*
X115295369Y-58925342D01*
X115568074Y-58840364D01*
X115582840Y-58836725D01*
X115791814Y-58798429D01*
X115863786Y-58785240D01*
X115878890Y-58783406D01*
X116129504Y-58768247D01*
X116156316Y-58769508D01*
X116156452Y-58769510D01*
X116165324Y-58770891D01*
X116174226Y-58769727D01*
X116174228Y-58769727D01*
X116189277Y-58767759D01*
X116196886Y-58766764D01*
X116213221Y-58765700D01*
X175122233Y-58765700D01*
X175141618Y-58767200D01*
G37*
%TD.AperFunction*%
%TA.AperFunction,Conductor*%
G36*
X125753950Y-65743702D02*
G01*
X125774924Y-65760605D01*
X136576230Y-76561911D01*
X136588616Y-76576323D01*
X136597149Y-76587918D01*
X136597154Y-76587923D01*
X136601492Y-76593818D01*
X136607070Y-76598557D01*
X136607073Y-76598560D01*
X136641768Y-76628035D01*
X136649284Y-76634965D01*
X136654979Y-76640660D01*
X136657861Y-76642940D01*
X136677251Y-76658281D01*
X136680655Y-76661072D01*
X136730703Y-76703591D01*
X136736285Y-76708333D01*
X136742801Y-76711661D01*
X136747850Y-76715028D01*
X136752979Y-76718195D01*
X136758716Y-76722734D01*
X136824875Y-76753655D01*
X136828769Y-76755558D01*
X136893808Y-76788769D01*
X136900916Y-76790508D01*
X136906559Y-76792607D01*
X136912322Y-76794524D01*
X136918950Y-76797622D01*
X136980095Y-76810340D01*
X136990412Y-76812486D01*
X136994696Y-76813456D01*
X137065610Y-76830808D01*
X137071212Y-76831156D01*
X137071215Y-76831156D01*
X137076764Y-76831500D01*
X137076762Y-76831536D01*
X137080755Y-76831775D01*
X137084947Y-76832149D01*
X137092115Y-76833640D01*
X137169520Y-76831546D01*
X137172928Y-76831500D01*
X137238282Y-76831500D01*
X137282202Y-76839403D01*
X137337558Y-76859990D01*
X137337560Y-76859991D01*
X137344168Y-76862448D01*
X137427995Y-76873633D01*
X137516980Y-76885507D01*
X137516984Y-76885507D01*
X137523961Y-76886438D01*
X137530972Y-76885800D01*
X137530976Y-76885800D01*
X137673459Y-76872832D01*
X137704600Y-76869998D01*
X137711302Y-76867820D01*
X137711304Y-76867820D01*
X137870409Y-76816124D01*
X137870412Y-76816123D01*
X137877108Y-76813947D01*
X138032912Y-76721069D01*
X138164266Y-76595982D01*
X138264643Y-76444902D01*
X138329055Y-76275338D01*
X138330035Y-76268366D01*
X138353748Y-76099639D01*
X138353748Y-76099636D01*
X138354299Y-76095717D01*
X138354616Y-76073000D01*
X138334397Y-75892745D01*
X138313913Y-75833922D01*
X138277064Y-75728106D01*
X138277062Y-75728103D01*
X138274745Y-75721448D01*
X138178626Y-75567624D01*
X138173664Y-75562627D01*
X138055778Y-75443915D01*
X138055774Y-75443912D01*
X138050815Y-75438918D01*
X137897666Y-75341727D01*
X137852373Y-75325599D01*
X137794909Y-75283905D01*
X137769109Y-75217762D01*
X137783164Y-75148171D01*
X137832612Y-75097225D01*
X137894640Y-75080900D01*
X139628300Y-75080900D01*
X139696421Y-75100902D01*
X139742914Y-75154558D01*
X139754300Y-75206900D01*
X139754300Y-83266429D01*
X139734298Y-83334550D01*
X139717395Y-83355524D01*
X137156918Y-85916001D01*
X137094606Y-85950027D01*
X137066175Y-85952895D01*
X137031135Y-85952437D01*
X136996455Y-85951983D01*
X136990758Y-85952962D01*
X136990757Y-85952962D01*
X136801367Y-85985505D01*
X136795670Y-85986484D01*
X136604534Y-86056998D01*
X136599573Y-86059950D01*
X136599572Y-86059950D01*
X136443698Y-86152686D01*
X136429449Y-86161163D01*
X136408047Y-86179932D01*
X136350234Y-86230632D01*
X136285830Y-86260509D01*
X136267157Y-86261900D01*
X128685700Y-86261900D01*
X128617579Y-86241898D01*
X128571086Y-86188242D01*
X128559700Y-86135900D01*
X128559700Y-85072266D01*
X128552945Y-85010084D01*
X128501815Y-84873695D01*
X128414461Y-84757139D01*
X128297905Y-84669785D01*
X128161516Y-84618655D01*
X128099334Y-84611900D01*
X126003066Y-84611900D01*
X125940884Y-84618655D01*
X125933488Y-84621427D01*
X125933482Y-84621429D01*
X125857741Y-84649823D01*
X125786934Y-84655006D01*
X125724417Y-84620936D01*
X122867805Y-81764324D01*
X122833779Y-81702012D01*
X122830900Y-81675229D01*
X122830900Y-78141171D01*
X122850902Y-78073050D01*
X122867805Y-78052076D01*
X123605779Y-77314102D01*
X123630353Y-77294970D01*
X123783512Y-77203669D01*
X123914866Y-77078582D01*
X124015243Y-76927502D01*
X124079655Y-76757938D01*
X124093269Y-76661072D01*
X124104348Y-76582239D01*
X124104348Y-76582236D01*
X124104899Y-76578317D01*
X124105216Y-76555600D01*
X124084997Y-76375345D01*
X124047743Y-76268366D01*
X124027664Y-76210706D01*
X124027662Y-76210703D01*
X124025345Y-76204048D01*
X123992216Y-76151030D01*
X123932959Y-76056198D01*
X123929226Y-76050224D01*
X123922380Y-76043330D01*
X123806378Y-75926515D01*
X123806374Y-75926512D01*
X123801415Y-75921518D01*
X123745591Y-75886091D01*
X123663386Y-75833922D01*
X123616587Y-75780533D01*
X123604900Y-75727537D01*
X123604900Y-69812521D01*
X123624902Y-69744400D01*
X123666383Y-69704292D01*
X123777460Y-69638077D01*
X123777462Y-69638076D01*
X123783512Y-69634469D01*
X123914866Y-69509382D01*
X124015243Y-69358302D01*
X124079655Y-69188738D01*
X124092074Y-69100375D01*
X124104348Y-69013039D01*
X124104348Y-69013036D01*
X124104899Y-69009117D01*
X124105216Y-68986400D01*
X124084997Y-68806145D01*
X124077438Y-68784439D01*
X124027664Y-68641506D01*
X124027662Y-68641503D01*
X124025345Y-68634848D01*
X123993912Y-68584544D01*
X123932959Y-68486998D01*
X123929226Y-68481024D01*
X123861582Y-68412906D01*
X123806378Y-68357315D01*
X123806374Y-68357312D01*
X123801415Y-68352318D01*
X123790297Y-68345262D01*
X123742138Y-68314700D01*
X123648266Y-68255127D01*
X123615813Y-68243571D01*
X123484025Y-68196643D01*
X123484020Y-68196642D01*
X123477390Y-68194281D01*
X123470402Y-68193448D01*
X123470399Y-68193447D01*
X123347298Y-68178768D01*
X123297280Y-68172804D01*
X123290277Y-68173540D01*
X123290276Y-68173540D01*
X123123888Y-68191028D01*
X123123886Y-68191029D01*
X123116888Y-68191764D01*
X122945179Y-68250218D01*
X122939175Y-68253912D01*
X122796695Y-68341566D01*
X122796692Y-68341568D01*
X122790688Y-68345262D01*
X122785653Y-68350193D01*
X122785650Y-68350195D01*
X122732074Y-68402661D01*
X122661093Y-68472171D01*
X122562835Y-68624638D01*
X122560425Y-68631260D01*
X122557292Y-68637570D01*
X122555621Y-68636740D01*
X122532869Y-68672450D01*
X122357489Y-68847830D01*
X122343077Y-68860216D01*
X122331482Y-68868749D01*
X122331477Y-68868754D01*
X122325582Y-68873092D01*
X122320843Y-68878670D01*
X122320840Y-68878673D01*
X122291365Y-68913368D01*
X122284435Y-68920884D01*
X122278740Y-68926579D01*
X122276460Y-68929461D01*
X122261119Y-68948851D01*
X122258328Y-68952255D01*
X122229320Y-68986400D01*
X122211067Y-69007885D01*
X122207739Y-69014401D01*
X122204372Y-69019450D01*
X122201205Y-69024579D01*
X122196666Y-69030316D01*
X122165745Y-69096475D01*
X122163842Y-69100369D01*
X122130631Y-69165408D01*
X122128892Y-69172516D01*
X122126793Y-69178159D01*
X122124876Y-69183922D01*
X122121778Y-69190550D01*
X122120288Y-69197712D01*
X122120288Y-69197713D01*
X122106914Y-69262012D01*
X122105944Y-69266296D01*
X122088592Y-69337210D01*
X122087900Y-69348364D01*
X122087864Y-69348362D01*
X122087625Y-69352355D01*
X122087251Y-69356547D01*
X122085760Y-69363715D01*
X122085958Y-69371032D01*
X122087854Y-69441121D01*
X122087900Y-69444528D01*
X122087900Y-76043330D01*
X122086467Y-76062280D01*
X122083201Y-76083749D01*
X122083794Y-76091041D01*
X122083794Y-76091044D01*
X122087485Y-76136418D01*
X122087900Y-76146633D01*
X122087900Y-76154693D01*
X122088325Y-76158337D01*
X122091189Y-76182907D01*
X122091622Y-76187282D01*
X122092500Y-76198069D01*
X122097540Y-76260037D01*
X122099796Y-76267001D01*
X122100987Y-76272960D01*
X122102371Y-76278815D01*
X122103218Y-76286081D01*
X122128135Y-76354727D01*
X122129552Y-76358855D01*
X122152049Y-76428299D01*
X122155845Y-76434554D01*
X122158351Y-76440028D01*
X122161070Y-76445457D01*
X122163567Y-76452337D01*
X122170186Y-76462432D01*
X122190808Y-76530366D01*
X122171428Y-76598666D01*
X122153908Y-76620611D01*
X121583489Y-77191030D01*
X121569077Y-77203416D01*
X121557482Y-77211949D01*
X121557477Y-77211954D01*
X121551582Y-77216292D01*
X121546843Y-77221870D01*
X121546840Y-77221873D01*
X121517365Y-77256568D01*
X121510435Y-77264084D01*
X121504740Y-77269779D01*
X121502460Y-77272661D01*
X121487119Y-77292051D01*
X121484328Y-77295455D01*
X121441809Y-77345503D01*
X121437067Y-77351085D01*
X121433739Y-77357601D01*
X121430372Y-77362650D01*
X121427205Y-77367779D01*
X121422666Y-77373516D01*
X121391745Y-77439675D01*
X121389842Y-77443569D01*
X121356631Y-77508608D01*
X121354892Y-77515716D01*
X121352793Y-77521359D01*
X121350876Y-77527122D01*
X121347778Y-77533750D01*
X121346288Y-77540912D01*
X121346288Y-77540913D01*
X121332914Y-77605212D01*
X121331944Y-77609496D01*
X121314592Y-77680410D01*
X121313900Y-77691564D01*
X121313864Y-77691562D01*
X121313625Y-77695555D01*
X121313251Y-77699747D01*
X121311760Y-77706915D01*
X121311958Y-77714232D01*
X121313854Y-77784321D01*
X121313900Y-77787728D01*
X121313900Y-81974530D01*
X121312467Y-81993480D01*
X121309201Y-82014949D01*
X121309794Y-82022241D01*
X121309794Y-82022244D01*
X121313485Y-82067618D01*
X121313900Y-82077833D01*
X121313900Y-82085893D01*
X121314325Y-82089537D01*
X121317189Y-82114107D01*
X121317622Y-82118482D01*
X121323540Y-82191237D01*
X121325796Y-82198201D01*
X121326987Y-82204160D01*
X121328371Y-82210015D01*
X121329218Y-82217281D01*
X121354135Y-82285927D01*
X121355552Y-82290055D01*
X121378049Y-82359499D01*
X121381845Y-82365754D01*
X121384351Y-82371228D01*
X121387070Y-82376658D01*
X121389567Y-82383537D01*
X121393580Y-82389657D01*
X121393580Y-82389658D01*
X121429586Y-82444576D01*
X121431923Y-82448280D01*
X121469805Y-82510707D01*
X121473521Y-82514915D01*
X121473522Y-82514916D01*
X121477203Y-82519084D01*
X121477176Y-82519108D01*
X121479829Y-82522100D01*
X121482532Y-82525333D01*
X121486544Y-82531452D01*
X121491856Y-82536484D01*
X121542783Y-82584728D01*
X121545225Y-82587106D01*
X125004924Y-86046805D01*
X125038950Y-86109117D01*
X125033885Y-86179932D01*
X124991338Y-86236768D01*
X124924818Y-86261579D01*
X124915829Y-86261900D01*
X122375693Y-86261900D01*
X122307572Y-86241898D01*
X122261079Y-86188242D01*
X122253657Y-86166637D01*
X122252945Y-86160084D01*
X122233839Y-86109117D01*
X122204967Y-86032103D01*
X122201815Y-86023695D01*
X122173927Y-85986484D01*
X122143560Y-85945965D01*
X122118712Y-85879458D01*
X122133765Y-85810076D01*
X122143560Y-85794835D01*
X122196429Y-85724292D01*
X122196430Y-85724290D01*
X122201815Y-85717105D01*
X122252945Y-85580716D01*
X122259700Y-85518534D01*
X122259700Y-83922266D01*
X122252945Y-83860084D01*
X122201815Y-83723695D01*
X122114461Y-83607139D01*
X121997905Y-83519785D01*
X121861516Y-83468655D01*
X121799334Y-83461900D01*
X121639710Y-83461900D01*
X121571589Y-83441898D01*
X121525096Y-83388242D01*
X121515118Y-83338193D01*
X121514399Y-83338251D01*
X121513896Y-83332063D01*
X121513895Y-83332060D01*
X121510115Y-83285582D01*
X121509700Y-83275367D01*
X121509700Y-83267307D01*
X121506409Y-83239080D01*
X121505978Y-83234721D01*
X121500653Y-83169260D01*
X121500060Y-83161964D01*
X121497805Y-83155003D01*
X121496618Y-83149063D01*
X121495229Y-83143188D01*
X121494382Y-83135919D01*
X121469464Y-83067270D01*
X121468047Y-83063142D01*
X121447807Y-83000664D01*
X121447806Y-83000662D01*
X121445551Y-82993701D01*
X121441755Y-82987446D01*
X121439249Y-82981972D01*
X121436530Y-82976542D01*
X121434033Y-82969663D01*
X121394014Y-82908624D01*
X121391667Y-82904905D01*
X121353795Y-82842493D01*
X121346397Y-82834116D01*
X121346424Y-82834092D01*
X121343771Y-82831100D01*
X121341068Y-82827867D01*
X121337056Y-82821748D01*
X121280817Y-82768472D01*
X121278375Y-82766094D01*
X120023005Y-81510724D01*
X119988979Y-81448412D01*
X119986100Y-81421629D01*
X119986100Y-66125572D01*
X120006102Y-66057451D01*
X120023005Y-66036477D01*
X120298877Y-65760605D01*
X120361189Y-65726579D01*
X120387972Y-65723700D01*
X125685829Y-65723700D01*
X125753950Y-65743702D01*
G37*
%TD.AperFunction*%
%TA.AperFunction,Conductor*%
G36*
X113888612Y-63653220D02*
G01*
X113914943Y-63684968D01*
X114081913Y-63971276D01*
X114292599Y-64253419D01*
X114295043Y-64256017D01*
X114295048Y-64256023D01*
X114530784Y-64506617D01*
X114533870Y-64509897D01*
X114638921Y-64598829D01*
X114772715Y-64712094D01*
X114802624Y-64737414D01*
X114805588Y-64739394D01*
X114805590Y-64739396D01*
X115049537Y-64902396D01*
X115095407Y-64933045D01*
X115098589Y-64934684D01*
X115098591Y-64934685D01*
X115405270Y-65092636D01*
X115405275Y-65092638D01*
X115408453Y-65094275D01*
X115411794Y-65095541D01*
X115411799Y-65095543D01*
X115610435Y-65170799D01*
X115737739Y-65219030D01*
X115741203Y-65219910D01*
X115741207Y-65219911D01*
X116075563Y-65304827D01*
X116075571Y-65304829D01*
X116079030Y-65305707D01*
X116226912Y-65325833D01*
X116424947Y-65352785D01*
X116424954Y-65352786D01*
X116427940Y-65353192D01*
X116542681Y-65357700D01*
X116760798Y-65357700D01*
X116908727Y-65349300D01*
X117019592Y-65343005D01*
X117019599Y-65343004D01*
X117023160Y-65342802D01*
X117187683Y-65314532D01*
X117366682Y-65283775D01*
X117366690Y-65283773D01*
X117370200Y-65283170D01*
X117373625Y-65282172D01*
X117373628Y-65282171D01*
X117634016Y-65206274D01*
X117708259Y-65184634D01*
X117855674Y-65122818D01*
X118029692Y-65049846D01*
X118032990Y-65048463D01*
X118236156Y-64934685D01*
X118337102Y-64878153D01*
X118337107Y-64878150D01*
X118340219Y-64876407D01*
X118343115Y-64874322D01*
X118343120Y-64874319D01*
X118493881Y-64765786D01*
X118625995Y-64670677D01*
X118724270Y-64581411D01*
X118884005Y-64436318D01*
X118884006Y-64436317D01*
X118886646Y-64433919D01*
X119042370Y-64256351D01*
X119102323Y-64218324D01*
X119173318Y-64218746D01*
X119232815Y-64257485D01*
X119261923Y-64322240D01*
X119263101Y-64339429D01*
X119263101Y-64598829D01*
X119243099Y-64666950D01*
X119226196Y-64687924D01*
X118738689Y-65175431D01*
X118724277Y-65187817D01*
X118712682Y-65196350D01*
X118712677Y-65196355D01*
X118706782Y-65200693D01*
X118702043Y-65206271D01*
X118702040Y-65206274D01*
X118672565Y-65240969D01*
X118665635Y-65248485D01*
X118659940Y-65254180D01*
X118657660Y-65257062D01*
X118642319Y-65276452D01*
X118639528Y-65279856D01*
X118600468Y-65325833D01*
X118592267Y-65335486D01*
X118588939Y-65342002D01*
X118585572Y-65347051D01*
X118582405Y-65352180D01*
X118577866Y-65357917D01*
X118546945Y-65424076D01*
X118545042Y-65427970D01*
X118511831Y-65493009D01*
X118510092Y-65500117D01*
X118507993Y-65505760D01*
X118506076Y-65511523D01*
X118502978Y-65518151D01*
X118501488Y-65525313D01*
X118501488Y-65525314D01*
X118488114Y-65589613D01*
X118487144Y-65593897D01*
X118469792Y-65664811D01*
X118469100Y-65675965D01*
X118469064Y-65675963D01*
X118468825Y-65679956D01*
X118468451Y-65684148D01*
X118466960Y-65691316D01*
X118467158Y-65698633D01*
X118469054Y-65768722D01*
X118469100Y-65772129D01*
X118469100Y-78117169D01*
X118449098Y-78185290D01*
X118395442Y-78231783D01*
X118325168Y-78241887D01*
X118260588Y-78212393D01*
X118254005Y-78206264D01*
X118161981Y-78114240D01*
X117989240Y-77984928D01*
X117799854Y-77881515D01*
X117698767Y-77843812D01*
X117601897Y-77807681D01*
X117601894Y-77807680D01*
X117597679Y-77806108D01*
X117593289Y-77805153D01*
X117593282Y-77805151D01*
X117438371Y-77771453D01*
X117386830Y-77760241D01*
X117212065Y-77747741D01*
X117200154Y-77746316D01*
X117188952Y-77744431D01*
X117188945Y-77744430D01*
X117184152Y-77743624D01*
X117177876Y-77743548D01*
X117176460Y-77743530D01*
X117176457Y-77743530D01*
X117171600Y-77743471D01*
X117161203Y-77744960D01*
X117143976Y-77747427D01*
X117126114Y-77748700D01*
X114220967Y-77748700D01*
X114201582Y-77747200D01*
X114186748Y-77744890D01*
X114186745Y-77744890D01*
X114177876Y-77743509D01*
X114168974Y-77744673D01*
X114168850Y-77744689D01*
X114138408Y-77744960D01*
X114117730Y-77742630D01*
X114076336Y-77737966D01*
X114048829Y-77731687D01*
X113971747Y-77704715D01*
X113946326Y-77692473D01*
X113877174Y-77649022D01*
X113855115Y-77631430D01*
X113797370Y-77573685D01*
X113779778Y-77551626D01*
X113736327Y-77482474D01*
X113724085Y-77457053D01*
X113697113Y-77379972D01*
X113690834Y-77352466D01*
X113686511Y-77314102D01*
X113684770Y-77298647D01*
X113684488Y-77273840D01*
X113685176Y-77269752D01*
X113685329Y-77257200D01*
X113681373Y-77229576D01*
X113680100Y-77211714D01*
X113680100Y-73688966D01*
X114695457Y-73688966D01*
X114725765Y-73823446D01*
X114728845Y-73833275D01*
X114808970Y-74030603D01*
X114813613Y-74039794D01*
X114924894Y-74221388D01*
X114930977Y-74229699D01*
X115070413Y-74390667D01*
X115077780Y-74397883D01*
X115241634Y-74533916D01*
X115250081Y-74539831D01*
X115433956Y-74647279D01*
X115443242Y-74651729D01*
X115642201Y-74727703D01*
X115652099Y-74730579D01*
X115755450Y-74751606D01*
X115769499Y-74750410D01*
X115773200Y-74740065D01*
X115773200Y-74739517D01*
X116281200Y-74739517D01*
X116285264Y-74753359D01*
X116298678Y-74755393D01*
X116305384Y-74754534D01*
X116315462Y-74752392D01*
X116519455Y-74691191D01*
X116529042Y-74687433D01*
X116720295Y-74593739D01*
X116729145Y-74588464D01*
X116902528Y-74464792D01*
X116910400Y-74458139D01*
X117061252Y-74307812D01*
X117067930Y-74299965D01*
X117192203Y-74127020D01*
X117197513Y-74118183D01*
X117291870Y-73927267D01*
X117295669Y-73917672D01*
X117357577Y-73713910D01*
X117359755Y-73703837D01*
X117361186Y-73692962D01*
X117358975Y-73678778D01*
X117345817Y-73675000D01*
X116299315Y-73675000D01*
X116284076Y-73679475D01*
X116282871Y-73680865D01*
X116281200Y-73688548D01*
X116281200Y-74739517D01*
X115773200Y-74739517D01*
X115773200Y-73693115D01*
X115768725Y-73677876D01*
X115767335Y-73676671D01*
X115759652Y-73675000D01*
X114710425Y-73675000D01*
X114696894Y-73678973D01*
X114695457Y-73688966D01*
X113680100Y-73688966D01*
X113680100Y-70847695D01*
X114664451Y-70847695D01*
X114664748Y-70852848D01*
X114664748Y-70852851D01*
X114676316Y-71053479D01*
X114677310Y-71070715D01*
X114678447Y-71075761D01*
X114678448Y-71075767D01*
X114688331Y-71119620D01*
X114726422Y-71288639D01*
X114810466Y-71495616D01*
X114927187Y-71686088D01*
X115073450Y-71854938D01*
X115245326Y-71997632D01*
X115307722Y-72034093D01*
X115319155Y-72040774D01*
X115367879Y-72092412D01*
X115380950Y-72162195D01*
X115354219Y-72227967D01*
X115313762Y-72261327D01*
X115305657Y-72265546D01*
X115296938Y-72271036D01*
X115126633Y-72398905D01*
X115118926Y-72405748D01*
X114971790Y-72559717D01*
X114965304Y-72567727D01*
X114845298Y-72743649D01*
X114840200Y-72752623D01*
X114750538Y-72945783D01*
X114746975Y-72955470D01*
X114691589Y-73155183D01*
X114693112Y-73163607D01*
X114705492Y-73167000D01*
X117345544Y-73167000D01*
X117359075Y-73163027D01*
X117360380Y-73153947D01*
X117318414Y-72986875D01*
X117315094Y-72977124D01*
X117230172Y-72781814D01*
X117225305Y-72772739D01*
X117109626Y-72593926D01*
X117103336Y-72585757D01*
X116960006Y-72428240D01*
X116952473Y-72421215D01*
X116785339Y-72289222D01*
X116776756Y-72283520D01*
X116739802Y-72263120D01*
X116689831Y-72212687D01*
X116675059Y-72143245D01*
X116700175Y-72076839D01*
X116727527Y-72050232D01*
X116794180Y-72002689D01*
X116907060Y-71922173D01*
X116922970Y-71906319D01*
X117018651Y-71810971D01*
X117065296Y-71764489D01*
X117075506Y-71750281D01*
X117192635Y-71587277D01*
X117195653Y-71583077D01*
X117294630Y-71382811D01*
X117359570Y-71169069D01*
X117388729Y-70947590D01*
X117390356Y-70881000D01*
X117372052Y-70658361D01*
X117317631Y-70441702D01*
X117228554Y-70236840D01*
X117107214Y-70049277D01*
X117103732Y-70045450D01*
X116959998Y-69887488D01*
X116928946Y-69823642D01*
X116937341Y-69753143D01*
X116982517Y-69698375D01*
X117008961Y-69684706D01*
X117115497Y-69644767D01*
X117123905Y-69641615D01*
X117240461Y-69554261D01*
X117327815Y-69437705D01*
X117378945Y-69301316D01*
X117385700Y-69239134D01*
X117385700Y-67442866D01*
X117378945Y-67380684D01*
X117327815Y-67244295D01*
X117240461Y-67127739D01*
X117123905Y-67040385D01*
X116987516Y-66989255D01*
X116925334Y-66982500D01*
X115129066Y-66982500D01*
X115066884Y-66989255D01*
X114930495Y-67040385D01*
X114813939Y-67127739D01*
X114726585Y-67244295D01*
X114675455Y-67380684D01*
X114668700Y-67442866D01*
X114668700Y-69239134D01*
X114675455Y-69301316D01*
X114726585Y-69437705D01*
X114813939Y-69554261D01*
X114930495Y-69641615D01*
X114938904Y-69644767D01*
X114938905Y-69644768D01*
X115047651Y-69685535D01*
X115104416Y-69728176D01*
X115129116Y-69794738D01*
X115113909Y-69864087D01*
X115094516Y-69890568D01*
X114967829Y-70023138D01*
X114841943Y-70207680D01*
X114826203Y-70241590D01*
X114775213Y-70351439D01*
X114747888Y-70410305D01*
X114688189Y-70625570D01*
X114664451Y-70847695D01*
X113680100Y-70847695D01*
X113680100Y-63748444D01*
X113700102Y-63680323D01*
X113753758Y-63633830D01*
X113824032Y-63623726D01*
X113888612Y-63653220D01*
G37*
%TD.AperFunction*%
%TD*%
M02*
