M48
; DRILL file {KiCad (6.0.7)} date Sun Aug 28 16:54:00 2022
; FORMAT={-:-/ absolute / inch / decimal}
; #@! TF.CreationDate,2022-08-28T16:54:00+02:00
; #@! TF.GenerationSoftware,Kicad,Pcbnew,(6.0.7)
; #@! TF.FileFunction,Plated,1,4,PTH
FMAT,2
INCH
; #@! TA.AperFunction,Plated,PTH,ViaDrill
T1C0.0157
; #@! TA.AperFunction,Plated,PTH,ComponentDrill
T2C0.0236
; #@! TA.AperFunction,Plated,PTH,ComponentDrill
T3C0.0394
; #@! TA.AperFunction,Plated,PTH,ComponentDrill
T4C0.0400
; #@! TA.AperFunction,Plated,PTH,ComponentDrill
T5C0.0591
; #@! TA.AperFunction,Plated,PTH,ComponentDrill
T6C0.0669
%
G90
G05
T1
X4.6Y-4.15
X4.601Y-4.002
X4.602Y-3.901
X4.754Y-3.524
X4.78Y-3.598
X4.8Y-4.35
X4.854Y-2.716
X4.854Y-3.014
X4.866Y-2.818
X4.866Y-2.924
X4.9Y-3.178
X4.9Y-4.35
X5.102Y-2.948
X5.18Y-3.304
X5.182Y-3.15
X5.202Y-2.898
X5.202Y-2.974
X5.25Y-3.6
X5.25Y-3.75
X5.25Y-3.9
X5.264Y-3.15
X5.355Y-3.152
X5.404Y-2.931
X5.415Y-2.995
X5.441Y-3.152
X5.442Y-2.771
X5.442Y-2.858
X5.502Y-2.6363
X5.56Y-2.685
X5.598Y-2.856
X5.5985Y-2.7687
X5.63Y-2.685
X5.666Y-2.77
X5.666Y-2.854
X5.669Y-2.943
X5.695Y-2.685
X5.7Y-4.35
X5.8Y-3.15
X5.8Y-3.35
X5.8Y-3.55
X5.8Y-3.75
X5.8Y-3.95
X5.8Y-4.15
X5.8Y-4.35
X5.806Y-2.79
X5.856Y-2.85
X5.9Y-4.35
X5.914Y-3.018
X5.914Y-3.104
X5.926Y-2.935
X6.048Y-3.198
X6.056Y-2.88
X6.106Y-3.106
X6.172Y-3.28
X6.232Y-3.1974
X6.24Y-2.906
X6.286Y-2.854
X6.298Y-3.052
X6.2997Y-3.5978
X6.2997Y-3.7994
X6.3Y-3.45
X6.3Y-3.7
X6.3Y-3.9
X6.316Y-3.1959
X6.346Y-3.284
X6.398Y-3.196
X6.403Y-2.707
X6.408Y-2.922
X6.544Y-2.768
X6.544Y-2.852
X6.544Y-2.934
X6.546Y-2.68
X6.8Y-4.15
X6.9Y-2.7
X6.9Y-2.85
X6.9Y-3.0
X6.9Y-3.15
X6.9Y-3.3
X6.9Y-3.45
X6.9Y-3.6
X6.9Y-3.75
X6.9Y-3.9
X6.9Y-4.05
T2
X4.8Y-3.7033
X4.8Y-3.782
X5.397Y-3.4276
X5.397Y-3.5064
T3
X4.568Y-2.6906
X4.568Y-2.7906
X4.568Y-2.8906
X5.1244Y-4.036
X5.2244Y-4.036
X5.3244Y-4.036
X5.4244Y-4.036
X6.1476Y-4.035
X6.2476Y-4.035
X6.3476Y-4.035
X6.4476Y-4.035
T4
X4.7851Y-2.4011
X4.7851Y-2.5011
X4.8851Y-2.4011
X4.8851Y-2.5011
X4.9851Y-2.4011
X4.9851Y-2.5011
X5.0851Y-2.4011
X5.0851Y-2.5011
X5.1851Y-2.4011
X5.1851Y-2.5011
X5.2851Y-2.4011
X5.2851Y-2.5011
X5.3851Y-2.4011
X5.3851Y-2.5011
X5.4851Y-2.4011
X5.4851Y-2.5011
X5.5851Y-2.4011
X5.5851Y-2.5011
X5.6851Y-2.4011
X5.6851Y-2.5011
X5.7851Y-2.4011
X5.7851Y-2.5011
X5.8851Y-2.4011
X5.8851Y-2.5011
X5.9851Y-2.4011
X5.9851Y-2.5011
X6.0851Y-2.4011
X6.0851Y-2.5011
X6.1851Y-2.4011
X6.1851Y-2.5011
X6.2851Y-2.4011
X6.2851Y-2.5011
X6.3851Y-2.4011
X6.3851Y-2.5011
X6.4851Y-2.4011
X6.4851Y-2.5011
X6.5851Y-2.4011
X6.5851Y-2.5011
X6.6851Y-2.4011
X6.6851Y-2.5011
T5
X5.122Y-4.35
X5.5Y-4.35
X6.128Y-4.334
X6.474Y-4.334
T6
X5.022Y-4.25
X5.022Y-4.45
X5.222Y-4.25
X5.222Y-4.45
X5.4Y-4.25
X5.4Y-4.45
X5.6Y-4.25
X5.6Y-4.45
X6.028Y-4.234
X6.028Y-4.434
X6.228Y-4.234
X6.228Y-4.434
X6.374Y-4.234
X6.374Y-4.434
X6.574Y-4.234
X6.574Y-4.434
T0
M30
