%TF.GenerationSoftware,KiCad,Pcbnew,(6.0.7)*%
%TF.CreationDate,2022-08-28T16:53:58+02:00*%
%TF.ProjectId,RPi_Hat,5250695f-4861-4742-9e6b-696361645f70,rev?*%
%TF.SameCoordinates,Original*%
%TF.FileFunction,Soldermask,Bot*%
%TF.FilePolarity,Negative*%
%FSLAX46Y46*%
G04 Gerber Fmt 4.6, Leading zero omitted, Abs format (unit mm)*
G04 Created by KiCad (PCBNEW (6.0.7)) date 2022-08-28 16:53:58*
%MOMM*%
%LPD*%
G01*
G04 APERTURE LIST*
%ADD10C,6.200000*%
%ADD11R,1.727200X1.727200*%
%ADD12O,1.727200X1.727200*%
%ADD13R,1.700000X1.700000*%
%ADD14O,1.700000X1.700000*%
%ADD15C,1.200000*%
%ADD16C,2.050000*%
%ADD17C,2.250000*%
%ADD18R,2.000000X1.500000*%
%ADD19R,2.000000X3.800000*%
G04 APERTURE END LIST*
D10*
%TO.C,*%
X174671600Y-62257200D03*
%TD*%
%TO.C,*%
X116671600Y-62257200D03*
%TD*%
%TO.C,*%
X116671600Y-111257200D03*
%TD*%
%TO.C,*%
X174671600Y-111257200D03*
%TD*%
D11*
%TO.C,J6*%
X121541600Y-63527200D03*
D12*
X121541600Y-60987200D03*
X124081600Y-63527200D03*
X124081600Y-60987200D03*
X126621600Y-63527200D03*
X126621600Y-60987200D03*
X129161600Y-63527200D03*
X129161600Y-60987200D03*
X131701600Y-63527200D03*
X131701600Y-60987200D03*
X134241600Y-63527200D03*
X134241600Y-60987200D03*
X136781600Y-63527200D03*
X136781600Y-60987200D03*
X139321600Y-63527200D03*
X139321600Y-60987200D03*
X141861600Y-63527200D03*
X141861600Y-60987200D03*
X144401600Y-63527200D03*
X144401600Y-60987200D03*
X146941600Y-63527200D03*
X146941600Y-60987200D03*
X149481600Y-63527200D03*
X149481600Y-60987200D03*
X152021600Y-63527200D03*
X152021600Y-60987200D03*
X154561600Y-63527200D03*
X154561600Y-60987200D03*
X157101600Y-63527200D03*
X157101600Y-60987200D03*
X159641600Y-63527200D03*
X159641600Y-60987200D03*
X162181600Y-63527200D03*
X162181600Y-60987200D03*
X164721600Y-63527200D03*
X164721600Y-60987200D03*
X167261600Y-63527200D03*
X167261600Y-60987200D03*
X169801600Y-63527200D03*
X169801600Y-60987200D03*
%TD*%
D13*
%TO.C,J7*%
X130159600Y-102514400D03*
D14*
X132699600Y-102514400D03*
X135239600Y-102514400D03*
X137779600Y-102514400D03*
%TD*%
D13*
%TO.C,J5*%
X116027200Y-68341000D03*
D14*
X116027200Y-70881000D03*
X116027200Y-73421000D03*
%TD*%
D15*
%TO.C,C12*%
X137083800Y-87061800D03*
X137083800Y-89061800D03*
%TD*%
D13*
%TO.C,J8*%
X163769200Y-102489000D03*
D14*
X161229200Y-102489000D03*
X158689200Y-102489000D03*
X156149200Y-102489000D03*
%TD*%
D16*
%TO.C,J1*%
X139700000Y-110490000D03*
D17*
X142240000Y-107950000D03*
X137160000Y-107950000D03*
X142240000Y-113030000D03*
X137160000Y-113030000D03*
%TD*%
D16*
%TO.C,J3*%
X164439600Y-110083600D03*
D17*
X166979600Y-107543600D03*
X161899600Y-107543600D03*
X161899600Y-112623600D03*
X166979600Y-112623600D03*
%TD*%
D15*
%TO.C,C11*%
X121920000Y-94062800D03*
X121920000Y-96062800D03*
%TD*%
D16*
%TO.C,J2*%
X130098800Y-110490000D03*
D17*
X132638800Y-113030000D03*
X127558800Y-113030000D03*
X127558800Y-107950000D03*
X132638800Y-107950000D03*
%TD*%
D16*
%TO.C,J4*%
X155651200Y-110083600D03*
D17*
X153111200Y-107543600D03*
X153111200Y-112623600D03*
X158191200Y-112623600D03*
X158191200Y-107543600D03*
%TD*%
D18*
%TO.C,U2*%
X120751200Y-89320400D03*
D19*
X127051200Y-87020400D03*
D18*
X120751200Y-87020400D03*
X120751200Y-84720400D03*
%TD*%
M02*
